SplineFontDB: 3.0
FontName: BenchTwelve-Regular
FullName: BenchTwelve Regular
FamilyName: BenchTwelve
Weight: Book
Copyright: vernon adams (c) 2012
Version: 1
ItalicAngle: 0
UnderlinePosition: 0
UnderlineWidth: 0
Ascent: 1638
Descent: 410
sfntRevision: 0x00010000
LayerCount: 2
Layer: 0 1 "Back"  1
Layer: 1 1 "Fore"  0
XUID: [1021 332 1330122705 15196303]
FSType: 0
OS2Version: 4
OS2_WeightWidthSlopeOnly: 1
OS2_UseTypoMetrics: 1
CreationTime: 1342305810
ModificationTime: 1343128905
PfmFamily: 17
TTFWeight: 400
TTFWidth: 6
LineGap: 0
VLineGap: 0
Panose: 2 0 5 3 0 0 0 0 0 0
OS2TypoAscent: 2077
OS2TypoAOffset: 0
OS2TypoDescent: -750
OS2TypoDOffset: 0
OS2TypoLinegap: 0
OS2WinAscent: 2077
OS2WinAOffset: 0
OS2WinDescent: 750
OS2WinDOffset: 0
HheadAscent: 2077
HheadAOffset: 0
HheadDescent: -750
HheadDOffset: 0
OS2SubXSize: 1331
OS2SubYSize: 1433
OS2SubXOff: 0
OS2SubYOff: 286
OS2SupXSize: 1331
OS2SupYSize: 1433
OS2SupXOff: 0
OS2SupYOff: 983
OS2StrikeYSize: 102
OS2StrikeYPos: 530
OS2Vendor: 'newt'
OS2CodePages: 00000093.00000000
OS2UnicodeRanges: a000006f.4000204a.00000000.00000000
Lookup: 4 0 1 "'liga' Standard Ligatures lookup 0"  {"'liga' Standard Ligatures lookup 0 subtable"  } ['liga' ('DFLT' <'dflt' > 'grek' <'dflt' > 'latn' <'dflt' > ) ]
Lookup: 258 0 0 "'kern' Horizontal Kerning in Latin lookup 0"  {"'kern' Horizontal Kerning in Latin lookup 0 per glyph data 0"  "'kern' Horizontal Kerning in Latin lookup 0 kerning class 1"  } ['kern' ('DFLT' <'dflt' > 'latn' <'dflt' > ) ]
MarkAttachClasses: 1
DEI: 91125
KernClass2: 32 26 "'kern' Horizontal Kerning in Latin lookup 0 kerning class 1" 
 89 A Agrave Aacute Acircumflex Atilde Adieresis Aring Amacron Abreve Aogonek uni0200 uni0202
 1 B
 1 C
 111 D O Q Eth Ograve Oacute Ocircumflex Otilde Odieresis Oslash Dcaron Omacron Obreve Ohungarumlaut uni020C uni020E
 1 F
 1 G
 1 K
 1 L
 1 P
 44 R Racute Rcommaaccent Rcaron uni0210 uni0212
 37 S Sacute Scedilla Scaron Scommaaccent
 17 T Tcaron glyph425

StartChar: .notdef
Encoding: 65536 -1 0
Width: 748
Flags: W
LayerCount: 2
Fore
SplineSet
136 68 m 1,0,-1
 544 68 l 1,1,-1
 544 1297 l 1,2,-1
 136 1297 l 1,3,-1
 136 68 l 1,0,-1
68 0 m 1,4,-1
 68 1365 l 1,5,-1
 612 1365 l 1,6,-1
 612 0 l 1,7,-1
 68 0 l 1,4,-1
EndSplineSet
EndChar

StartChar: exclam
Encoding: 33 33 4
Width: 541
GlyphClass: 2
Flags: W
LayerCount: 2
Fore
SplineSet
280 430 m 2,0,1
 242.272727273 430 242.272727273 430 237 459 c 0,2,3
 235 470 235 470 234 496 c 1,4,-1
 167 1364 l 1,5,6
 167 1436 167 1436 234 1436 c 2,7,-1
 319 1436 l 2,8,9
 350 1436 350 1436 369 1413 c 128,-1,10
 388 1390 388 1390 386 1364 c 2,11,-1
 327 496 l 1,12,13
 321.879581152 439.67539267 321.879581152 439.67539267 309.439790576 434.837696335 c 128,-1,14
 297 430 297 430 281 430 c 2,15,-1
 280 430 l 2,0,1
215 0 m 2,16,17
 148 0 148 0 148 67 c 2,18,-1
 148 178 l 2,19,20
 148 245 148 245 215 245 c 2,21,-1
 323 245 l 2,22,23
 390 245 390 245 390 178 c 2,24,-1
 390 67 l 2,25,26
 390 0 390 0 323 0 c 2,27,-1
 215 0 l 2,16,17
EndSplineSet
EndChar

StartChar: quotedbl
Encoding: 34 34 5
Width: 826
GlyphClass: 2
Flags: W
LayerCount: 2
Fore
SplineSet
690 1357 m 1,0,-1
 630 841 l 1,1,2
 630 789.5 630 789.5 614 781.5 c 0,3,4
 611 780 611 780 606.5 777.5 c 0,5,6
 600.2 774 600.2 774 584 774 c 2,7,-1
 581 774 l 2,8,9
 544.428571429 774 544.428571429 774 539.5 808.5 c 0,10,11
 539 812 539 812 537.5 824 c 128,-1,12
 536 836 536 836 535 841 c 2,13,-1
 469 1348 l 2,14,15
 468 1352 468 1352 468 1370.5 c 128,-1,16
 468 1389 468 1389 488 1412.5 c 128,-1,17
 508 1436 508 1436 536 1436 c 2,18,-1
 623 1436 l 2,19,20
 652 1436 652 1436 671 1412 c 128,-1,21
 690 1388 690 1388 690 1357 c 1,0,-1
354 1357 m 1,22,-1
 294 841 l 1,23,24
 294 789.5 294 789.5 278 781.5 c 0,25,26
 275 780 275 780 270.5 777.5 c 0,27,28
 264.2 774 264.2 774 248 774 c 2,29,-1
 245 774 l 2,30,31
 208.428571429 774 208.428571429 774 203.5 808.5 c 0,32,33
 203 812 203 812 201.5 824 c 128,-1,34
 200 836 200 836 199 841 c 2,35,-1
 133 1348 l 2,36,37
 132 1352 132 1352 132 1371.5 c 128,-1,38
 132 1391 132 1391 151 1413.5 c 128,-1,39
 170 1436 170 1436 199 1436 c 2,40,-1
 286 1436 l 2,41,42
 315 1436 315 1436 334.5 1412 c 128,-1,43
 354 1388 354 1388 354 1357 c 1,22,-1
EndSplineSet
EndChar

StartChar: numbersign
Encoding: 35 35 6
Width: 1709
GlyphClass: 2
Flags: W
LayerCount: 2
Fore
SplineSet
568 587 m 1,0,-1
 1047 587 l 1,1,-1
 1106 835 l 1,2,-1
 627 835 l 1,3,-1
 568 587 l 1,0,-1
1500 475 m 2,4,5
 1500 418 1500 418 1433 418 c 2,6,-1
 1184 418 l 1,7,-1
 1046 -170 l 1,8,9
 1033 -205 1033 -205 996 -205 c 2,10,-1
 894 -205 l 2,11,12
 881 -205 881 -205 873 -194 c 128,-1,13
 865 -183 865 -183 870 -170 c 1,14,-1
 1008 418 l 1,15,-1
 529 418 l 1,16,-1
 391 -170 l 1,17,18
 378 -205 378 -205 341 -205 c 2,19,-1
 239 -205 l 2,20,21
 226 -205 226 -205 218 -194 c 128,-1,22
 210 -183 210 -183 215 -170 c 1,23,-1
 353 418 l 1,24,-1
 201 418 l 2,25,26
 134 418 134 418 134 475 c 2,27,-1
 134 530 l 2,28,29
 134 587 134 587 201 587 c 2,30,-1
 392 587 l 1,31,-1
 451 835 l 1,32,-1
 276 835 l 2,33,34
 209 835 209 835 209 892 c 2,35,-1
 209 949 l 2,36,37
 209 1006 209 1006 276 1006 c 2,38,-1
 490 1006 l 1,39,-1
 632 1612 l 1,40,41
 645 1647 645 1647 682 1647 c 2,42,-1
 784 1647 l 2,43,44
 797 1647 797 1647 805 1636 c 128,-1,45
 813 1625 813 1625 808 1612 c 1,46,-1
 666 1006 l 1,47,-1
 1145 1006 l 1,48,-1
 1287 1612 l 1,49,50
 1300 1647 1300 1647 1337 1647 c 2,51,-1
 1439 1647 l 2,52,53
 1452 1647 1452 1647 1460 1636 c 128,-1,54
 1468 1625 1468 1625 1463 1612 c 1,55,-1
 1321 1006 l 1,56,-1
 1508 1006 l 2,57,58
 1575 1006 1575 1006 1575 949 c 2,59,-1
 1575 892 l 2,60,61
 1575 835 1575 835 1508 835 c 2,62,-1
 1282 835 l 1,63,-1
 1223 587 l 1,64,-1
 1433 587 l 2,65,66
 1500 587 1500 587 1500 530 c 2,67,-1
 1500 475 l 2,4,5
EndSplineSet
EndChar

StartChar: dollar
Encoding: 36 36 7
Width: 2048
GlyphClass: 2
Flags: W
LayerCount: 2
Fore
SplineSet
1712 1248 m 1,0,1
 1693 1191 1693 1191 1639 1191 c 1,2,3
 1613 1194 1613 1194 1555.5 1212 c 128,-1,4
 1498 1230 1498 1230 1436.5 1249 c 0,5,6
 1266.49809886 1301.52091255 1266.49809886 1301.52091255 1039 1311 c 1,7,-1
 1039 832 l 1,8,-1
 1065 832 l 2,9,10
 1460 832 1460 832 1644.5 737 c 128,-1,11
 1829 642 1829 642 1829 436 c 0,12,13
 1829 123.876923077 1829 123.876923077 1548.5 27.5 c 0,14,15
 1363.42079761 -36.0913156914 1363.42079761 -36.0913156914 1039 -40 c 1,16,-1
 1039 -137 l 2,17,18
 1039 -197 1039 -197 1005 -197 c 2,19,-1
 981 -197 l 2,20,21
 947 -197 947 -197 947 -137 c 2,22,-1
 947 -41 l 1,23,24
 722 -40 722 -40 554.5 -10 c 128,-1,25
 387 20 387 20 187 98 c 1,26,27
 147 112 147 112 145 164 c 1,28,-1
 155 213 l 1,29,30
 175 255 175 255 222 258 c 1,31,32
 245 257 245 257 303 237 c 128,-1,33
 361 217 361 217 431.5 194 c 128,-1,34
 502 171 502 171 641 149 c 128,-1,35
 780 127 780 127 947 122 c 1,36,-1
 947 653 l 1,37,38
 510.461106656 662.489975942 510.461106656 662.489975942 351 733.5 c 0,39,40
 209.56975381 796.480656506 209.56975381 796.480656506 168.5 906 c 0,41,42
 146 966 146 966 146 1044 c 128,-1,43
 146 1122 146 1122 168.5 1184 c 128,-1,44
 191 1246 191 1246 229.5 1290 c 128,-1,45
 268 1334 268 1334 327 1367 c 128,-1,46
 386 1400 386 1400 451.5 1420.5 c 128,-1,47
 517 1441 517 1441 601.5 1453.5 c 0,48,49
 746.84 1475 746.84 1475 947 1475 c 1,50,-1
 947 1577 l 2,51,52
 947 1638 947 1638 981 1638 c 2,53,-1
 1005 1638 l 2,54,55
 1039 1638 1039 1638 1039 1577 c 2,56,-1
 1039 1474 l 1,57,58
 1238 1470 1238 1470 1383 1438.5 c 128,-1,59
 1528 1407 1528 1407 1676 1341 c 1,60,61
 1717 1325.89473684 1717 1325.89473684 1717 1276 c 0,62,63
 1717 1262 1717 1262 1712 1251 c 1,64,-1
 1712 1248 l 1,0,1
1039 123 m 1,65,66
 1460.50693626 128.657811225 1460.50693626 128.657811225 1564.5 235.5 c 0,67,68
 1601 273 1601 273 1613.5 313 c 128,-1,69
 1626 353 1626 353 1626 407.5 c 128,-1,70
 1626 462 1626 462 1615 496.5 c 128,-1,71
 1604 531 1604 531 1569.5 563.5 c 128,-1,72
 1535 596 1535 596 1471 613.5 c 0,73,74
 1326.54285714 653 1326.54285714 653 1039 653 c 1,75,-1
 1039 123 l 1,65,66
947 831 m 1,76,-1
 947 1313 l 1,77,78
 474.567471591 1307.53835227 474.567471591 1307.53835227 380.5 1162 c 0,79,80
 354 1121 354 1121 354 1074.5 c 128,-1,81
 354 1028 354 1028 361 1001 c 128,-1,82
 368 974 368 974 389 947 c 128,-1,83
 410 920 410 920 450 902.5 c 128,-1,84
 490 885 490 885 555.5 869.5 c 0,85,86
 674.978950404 841.226355248 674.978950404 841.226355248 947 831 c 1,76,-1
EndSplineSet
EndChar

StartChar: percent
Encoding: 37 37 8
Width: 2644
GlyphClass: 2
Flags: W
LayerCount: 2
Fore
SplineSet
2314 61.5 m 0,0,1
 2211 2 2211 2 2085 2 c 128,-1,2
 1959 2 1959 2 1872 36 c 128,-1,3
 1785 70 1785 70 1730.5 130 c 128,-1,4
 1676 190 1676 190 1647 268 c 128,-1,5
 1618 346 1618 346 1618 436 c 128,-1,6
 1618 526 1618 526 1646.5 604.5 c 128,-1,7
 1675 683 1675 683 1729 744 c 128,-1,8
 1783 805 1783 805 1870 840.5 c 128,-1,9
 1957 876 1957 876 2067 876 c 128,-1,10
 2177 876 2177 876 2263.5 840.5 c 128,-1,11
 2350 805 2350 805 2404.5 744 c 0,12,13
 2515 620.321100917 2515 620.321100917 2515 436 c 0,14,15
 2515 177.611650485 2515 177.611650485 2314 61.5 c 0,0,1
1868.5 221 m 128,-1,17
 1941 141 1941 141 2069 141 c 128,-1,18
 2197 141 2197 141 2267 220 c 128,-1,19
 2337 299 2337 299 2337 440.5 c 128,-1,20
 2337 582 2337 582 2269 659.5 c 128,-1,21
 2201 737 2201 737 2069.5 737 c 128,-1,22
 1938 737 1938 737 1867 658.5 c 128,-1,23
 1796 580 1796 580 1796 440.5 c 128,-1,16
 1796 301 1796 301 1868.5 221 c 128,-1,17
823 682.5 m 0,24,25
 720 623 720 623 594 623 c 128,-1,26
 468 623 468 623 381 657 c 128,-1,27
 294 691 294 691 239.5 751 c 128,-1,28
 185 811 185 811 156 889 c 128,-1,29
 127 967 127 967 127 1057 c 128,-1,30
 127 1147 127 1147 155.5 1225.5 c 128,-1,31
 184 1304 184 1304 238 1365 c 128,-1,32
 292 1426 292 1426 379 1461.5 c 128,-1,33
 466 1497 466 1497 576 1497 c 128,-1,34
 686 1497 686 1497 772.5 1461.5 c 128,-1,35
 859 1426 859 1426 913.5 1365 c 0,36,37
 1024 1241.32110092 1024 1241.32110092 1024 1057 c 0,38,39
 1024 798.611650485 1024 798.611650485 823 682.5 c 0,24,25
378 842 m 128,-1,41
 451 762 451 762 579 762 c 128,-1,42
 707 762 707 762 776.5 841 c 128,-1,43
 846 920 846 920 846 1061.5 c 128,-1,44
 846 1203 846 1203 778 1280.5 c 128,-1,45
 710 1358 710 1358 578.5 1358 c 128,-1,46
 447 1358 447 1358 376 1279.5 c 128,-1,47
 305 1201 305 1201 305 1061.5 c 128,-1,40
 305 922 305 922 378 842 c 128,-1,41
952 -82 m 2,48,49
 931 -82 931 -82 916 -67.5 c 128,-1,50
 901 -53 901 -53 901 -38.5 c 128,-1,51
 901 -24 901 -24 906 -12 c 2,52,-1
 1561 1466 l 2,53,54
 1574 1497 1574 1497 1604 1516.5 c 128,-1,55
 1634 1536 1634 1536 1669 1536 c 2,56,-1
 1697 1536 l 2,57,58
 1718 1536 1718 1536 1733 1521.5 c 128,-1,59
 1748 1507 1748 1507 1748 1492.5 c 128,-1,60
 1748 1478 1748 1478 1743 1466 c 2,61,-1
 1089 -12 l 2,62,63
 1075 -44 1075 -44 1045 -63 c 128,-1,64
 1015 -82 1015 -82 981 -82 c 2,65,-1
 952 -82 l 2,48,49
EndSplineSet
EndChar

StartChar: ampersand
Encoding: 38 38 9
Width: 2413
GlyphClass: 2
Flags: W
LayerCount: 2
Fore
SplineSet
1539 637 m 2,0,1
 1539 663 1539 663 1512 663 c 2,2,-1
 785 663 l 1,3,4
 505.24931694 660.230191257 505.24931694 660.230191257 420.5 543.5 c 0,5,6
 376 482.20754717 376 482.20754717 376 398 c 0,7,8
 376 246 376 246 504 188.5 c 128,-1,9
 632 131 632 131 927.5 131 c 128,-1,10
 1223 131 1223 131 1546 243 c 1,11,12
 1539 281 1539 281 1539 331 c 2,13,-1
 1539 637 l 2,0,1
1784 663 m 2,14,15
 1757 663 1757 663 1757 637 c 2,16,-1
 1757 301 l 2,17,18
 1757 199 1757 199 1812 153 c 128,-1,19
 1867 107 1867 107 1970.5 107 c 128,-1,20
 2074 107 2074 107 2185 144 c 0,21,22
 2206 151 2206 151 2215.5 151 c 128,-1,23
 2225 151 2225 151 2229 150 c 128,-1,24
 2233 149 2233 149 2236 148 c 128,-1,25
 2239 147 2239 147 2241.5 143.5 c 128,-1,26
 2244 140 2244 140 2245.5 138.5 c 128,-1,27
 2247 137 2247 137 2249.5 131.5 c 128,-1,28
 2252 126 2252 126 2252.5 124 c 0,29,30
 2255 114 2255 114 2259 106 c 1,31,-1
 2269 78 l 1,32,33
 2272 66 2272 66 2272 52 c 0,34,35
 2272 26.2142857143 2272 26.2142857143 2218 5 c 0,36,37
 2102 -41 2102 -41 1941 -41 c 0,38,39
 1711 -41 1711 -41 1610 89 c 1,40,41
 1335.97938144 -5.60235640648 1335.97938144 -5.60235640648 1140 -28 c 0,42,43
 1035 -40 1035 -40 889.5 -40 c 128,-1,44
 744 -40 744 -40 610.5 -18 c 128,-1,45
 477 4 477 4 393 41 c 128,-1,46
 309 78 309 78 257 133.5 c 0,47,48
 165 231.692307692 165 231.692307692 165 378.346153846 c 128,-1,49
 165 525 165 525 248.5 626 c 128,-1,50
 332 727 332 727 476 742 c 1,51,52
 319 762 319 762 230.5 848.5 c 128,-1,53
 142 935 142 935 142 1068 c 0,54,55
 142 1312.34883721 142 1312.34883721 376 1403.5 c 0,56,57
 556.985074627 1474 556.985074627 1474 907 1474 c 0,58,59
 1052 1474 1052 1474 1207 1456 c 128,-1,60
 1362 1438 1362 1438 1449 1412 c 1,61,62
 1502 1398 1502 1398 1502 1355 c 0,63,64
 1502 1353 1502 1353 1496 1286 c 1,65,66
 1490 1242 1490 1242 1452 1242 c 0,67,68
 1442 1242 1442 1242 1434 1244 c 128,-1,69
 1426 1246 1426 1246 1400 1252 c 128,-1,70
 1374 1258 1374 1258 1348.5 1263.5 c 128,-1,71
 1323 1269 1323 1269 1275 1276.5 c 128,-1,72
 1227 1284 1227 1284 1176 1289.5 c 0,73,74
 1050.81818182 1303 1050.81818182 1303 919.909090909 1303 c 128,-1,75
 789 1303 789 1303 706 1296 c 128,-1,76
 623 1289 623 1289 566.5 1277.5 c 128,-1,77
 510 1266 510 1266 470 1246 c 128,-1,78
 430 1226 430 1226 408 1207 c 128,-1,79
 386 1188 386 1188 373.5 1158.5 c 0,80,81
 355 1114.84 355 1114.84 355 1059.92 c 128,-1,82
 355 1005 355 1005 366 973.5 c 128,-1,83
 377 942 377 942 406.5 912 c 128,-1,84
 436 882 436 882 484 862 c 0,85,86
 589.6 818 589.6 818 795 818 c 2,87,-1
 1512 818 l 2,88,89
 1539 818 1539 818 1539 845 c 1,90,-1
 1559 1056 l 1,91,92
 1565 1090 1565 1090 1580 1106 c 128,-1,93
 1595 1122 1595 1122 1626 1122 c 2,94,-1
 1690 1122 l 2,95,96
 1757 1122 1757 1122 1757 1056 c 2,97,-1
 1757 845 l 2,98,99
 1757 818 1757 818 1784 818 c 2,100,-1
 2166 818 l 2,101,102
 2233 818 2233 818 2233 752 c 2,103,-1
 2233 730 l 2,104,105
 2233 663 2233 663 2166 663 c 2,106,-1
 1784 663 l 2,14,15
EndSplineSet
EndChar

StartChar: quotesingle
Encoding: 39 39 10
Width: 501
GlyphClass: 2
Flags: W
LayerCount: 2
Fore
SplineSet
362 1357 m 1,0,-1
 302 841 l 1,1,2
 302 789.5 302 789.5 286 781.5 c 0,3,4
 283 780 283 780 278.5 777.5 c 0,5,6
 272.2 774 272.2 774 256 774 c 2,7,-1
 253 774 l 2,8,9
 216.428571429 774 216.428571429 774 211.5 808.5 c 0,10,11
 211 812 211 812 209.5 824 c 128,-1,12
 208 836 208 836 207 841 c 2,13,-1
 141 1348 l 2,14,15
 140 1352 140 1352 140 1371.5 c 128,-1,16
 140 1391 140 1391 159 1413.5 c 128,-1,17
 178 1436 178 1436 207 1436 c 2,18,-1
 294 1436 l 2,19,20
 323 1436 323 1436 342.5 1412 c 128,-1,21
 362 1388 362 1388 362 1357 c 1,0,-1
EndSplineSet
EndChar

StartChar: parenleft
Encoding: 40 40 11
Width: 839
GlyphClass: 2
Flags: W
LayerCount: 2
Fore
SplineSet
649 -143 m 0,0,1
 260.254014686 -26.6599605994 260.254014686 -26.6599605994 167.5 413.5 c 0,2,3
 140 544 140 544 140 698 c 128,-1,4
 140 852 140 852 170 985.5 c 128,-1,5
 200 1119 200 1119 260.5 1231 c 0,6,7
 387.158909224 1465.47599724 387.158909224 1465.47599724 649 1540 c 0,8,9
 657 1542 657 1542 672 1542 c 128,-1,10
 687 1542 687 1542 706.5 1519 c 128,-1,11
 726 1496 726 1496 726 1470 c 2,12,-1
 726 1452 l 2,13,14
 726 1406.28571429 726 1406.28571429 697.5 1390 c 0,15,16
 687 1384 687 1384 661.5 1372.5 c 128,-1,17
 636 1361 636 1361 620 1352 c 0,18,19
 359 1203 359 1203 359 699 c 0,20,21
 359 400.985714286 359 400.985714286 425 260.5 c 0,22,23
 460 186 460 186 505 137.5 c 128,-1,24
 550 89 550 89 592.5 61 c 128,-1,25
 635 33 635 33 669 18.5 c 128,-1,26
 703 4 703 4 714.5 -11 c 128,-1,27
 726 -26 726 -26 726 -57 c 2,28,-1
 726 -73 l 2,29,30
 726 -99 726 -99 706.5 -122 c 128,-1,31
 687 -145 687 -145 672 -145 c 128,-1,32
 657 -145 657 -145 649 -143 c 0,0,1
EndSplineSet
EndChar

StartChar: parenright
Encoding: 41 41 12
Width: 840
GlyphClass: 2
Flags: W
LayerCount: 2
Fore
SplineSet
190 -143 m 0,0,1
 187 -144 187 -144 170.5 -144 c 128,-1,2
 154 -144 154 -144 133.5 -122 c 128,-1,3
 113 -100 113 -100 113 -73 c 2,4,-1
 113 -55 l 2,5,6
 113 -15.3636363636 113 -15.3636363636 128.5 -2.68181818182 c 128,-1,7
 144 10 144 10 153.5 15.5 c 128,-1,8
 163 21 163 21 184 29.5 c 128,-1,9
 205 38 205 38 234 53 c 128,-1,10
 263 68 263 68 296.5 93.5 c 128,-1,11
 330 119 330 119 366.5 168.5 c 128,-1,12
 403 218 403 218 426 284.5 c 128,-1,13
 449 351 449 351 464 456.5 c 128,-1,14
 479 562 479 562 479 698 c 128,-1,15
 479 834 479 834 464 940 c 128,-1,16
 449 1046 449 1046 426 1112.5 c 128,-1,17
 403 1179 403 1179 366.5 1229.5 c 128,-1,18
 330 1280 330 1280 296.5 1306 c 128,-1,19
 263 1332 263 1332 234.5 1346 c 128,-1,20
 206 1360 206 1360 177 1372.5 c 128,-1,21
 148 1385 148 1385 140 1390.5 c 0,22,23
 113 1409.0625 113 1409.0625 113 1454 c 2,24,-1
 113 1470 l 2,25,26
 113 1497 113 1497 133.5 1519 c 128,-1,27
 154 1541 154 1541 170.5 1541 c 128,-1,28
 187 1541 187 1541 190 1540 c 0,29,30
 698 1435 698 1435 698 698 c 128,-1,31
 698 -39 698 -39 190 -143 c 0,0,1
EndSplineSet
EndChar

StartChar: asterisk
Encoding: 42 42 13
Width: 1289
GlyphClass: 2
Flags: W
LayerCount: 2
Fore
SplineSet
469 342 m 2,0,1
 444 292 444 292 382.5 292 c 0,2,3
 351 292 351 292 321.5 320 c 128,-1,4
 292 348 292 348 292 380 c 128,-1,5
 292 412 292 412 331 466.5 c 128,-1,6
 370 521 370 521 413 568 c 128,-1,7
 456 615 456 615 511 671.5 c 128,-1,8
 566 728 566 728 575 738 c 1,9,-1
 194 821 l 2,10,11
 163 828 163 828 142 852.5 c 128,-1,12
 121 877 121 877 121 911.5 c 128,-1,13
 121 946 121 946 147.5 975.5 c 128,-1,14
 174 1005 174 1005 203 1005 c 128,-1,15
 232 1005 232 1005 290.5 979 c 128,-1,16
 349 953 349 953 403.5 923.5 c 128,-1,17
 458 894 458 894 524.5 857.5 c 128,-1,18
 591 821 591 821 602 815 c 1,19,20
 597 856 597 856 582 941.5 c 0,21,22
 550 1123.9 550 1123.9 550 1222 c 0,23,24
 550 1258 550 1258 578.5 1281.5 c 128,-1,25
 607 1305 607 1305 644 1305 c 128,-1,26
 681 1305 681 1305 707.5 1279.5 c 128,-1,27
 734 1254 734 1254 734 1207.5 c 128,-1,28
 734 1161 734 1161 725.5 1092.5 c 128,-1,29
 717 1024 717 1024 703 940 c 128,-1,30
 689 856 689 856 684 815 c 1,31,32
 694 820 694 820 761.5 857.5 c 128,-1,33
 829 895 829 895 883 924 c 0,34,35
 1033.82758621 1005 1033.82758621 1005 1072.9137931 1005 c 128,-1,36
 1112 1005 1112 1005 1138.5 975 c 128,-1,37
 1165 945 1165 945 1165 911 c 128,-1,38
 1165 877 1165 877 1144 852.5 c 128,-1,39
 1123 828 1123 828 1093 821 c 2,40,-1
 712 738 l 1,41,42
 722 727 722 727 775.5 671.5 c 128,-1,43
 829 616 829 616 873 568.5 c 128,-1,44
 917 521 917 521 955.5 466.5 c 128,-1,45
 994 412 994 412 994 380.5 c 128,-1,46
 994 349 994 349 964.5 320.5 c 128,-1,47
 935 292 935 292 904 292 c 0,48,49
 842 292 842 292 817 342 c 2,50,-1
 644 692 l 1,51,-1
 469 342 l 2,0,1
EndSplineSet
EndChar

StartChar: plus
Encoding: 43 43 14
Width: 1201
GlyphClass: 2
Flags: W
LayerCount: 2
Fore
SplineSet
505 1010 m 2,0,1
 505 1077 505 1077 562 1077 c 2,2,-1
 638 1077 l 2,3,4
 669 1077 669 1077 681.5 1060.5 c 128,-1,5
 694 1044 694 1044 694 1010 c 2,6,-1
 694 674 l 2,7,8
 694 638 694 638 721 638 c 2,9,-1
 1022 638 l 2,10,11
 1054 638 1054 638 1066.5 626 c 128,-1,12
 1079 614 1079 614 1079 582 c 2,13,-1
 1079 503 l 2,14,15
 1079 471 1079 471 1066.5 458.5 c 128,-1,16
 1054 446 1054 446 1022 446 c 2,17,-1
 721 446 l 2,18,19
 694 446 694 446 694 409 c 2,20,-1
 694 85 l 2,21,22
 694 51 694 51 681.5 34.5 c 128,-1,23
 669 18 669 18 638 18 c 2,24,-1
 562 18 l 2,25,26
 505 18 505 18 505 85 c 2,27,-1
 505 409 l 2,28,29
 505 446 505 446 479 446 c 2,30,-1
 177 446 l 2,31,32
 145 446 145 446 133 458.5 c 128,-1,33
 121 471 121 471 121 503 c 2,34,-1
 121 582 l 2,35,36
 121 614 121 614 133 626 c 128,-1,37
 145 638 145 638 177 638 c 2,38,-1
 479 638 l 2,39,40
 505 638 505 638 505 674 c 2,41,-1
 505 1010 l 2,0,1
EndSplineSet
EndChar

StartChar: comma
Encoding: 44 44 15
Width: 594
GlyphClass: 2
Flags: W
LayerCount: 2
Fore
SplineSet
132 253 m 2,0,1
 132 316 132 316 192 316 c 2,2,-1
 389 316 l 2,3,4
 421 316 421 316 443.5 293.5 c 128,-1,5
 466 271 466 271 466 239 c 2,6,-1
 466 97 l 2,7,8
 466 -71 466 -71 387.5 -176 c 128,-1,9
 309 -281 309 -281 198 -300 c 0,10,11
 193 -301 193 -301 183 -301 c 0,12,13
 132 -301 132 -301 132 -255 c 2,14,-1
 132 -246 l 2,15,16
 132 -212 132 -212 140.5 -203.5 c 128,-1,17
 149 -195 149 -195 166.5 -186 c 0,18,19
 233.111617312 -151.742596811 233.111617312 -151.742596811 263.555808656 -101.371298405 c 128,-1,20
 294 -51 294 -51 294 -25.5 c 128,-1,21
 294 0 294 0 277 0 c 2,22,-1
 192 0 l 2,23,24
 132 0 132 0 132 50 c 2,25,-1
 132 253 l 2,0,1
EndSplineSet
EndChar

StartChar: hyphen
Encoding: 45 45 16
Width: 827
GlyphClass: 2
Flags: W
LayerCount: 2
Fore
SplineSet
179 489 m 2,0,1
 146 489 146 489 133.5 501 c 128,-1,2
 121 513 121 513 121 545 c 2,3,-1
 121 594 l 2,4,5
 121 626 121 626 133.5 638 c 128,-1,6
 146 650 146 650 179 650 c 2,7,-1
 650 650 l 2,8,9
 682 650 682 650 694 638 c 128,-1,10
 706 626 706 626 706 594 c 2,11,-1
 706 545 l 2,12,13
 706 513 706 513 694 501 c 128,-1,14
 682 489 682 489 650 489 c 2,15,-1
 179 489 l 2,0,1
EndSplineSet
EndChar

StartChar: period
Encoding: 46 46 17
Width: 543
GlyphClass: 2
Flags: W
LayerCount: 2
Fore
SplineSet
204 0 m 2,0,1
 172 0 172 0 149.5 22.5 c 128,-1,2
 127 45 127 45 127 77 c 2,3,-1
 127 220 l 2,4,5
 127 252 127 252 149.5 274.5 c 128,-1,6
 172 297 172 297 204 297 c 2,7,-1
 339 297 l 2,8,9
 371 297 371 297 393.5 274.5 c 128,-1,10
 416 252 416 252 416 220 c 2,11,-1
 416 77 l 2,12,13
 416 45 416 45 393.5 22.5 c 128,-1,14
 371 0 371 0 339 0 c 2,15,-1
 204 0 l 2,0,1
EndSplineSet
EndChar

StartChar: slash
Encoding: 47 47 18
Width: 1231
GlyphClass: 2
Flags: W
LayerCount: 2
Fore
SplineSet
95 -205 m 2,0,1
 78 -205 78 -205 78 -187 c 0,2,3
 78 -178 78 -178 82 -171 c 2,4,-1
 978 1618 l 2,5,6
 979 1620 979 1620 981 1624.5 c 128,-1,7
 983 1629 983 1629 984 1630 c 128,-1,8
 985 1631 985 1631 986.5 1634.5 c 128,-1,9
 988 1638 988 1638 989.5 1639 c 128,-1,10
 991 1640 991 1640 993 1642 c 128,-1,11
 995 1644 995 1644 997 1644.5 c 128,-1,12
 999 1645 999 1645 1002 1646 c 0,13,14
 1008 1648 1008 1648 1017 1648 c 2,15,-1
 1149 1648 l 2,16,17
 1166 1648 1166 1648 1166 1629 c 0,18,19
 1166 1620 1166 1620 1163 1613 c 2,20,-1
 277 -170 l 2,21,22
 264 -195 264 -195 256 -200 c 128,-1,23
 248 -205 248 -205 227 -205 c 2,24,-1
 95 -205 l 2,0,1
EndSplineSet
EndChar

StartChar: zero
Encoding: 48 48 19
Width: 1925
GlyphClass: 2
Flags: W
LayerCount: 2
Fore
SplineSet
963 -41 m 1,0,1
 821 -41 821 -41 701 -16.5 c 128,-1,2
 581 8 581 8 475 65.5 c 128,-1,3
 369 123 369 123 295 210.5 c 0,4,5
 136 398.506756757 136 398.506756757 136 732 c 0,6,7
 136 1181.36363636 136 1181.36363636 474.5 1366 c 0,8,9
 674.333333333 1475 674.333333333 1475 962 1475 c 0,10,11
 1411.35672515 1475 1411.35672515 1475 1630.5 1223.5 c 0,12,13
 1789 1041.59731544 1789 1041.59731544 1789 732 c 0,14,15
 1789 249.44549763 1789 249.44549763 1451.5 65.5 c 0,16,17
 1256.09565217 -41 1256.09565217 -41 963 -41 c 1,0,1
962.5 129 m 0,18,19
 1115 129 1115 129 1225 159.5 c 128,-1,20
 1335 190 1335 190 1415 259.5 c 0,21,22
 1574 397.63125 1574 397.63125 1574 732 c 0,23,24
 1574 1304 1574 1304 962.5 1304 c 128,-1,25
 351 1304 351 1304 351 732 c 0,26,27
 351 397.1375 351 397.1375 510 260 c 0,28,29
 661.884057971 129 661.884057971 129 962.5 129 c 0,18,19
EndSplineSet
EndChar

StartChar: one
Encoding: 49 49 20
Width: 842
GlyphClass: 2
Flags: W
LayerCount: 2
Fore
SplineSet
535 0 m 2,0,1
 468 0 468 0 468 67 c 2,2,-1
 468 1219 l 2,3,4
 468 1234 468 1234 457 1245 c 128,-1,5
 446 1256 446 1256 431 1256 c 1,6,-1
 156 1225 l 1,7,8
 89 1225 89 1225 89 1292 c 2,9,-1
 89 1322 l 2,10,11
 89 1382 89 1382 156 1389 c 2,12,-1
 615 1438 l 1,13,14
 682 1438 682 1438 682 1371 c 2,15,-1
 682 67 l 2,16,17
 682 0 682 0 615 0 c 2,18,-1
 535 0 l 2,0,1
EndSplineSet
EndChar

StartChar: two
Encoding: 50 50 21
Width: 1986
GlyphClass: 2
Flags: W
LayerCount: 2
Fore
SplineSet
223 0 m 2,0,1
 179 0 179 0 154.5 24 c 128,-1,2
 130 48 130 48 130 111 c 128,-1,3
 130 174 130 174 149 246.5 c 128,-1,4
 168 319 168 319 198.5 373 c 128,-1,5
 229 427 229 427 280.5 473 c 128,-1,6
 332 519 332 519 382 550.5 c 128,-1,7
 432 582 432 582 505 608.5 c 128,-1,8
 578 635 578 635 638 651.5 c 128,-1,9
 698 668 698 668 783 682.5 c 0,10,11
 892.471669219 701.174578867 892.471669219 701.174578867 1031.73583461 718.587289433 c 128,-1,12
 1171 736 1171 736 1219.5 743 c 128,-1,13
 1268 750 1268 750 1346 764 c 128,-1,14
 1424 778 1424 778 1463 794 c 128,-1,15
 1502 810 1502 810 1545.5 834.5 c 0,16,17
 1625 879.275862069 1625 879.275862069 1625 970 c 0,18,19
 1625 1090 1625 1090 1567.5 1160.5 c 0,20,21
 1449.64539007 1305 1449.64539007 1305 937 1305 c 1,22,23
 807 1305 807 1305 649.5 1275.5 c 0,24,25
 466.711071901 1241.26334363 466.711071901 1241.26334363 379.355535951 1211.63167181 c 128,-1,26
 292 1182 292 1182 279 1182 c 0,27,28
 231 1182 231 1182 224 1212 c 1,29,30
 193 1277 193 1277 193 1283 c 0,31,32
 193 1335 193 1335 228 1352 c 1,33,34
 331 1389 331 1389 552.5 1433 c 128,-1,35
 774 1477 774 1477 937 1477.5 c 0,36,37
 942.09375 1477.515625 942.09375 1477.515625 947.161621094 1477.515625 c 0,38,39
 1104.265625 1477.515625 1104.265625 1477.515625 1236.5 1462.5 c 0,40,41
 1373 1447 1373 1447 1488.5 1411.5 c 128,-1,42
 1604 1376 1604 1376 1681.5 1320.5 c 0,43,44
 1846 1202.69677419 1846 1202.69677419 1846 991 c 0,45,46
 1846 879.425531915 1846 879.425531915 1790.5 788.5 c 0,47,48
 1753.55046826 727.96566077 1753.55046826 727.96566077 1640 661 c 0,49,50
 1505.44364821 581.646254072 1505.44364821 581.646254072 1044 531 c 1,51,52
 742.361878453 499.248618785 742.361878453 499.248618785 673.680939227 476.624309392 c 128,-1,53
 605 454 605 454 549 430.5 c 128,-1,54
 493 407 493 407 465.5 378.5 c 0,55,56
 398 308.545454545 398 308.545454545 398 218 c 0,57,58
 398 193 398 193 419.5 178 c 128,-1,59
 441 163 441 163 470 163 c 2,60,-1
 1761 163 l 2,61,62
 1805 163 1805 163 1805 99 c 2,63,-1
 1805 51 l 2,64,65
 1805 21 1805 21 1793.5 10.5 c 128,-1,66
 1782 0 1782 0 1753 0 c 2,67,-1
 223 0 l 2,0,1
EndSplineSet
EndChar

StartChar: three
Encoding: 51 51 22
Width: 1952
GlyphClass: 2
Flags: W
LayerCount: 2
Fore
SplineSet
1003 -40 m 0,0,1
 863 -40 863 -40 571.5 -2 c 128,-1,2
 280 36 280 36 191 62 c 1,3,4
 138 76 138 76 138 119 c 0,5,6
 138 127 138 127 139 132 c 2,7,-1
 143 187 l 1,8,9
 149 231 149 231 187 231 c 0,10,11
 197 231 197 231 234.5 223.5 c 128,-1,12
 272 216 272 216 305.5 210 c 128,-1,13
 339 204 339 204 393 194.5 c 128,-1,14
 447 185 447 185 501 177 c 128,-1,15
 555 169 555 169 622.5 160 c 128,-1,16
 690 151 690 151 752.5 145 c 0,17,18
 898.333333333 131 898.333333333 131 1027.66666667 131 c 128,-1,19
 1157 131 1157 131 1264.5 147 c 128,-1,20
 1372 163 1372 163 1434 187.5 c 128,-1,21
 1496 212 1496 212 1533.5 248 c 0,22,23
 1595 307.04 1595 307.04 1595 396 c 0,24,25
 1595 498.461538462 1595 498.461538462 1496 567 c 0,26,27
 1386.22222222 643 1386.22222222 643 1115 643 c 2,28,-1
 879 643 l 2,29,30
 847 643 847 643 847 686 c 2,31,-1
 847 768 l 2,32,33
 847 811 847 811 879 811 c 2,34,-1
 1115 811 l 2,35,36
 1573 811 1573 811 1573 1056 c 0,37,38
 1573 1193 1573 1193 1448 1248 c 128,-1,39
 1323 1303 1323 1303 1042 1303 c 0,40,41
 747.5 1303 747.5 1303 339 1227 c 0,42,43
 296 1219 296 1219 261.5 1211.5 c 0,44,45
 213.2 1201 213.2 1201 200 1201 c 0,46,47
 155 1201 155 1201 149 1245 c 1,48,-1
 139 1298 l 2,49,50
 138 1303 138 1303 138 1311 c 0,51,52
 138 1354 138 1354 191 1368 c 1,53,54
 286 1396 286 1396 577.5 1435 c 128,-1,55
 869 1474 869 1474 1041 1474 c 128,-1,56
 1213 1474 1213 1474 1346 1452 c 128,-1,57
 1479 1430 1479 1430 1561.5 1393 c 128,-1,58
 1644 1356 1644 1356 1695 1300.5 c 0,59,60
 1785 1202.55882353 1785 1202.55882353 1785 1057.27941176 c 128,-1,61
 1785 912 1785 912 1703.5 825 c 128,-1,62
 1622 738 1622 738 1474 723 c 1,63,64
 1629 704 1629 704 1719 612.5 c 128,-1,65
 1809 521 1809 521 1809 386 c 0,66,67
 1809 -40 1809 -40 1003 -40 c 0,0,1
EndSplineSet
EndChar

StartChar: four
Encoding: 52 52 23
Width: 1658
GlyphClass: 2
Flags: W
LayerCount: 2
Fore
SplineSet
390 474 m 0,0,1
 390 451 390 451 418 451 c 2,2,-1
 1000 451 l 1,3,-1
 1000 1371 l 2,4,5
 1000 1438 1000 1438 1067 1438 c 2,6,-1
 1150 1438 l 2,7,8
 1217 1438 1217 1438 1217 1371 c 2,9,-1
 1217 451 l 1,10,-1
 1473 451 l 2,11,12
 1539 451 1539 451 1539 384 c 2,13,-1
 1539 354 l 2,14,15
 1539 287 1539 287 1473 287 c 2,16,-1
 1217 287 l 1,17,-1
 1217 71 l 2,18,19
 1217 4 1217 4 1150 4 c 2,20,-1
 1067 4 l 2,21,22
 1000 4 1000 4 1000 71 c 2,23,-1
 1000 287 l 1,24,-1
 191 287 l 2,25,26
 162 287 162 287 141.5 301 c 128,-1,27
 121 315 121 315 121 330 c 128,-1,28
 121 345 121 345 124 354 c 2,29,-1
 446 1371 l 2,30,31
 457 1407 457 1407 470 1422.5 c 128,-1,32
 483 1438 483 1438 513 1438 c 2,33,-1
 596 1438 l 2,34,35
 625 1438 625 1438 645.5 1424 c 128,-1,36
 666 1410 666 1410 666 1395 c 128,-1,37
 666 1380 666 1380 663 1371 c 2,38,-1
 391 484 l 2,39,40
 390 481 390 481 390 474 c 0,0,1
EndSplineSet
EndChar

StartChar: five
Encoding: 53 53 24
Width: 2091
GlyphClass: 2
Flags: W
LayerCount: 2
Fore
SplineSet
1765 1438 m 2,0,1
 1818 1438 1818 1438 1818 1380 c 0,2,3
 1818 1373 1818 1373 1810.5 1323 c 128,-1,4
 1803 1273 1803 1273 1765 1273 c 2,5,-1
 427 1295 l 2,6,7
 397 1295 397 1295 378.5 1277 c 128,-1,8
 360 1259 360 1259 360 1229 c 2,9,-1
 360 1223 l 1,10,-1
 378 767 l 1,11,12
 573.106331988 892.661705348 573.106331988 892.661705348 844.5 921 c 0,13,14
 969 934 969 934 1146 934 c 128,-1,15
 1323 934 1323 934 1468 910 c 128,-1,16
 1613 886 1613 886 1705.5 844 c 128,-1,17
 1798 802 1798 802 1855.5 739 c 0,18,19
 1958 626.695652174 1958 626.695652174 1958 447 c 0,20,21
 1958 119.517241379 1958 119.517241379 1560.5 19 c 0,22,23
 1327.18181818 -40 1327.18181818 -40 943 -40 c 2,24,-1
 940 -40 l 1,25,26
 778 -39 778 -39 555 -2 c 128,-1,27
 332 35 332 35 224 67 c 1,28,29
 171 81 171 81 171 124 c 0,30,31
 171 134 171 134 178 184 c 128,-1,32
 185 234 185 234 223 234 c 0,33,34
 233.166666667 234 233.166666667 234 292.083333333 220 c 128,-1,35
 351 206 351 206 417 193 c 128,-1,36
 483 180 483 180 568 166 c 0,37,38
 768.357142857 133 768.357142857 133 1016.17857143 133 c 128,-1,39
 1264 133 1264 133 1436.5 166.5 c 128,-1,40
 1609 200 1609 200 1675 267 c 128,-1,41
 1741 334 1741 334 1741 446.5 c 128,-1,42
 1741 559 1741 559 1674 625 c 0,43,44
 1535.93939394 761 1535.93939394 761 1008 761 c 0,45,46
 756.14893617 761 756.14893617 761 602 703.5 c 0,47,48
 539 680 539 680 490 656 c 0,49,50
 371.583333333 598 371.583333333 598 314 598 c 2,51,-1
 271 598 l 2,52,53
 219.4 598 219.4 598 211 640 c 0,54,55
 208 655 208 655 208 680 c 1,56,-1
 144 1318 l 1,57,58
 144 1378 144 1378 164.5 1408 c 128,-1,59
 185 1438 185 1438 234 1438 c 2,60,-1
 1765 1438 l 2,0,1
EndSplineSet
EndChar

StartChar: six
Encoding: 54 54 25
Width: 1860
GlyphClass: 2
Flags: W
LayerCount: 2
Fore
SplineSet
912 131 m 0,0,1
 1232.27272727 131 1232.27272727 131 1361 190 c 0,2,3
 1512 259.208333333 1512 259.208333333 1512 433 c 0,4,5
 1512 610.455284553 1512 610.455284553 1347.5 680 c 0,6,7
 1212.67307692 737 1212.67307692 737 960.836538462 737 c 128,-1,8
 709 737 709 737 355 687 c 1,9,-1
 355 616 l 2,10,11
 355 131 355 131 912 131 c 0,0,1
1173.5 -28.5 m 0,12,13
 1056 -42 1056 -42 915.5 -42 c 128,-1,14
 775 -42 775 -42 664 -21.5 c 128,-1,15
 553 -1 553 -1 473 34.5 c 128,-1,16
 393 70 393 70 334 126 c 128,-1,17
 275 182 275 182 238 245 c 128,-1,18
 201 308 201 308 179 390.5 c 0,19,20
 140 536.75 140 536.75 140 720.875 c 128,-1,21
 140 905 140 905 174 1029 c 128,-1,22
 208 1153 208 1153 274 1238 c 128,-1,23
 340 1323 340 1323 444 1375 c 0,24,25
 638 1472 638 1472 983 1472 c 0,26,27
 1116 1472 1116 1472 1285 1443 c 128,-1,28
 1454 1414 1454 1414 1545 1377 c 0,29,30
 1573 1365 1573 1365 1573 1347.5 c 128,-1,31
 1573 1330 1573 1330 1571 1325 c 2,32,-1
 1540 1233 l 2,33,34
 1531 1207 1531 1207 1513.5 1207 c 128,-1,35
 1496 1207 1496 1207 1489 1210 c 0,36,37
 1422 1241 1422 1241 1253 1270 c 128,-1,38
 1084 1299 1084 1299 960 1299 c 0,39,40
 646 1299 646 1299 505 1189.5 c 128,-1,41
 364 1080 364 1080 364 870 c 2,42,-1
 364 846 l 1,43,44
 704 895 704 895 920.5 895 c 128,-1,45
 1137 895 1137 895 1272.5 870.5 c 128,-1,46
 1408 846 1408 846 1493.5 804 c 128,-1,47
 1579 762 1579 762 1632.5 701 c 0,48,49
 1728 592.112149533 1728 592.112149533 1728 425 c 0,50,51
 1728 35.2085106383 1728 35.2085106383 1173.5 -28.5 c 0,12,13
EndSplineSet
EndChar

StartChar: seven
Encoding: 55 55 26
Width: 1055
GlyphClass: 2
Flags: W
LayerCount: 2
Fore
SplineSet
391 0 m 2,0,1
 362 0 362 0 341.5 14 c 128,-1,2
 321 28 321 28 321 43 c 128,-1,3
 321 58 321 58 324 67 c 2,4,-1
 684 1241 l 2,5,6
 688 1255 688 1255 680 1264.5 c 128,-1,7
 672 1274 672 1274 657 1274 c 2,8,-1
 153 1274 l 2,9,10
 86 1274 86 1274 86 1341 c 2,11,-1
 86 1371 l 2,12,13
 86 1438 86 1438 153 1438 c 2,14,-1
 882 1438 l 2,15,16
 949 1438 949 1438 949 1371 c 1,17,-1
 539 67 l 2,18,19
 524.264822134 20.95256917 524.264822134 20.95256917 509.132411067 10.476284585 c 128,-1,20
 494 0 494 0 473 0 c 2,21,-1
 391 0 l 2,0,1
EndSplineSet
EndChar

StartChar: eight
Encoding: 56 56 27
Width: 1930
GlyphClass: 2
Flags: W
LayerCount: 2
Fore
SplineSet
1332 758 m 1,0,1
 1333 759 1333 759 1356.5 778 c 128,-1,2
 1380 797 1380 797 1386 802.5 c 128,-1,3
 1392 808 1392 808 1413 827.5 c 128,-1,4
 1434 847 1434 847 1442 858.5 c 128,-1,5
 1450 870 1450 870 1465 891.5 c 128,-1,6
 1480 913 1480 913 1486 931 c 0,7,8
 1503 982 1503 982 1503 1024 c 0,9,10
 1503 1176 1503 1176 1380 1237 c 128,-1,11
 1257 1298 1257 1298 967.5 1298 c 128,-1,12
 678 1298 678 1298 553 1245.5 c 128,-1,13
 428 1193 428 1193 428 1058 c 0,14,15
 428 846.833333333 428 846.833333333 774 818 c 1,16,17
 1081 778 1081 778 1332 758 c 1,0,1
808 135.5 m 128,-1,19
 876 133 876 133 993.5 133 c 128,-1,20
 1111 133 1111 133 1206 139 c 128,-1,21
 1301 145 1301 145 1378.5 161.5 c 128,-1,22
 1456 178 1456 178 1497.5 208 c 0,23,24
 1582 269.084337349 1582 269.084337349 1582 397 c 0,25,26
 1582 488 1582 488 1488.5 531 c 128,-1,27
 1395 574 1395 574 1152 604 c 0,28,29
 1094 611 1094 611 884.5 641 c 128,-1,30
 675 671 675 671 546 687 c 1,31,32
 450 634 450 634 399 555.5 c 128,-1,33
 348 477 348 477 348 414.5 c 128,-1,34
 348 352 348 352 362 313 c 128,-1,35
 376 274 376 274 401.5 246 c 128,-1,36
 427 218 427 218 468.5 198 c 128,-1,37
 510 178 510 178 558 165.5 c 128,-1,38
 606 153 606 153 673 145.5 c 128,-1,18
 740 138 740 138 808 135.5 c 128,-1,19
966 -41 m 128,-1,40
 859 -41 859 -41 775.5 -37 c 128,-1,41
 692 -33 692 -33 602.5 -21.5 c 128,-1,42
 513 -10 513 -10 447 10 c 128,-1,43
 381 30 381 30 320 63.5 c 128,-1,44
 259 97 259 97 220.5 143 c 0,45,46
 137 242.766233766 137 242.766233766 137 402 c 0,47,48
 137 512 137 512 214 607 c 128,-1,49
 291 702 291 702 392 751 c 1,50,51
 326 788 326 788 271.5 871.5 c 128,-1,52
 217 955 217 955 217 1058 c 0,53,54
 217 1473 217 1473 966 1473 c 0,55,56
 1407.85148515 1473 1407.85148515 1473 1572 1332.5 c 0,57,58
 1695 1227.22033898 1695 1227.22033898 1695 1028 c 0,59,60
 1695 917 1695 917 1634.5 821 c 128,-1,61
 1574 725 1574 725 1492 696 c 1,62,63
 1621 669 1621 669 1708 584.5 c 128,-1,64
 1795 500 1795 500 1795 386 c 0,65,66
 1795 159 1795 159 1613.5 61.5 c 0,67,68
 1499.52975987 0.276317286901 1499.52975987 0.276317286901 1370.76487994 -16.3618413565 c 128,-1,69
 1242 -33 1242 -33 1157.5 -37 c 128,-1,39
 1073 -41 1073 -41 966 -41 c 128,-1,40
EndSplineSet
EndChar

StartChar: nine
Encoding: 57 57 28
Width: 1859
GlyphClass: 2
Flags: W
LayerCount: 2
Fore
SplineSet
627 715.5 m 128,-1,1
 740 693 740 693 944.5 693 c 128,-1,2
 1149 693 1149 693 1505 743 c 1,3,-1
 1505 814 l 2,4,5
 1505 1299 1505 1299 947 1299 c 0,6,7
 626.727272727 1299 626.727272727 1299 498 1240 c 0,8,9
 347 1170.79166667 347 1170.79166667 347 997 c 0,10,11
 347 927 347 927 371 875.5 c 128,-1,12
 395 824 395 824 454.5 781 c 128,-1,0
 514 738 514 738 627 715.5 c 128,-1,1
1135 -26.5 m 128,-1,14
 1021 -42 1021 -42 882 -42 c 128,-1,15
 743 -42 743 -42 574 -13 c 128,-1,16
 405 16 405 16 314 53 c 0,17,18
 287 63 287 63 287 81.5 c 128,-1,19
 287 100 287 100 289 105 c 2,20,-1
 320 197 l 2,21,22
 329 223 329 223 355 223 c 0,23,24
 362 223 362 223 370 220 c 0,25,26
 438 189 438 189 606.5 160 c 128,-1,27
 775 131 775 131 917 131 c 128,-1,28
 1059 131 1059 131 1174.5 157 c 128,-1,29
 1290 183 1290 183 1360 234.5 c 0,30,31
 1495 333.821428571 1495 333.821428571 1495 520 c 2,32,-1
 1495 584 l 1,33,34
 1156 535 1156 535 939 535 c 128,-1,35
 722 535 722 535 586.5 559.5 c 128,-1,36
 451 584 451 584 365.5 626 c 128,-1,37
 280 668 280 668 226.5 729 c 0,38,39
 131 837.887850467 131 837.887850467 131 1004 c 0,40,41
 131 1394.46153846 131 1394.46153846 686 1458.5 c 0,42,43
 803 1472 803 1472 943.5 1472 c 128,-1,44
 1084 1472 1084 1472 1195 1451.5 c 128,-1,45
 1306 1431 1306 1431 1386 1395.5 c 128,-1,46
 1466 1360 1466 1360 1525 1304 c 128,-1,47
 1584 1248 1584 1248 1621 1185 c 128,-1,48
 1658 1122 1658 1122 1680 1039.5 c 0,49,50
 1719 893.25 1719 893.25 1719 723.125 c 128,-1,51
 1719 553 1719 553 1696 443.5 c 128,-1,52
 1673 334 1673 334 1625 253 c 128,-1,53
 1577 172 1577 172 1509 115.5 c 128,-1,54
 1441 59 1441 59 1345 24 c 128,-1,13
 1249 -11 1249 -11 1135 -26.5 c 128,-1,14
EndSplineSet
EndChar

StartChar: colon
Encoding: 58 58 29
Width: 585
GlyphClass: 2
Flags: W
LayerCount: 2
Fore
SplineSet
225 756 m 2,0,1
 193 756 193 756 170.5 778.5 c 128,-1,2
 148 801 148 801 148 833 c 2,3,-1
 148 976 l 2,4,5
 148 1008 148 1008 170.5 1030.5 c 128,-1,6
 193 1053 193 1053 225 1053 c 2,7,-1
 360 1053 l 2,8,9
 392 1053 392 1053 414.5 1030.5 c 128,-1,10
 437 1008 437 1008 437 976 c 2,11,-1
 437 833 l 2,12,13
 437 801 437 801 414.5 778.5 c 128,-1,14
 392 756 392 756 360 756 c 2,15,-1
 225 756 l 2,0,1
225 0 m 2,16,17
 193 0 193 0 170.5 22.5 c 128,-1,18
 148 45 148 45 148 77 c 2,19,-1
 148 220 l 2,20,21
 148 252 148 252 170.5 274.5 c 128,-1,22
 193 297 193 297 225 297 c 2,23,-1
 360 297 l 2,24,25
 392 297 392 297 414.5 274.5 c 128,-1,26
 437 252 437 252 437 220 c 2,27,-1
 437 77 l 2,28,29
 437 45 437 45 414.5 22.5 c 128,-1,30
 392 0 392 0 360 0 c 2,31,-1
 225 0 l 2,16,17
EndSplineSet
EndChar

StartChar: semicolon
Encoding: 59 59 30
Width: 624
GlyphClass: 2
Flags: W
LayerCount: 2
Fore
SplineSet
246 756 m 2,0,1
 214 756 214 756 191.5 778.5 c 128,-1,2
 169 801 169 801 169 833 c 2,3,-1
 169 976 l 2,4,5
 169 1008 169 1008 191.5 1030.5 c 128,-1,6
 214 1053 214 1053 246 1053 c 2,7,-1
 381 1053 l 2,8,9
 413 1053 413 1053 435.5 1030.5 c 128,-1,10
 458 1008 458 1008 458 976 c 2,11,-1
 458 833 l 2,12,13
 458 801 458 801 435.5 778.5 c 128,-1,14
 413 756 413 756 381 756 c 2,15,-1
 246 756 l 2,0,1
146 253 m 2,16,17
 146 316 146 316 206 316 c 2,18,-1
 402 316 l 2,19,20
 434 316 434 316 456.5 293.5 c 128,-1,21
 479 271 479 271 479 239 c 2,22,-1
 479 97 l 2,23,24
 479 -72 479 -72 401 -176.5 c 128,-1,25
 323 -281 323 -281 212 -300 c 0,26,27
 207 -301 207 -301 197 -301 c 0,28,29
 146 -301 146 -301 146 -255 c 2,30,-1
 146 -246 l 2,31,32
 146 -212 146 -212 154.5 -203.5 c 128,-1,33
 163 -195 163 -195 180.5 -186 c 0,34,35
 247.111617312 -151.742596811 247.111617312 -151.742596811 277.555808656 -101.371298405 c 128,-1,36
 308 -51 308 -51 308 -25.5 c 128,-1,37
 308 0 308 0 291 0 c 2,38,-1
 206 0 l 2,39,40
 146 0 146 0 146 50 c 2,41,-1
 146 253 l 2,16,17
EndSplineSet
EndChar

StartChar: less
Encoding: 60 60 31
Width: 1209
GlyphClass: 2
Flags: W
LayerCount: 2
Fore
SplineSet
1042 -21 m 0,0,1
 1032.63636364 -21 1032.63636364 -21 1018.31818182 -13.5 c 128,-1,2
 1004 -6 1004 -6 998 -3 c 2,3,-1
 188 396 l 1,4,5
 156 410 156 410 139 440 c 128,-1,6
 122 470 122 470 122 502 c 2,7,-1
 122 604 l 2,8,9
 122 662 122 662 187 700 c 1,10,-1
 998 1136 l 2,11,12
 1020 1148 1020 1148 1036 1148 c 0,13,14
 1065 1148 1065 1148 1065 1106 c 2,15,-1
 1065 1031 l 2,16,17
 1065 1001 1065 1001 1050 984 c 128,-1,18
 1035 967 1035 967 998 947 c 2,19,-1
 289 559 l 2,20,21
 280 554 280 554 280 547 c 128,-1,22
 280 540 280 540 289 535 c 2,23,-1
 998 187 l 2,24,25
 1065 154 1065 154 1065 93 c 2,26,-1
 1065 17 l 2,27,28
 1065 -21 1065 -21 1042 -21 c 0,0,1
EndSplineSet
EndChar

StartChar: equal
Encoding: 61 61 32
Width: 927
GlyphClass: 2
Flags: W
LayerCount: 2
Fore
SplineSet
193 617 m 2,0,1
 161 617 161 617 149 629 c 128,-1,2
 137 641 137 641 137 673 c 2,3,-1
 137 716 l 2,4,5
 137 748 137 748 149 760 c 128,-1,6
 161 772 161 772 193 772 c 2,7,-1
 733 772 l 2,8,9
 765 772 765 772 777.5 760 c 128,-1,10
 790 748 790 748 790 716 c 2,11,-1
 790 673 l 2,12,13
 790 641 790 641 777.5 629 c 128,-1,14
 765 617 765 617 733 617 c 2,15,-1
 193 617 l 2,0,1
193 314 m 2,16,17
 161 314 161 314 149 326.5 c 128,-1,18
 137 339 137 339 137 371 c 2,19,-1
 137 414 l 2,20,21
 137 446 137 446 149 458 c 128,-1,22
 161 470 161 470 193 470 c 2,23,-1
 733 470 l 2,24,25
 765 470 765 470 777.5 458 c 128,-1,26
 790 446 790 446 790 414 c 2,27,-1
 790 371 l 2,28,29
 790 339 790 339 777.5 326.5 c 128,-1,30
 765 314 765 314 733 314 c 2,31,-1
 193 314 l 2,16,17
EndSplineSet
EndChar

StartChar: greater
Encoding: 62 62 33
Width: 1209
GlyphClass: 2
Flags: W
LayerCount: 2
Fore
SplineSet
170 -21 m 0,0,1
 142 -21 142 -21 142 21 c 2,2,-1
 142 97 l 2,3,4
 142 127 142 127 157 143 c 128,-1,5
 172 159 172 159 209 180 c 2,6,-1
 918 568 l 2,7,8
 927 572 927 572 927 580 c 128,-1,9
 927 588 927 588 918 593 c 2,10,-1
 209 940 l 2,11,12
 142 973 142 973 142 1034 c 2,13,-1
 142 1110 l 2,14,15
 142 1148 142 1148 165 1148 c 0,16,17
 172 1148 172 1148 187 1140.5 c 128,-1,18
 202 1133 202 1133 209 1130 c 2,19,-1
 1019 731 l 1,20,21
 1050 717 1050 717 1067.5 687 c 128,-1,22
 1085 657 1085 657 1085 625 c 2,23,-1
 1085 523 l 2,24,25
 1085 465 1085 465 1019 427 c 1,26,-1
 209 -9 l 2,27,28
 185 -21 185 -21 170 -21 c 0,0,1
EndSplineSet
EndChar

StartChar: question
Encoding: 63 63 34
Width: 1742
GlyphClass: 2
Flags: W
LayerCount: 2
Fore
SplineSet
624 0 m 2,0,1
 592 0 592 0 579.5 12.5 c 128,-1,2
 567 25 567 25 567 57 c 2,3,-1
 567 182 l 2,4,5
 567 214 567 214 579.5 226 c 128,-1,6
 592 238 592 238 624 238 c 2,7,-1
 792 238 l 2,8,9
 824 238 824 238 836.5 226 c 128,-1,10
 849 214 849 214 849 182 c 2,11,-1
 849 57 l 2,12,13
 849 25 849 25 836.5 12.5 c 128,-1,14
 824 0 824 0 792 0 c 2,15,-1
 624 0 l 2,0,1
740 465 m 128,-1,17
 733 454 733 454 732 452 c 128,-1,18
 731 450 731 450 728.5 447.5 c 0,19,20
 718.813793103 437.813793103 718.813793103 437.813793103 710.092495706 437.813793103 c 0,21,22
 704.497701149 437.813793103 704.497701149 437.813793103 699.3 441.8 c 0,23,24
 686 452 686 452 662.5 467.5 c 128,-1,25
 639 483 639 483 631.5 488 c 128,-1,26
 624 493 624 493 621.5 498.5 c 128,-1,27
 619 504 619 504 619 508.5 c 0,28,29
 619 516 619 516 622 525 c 1,30,31
 697 665 697 665 790.5 724 c 128,-1,32
 884 783 884 783 1023 794.5 c 128,-1,33
 1162 806 1162 806 1239.5 825 c 128,-1,34
 1317 844 1317 844 1360 876 c 128,-1,35
 1403 908 1403 908 1419 947.5 c 128,-1,36
 1435 987 1435 987 1435 1048 c 0,37,38
 1435 1312 1435 1312 877 1312 c 0,39,40
 681 1312 681 1312 527.5 1285 c 128,-1,41
 374 1258 374 1258 281 1228.5 c 128,-1,42
 188 1199 188 1199 174 1199 c 0,43,44
 140 1199 140 1199 124 1241 c 1,45,-1
 102 1292 l 2,46,47
 98 1301 98 1301 98 1311 c 0,48,49
 98 1350 98 1350 149 1368 c 0,50,51
 254 1406 254 1406 443.5 1440.5 c 128,-1,52
 633 1475 633 1475 797 1475 c 128,-1,53
 961 1475 961 1475 1079 1463 c 128,-1,54
 1197 1451 1197 1451 1300 1420 c 128,-1,55
 1403 1389 1403 1389 1470 1339.5 c 0,56,57
 1613 1233.85074627 1613 1233.85074627 1613 1032 c 0,58,59
 1613 885.818181818 1613 885.818181818 1513 804 c 0,60,61
 1387.75714286 701.528571429 1387.75714286 701.528571429 1126.5 672.5 c 0,62,63
 1095 669 1095 669 1052 664 c 128,-1,64
 1009 659 1009 659 984.5 656 c 128,-1,65
 960 653 960 653 932 642.5 c 128,-1,66
 904 632 904 632 882 618 c 128,-1,67
 860 604 860 604 839 586.5 c 128,-1,68
 818 569 818 569 803.5 552.5 c 128,-1,69
 789 536 789 536 775.5 518 c 128,-1,70
 762 500 762 500 754.5 488 c 128,-1,16
 747 476 747 476 740 465 c 128,-1,17
EndSplineSet
EndChar

StartChar: at
Encoding: 64 64 35
Width: 2242
GlyphClass: 2
Flags: W
LayerCount: 2
Fore
SplineSet
1482 564 m 0,0,1
 1482 812.016 1482 812.016 1248.5 883 c 0,2,3
 1186 902 1186 902 1102.5 902 c 128,-1,4
 1019 902 1019 902 946.5 874 c 128,-1,5
 874 846 874 846 833 798 c 0,6,7
 753 704.341463415 753 704.341463415 753 565.170731707 c 128,-1,8
 753 426 753 426 849 327.5 c 128,-1,9
 945 229 945 229 1103.91891892 229 c 128,-1,10
 1262.83783784 229 1262.83783784 229 1372.41891892 304.083333333 c 128,-1,11
 1482 379.166666667 1482 379.166666667 1482 564 c 0,0,1
1472 -148 m 2,12,13
 1477 -156 1477 -156 1477 -166 c 0,14,15
 1477 -194 1477 -194 1448 -203 c 1,16,17
 1277 -265 1277 -265 1084.5 -265 c 128,-1,18
 892 -265 892 -265 743.5 -219 c 128,-1,19
 595 -173 595 -173 490 -92.5 c 128,-1,20
 385 -12 385 -12 311 97 c 0,21,22
 166 310.581081081 166 310.581081081 166 595 c 0,23,24
 166 776 166 776 235 933.5 c 128,-1,25
 304 1091 304 1091 428 1206.5 c 128,-1,26
 552 1322 552 1322 737 1388.5 c 128,-1,27
 922 1455 922 1455 1123 1455 c 128,-1,28
 1324 1455 1324 1455 1480 1409.5 c 128,-1,29
 1636 1364 1636 1364 1750 1283.5 c 128,-1,30
 1864 1203 1864 1203 1945 1095.5 c 0,31,32
 2105.91900254 881.934657123 2105.91900254 881.934657123 2108 601 c 1,33,34
 2108 311.831325301 2108 311.831325301 1968.5 192.5 c 0,35,36
 1891.92957746 127 1891.92957746 127 1800.46478873 127 c 0,37,38
 1617.94117647 127 1617.94117647 127 1577 301 c 0,39,40
 1568 339 1568 339 1563 339 c 128,-1,41
 1558 339 1558 339 1555.5 337.5 c 128,-1,42
 1553 336 1553 336 1551 333 c 128,-1,43
 1549 330 1549 330 1547 327.5 c 0,44,45
 1542.33333333 321.666666667 1542.33333333 321.666666667 1539 315 c 0,46,47
 1394 92 1394 92 1116 92 c 0,48,49
 902.415254237 92 902.415254237 92 752.5 214 c 0,50,51
 680 273 680 273 637.5 365.5 c 128,-1,52
 595 458 595 458 595 587.5 c 128,-1,53
 595 717 595 717 663.5 823.5 c 0,54,55
 800.821596244 1037 800.821596244 1037 1105 1037 c 0,56,57
 1254 1037 1254 1037 1367 973.5 c 128,-1,58
 1480 910 1480 910 1527 816 c 0,59,60
 1533 804 1533 804 1536.5 804 c 128,-1,61
 1540 804 1540 804 1543 817 c 1,62,-1
 1562 942 l 2,63,64
 1569 992 1569 992 1619 992 c 2,65,-1
 1635 992 l 2,66,67
 1654 992 1654 992 1667 974 c 128,-1,68
 1680 956 1680 956 1680 931 c 2,69,-1
 1680 366 l 2,70,71
 1680 301 1680 301 1713 270.5 c 128,-1,72
 1746 240 1746 240 1785 240 c 128,-1,73
 1824 240 1824 240 1844 245.5 c 128,-1,74
 1864 251 1864 251 1887.5 272.5 c 128,-1,75
 1911 294 1911 294 1925.5 331.5 c 0,76,77
 1960 420.724137931 1960 420.724137931 1960 584.862068966 c 128,-1,78
 1960 749 1960 749 1907.5 876.5 c 128,-1,79
 1855 1004 1855 1004 1755.5 1102 c 128,-1,80
 1656 1200 1656 1200 1499.5 1256 c 128,-1,81
 1343 1312 1343 1312 1166.5 1312 c 128,-1,82
 990 1312 990 1312 857.5 1274.5 c 128,-1,83
 725 1237 725 1237 629 1170.5 c 128,-1,84
 533 1104 533 1104 466 1013 c 0,85,86
 333 832.358208955 333 832.358208955 333 585 c 0,87,88
 333 354.8 333 354.8 447 180 c 0,89,90
 573.254752852 -13.5906210393 573.254752852 -13.5906210393 810 -87 c 0,91,92
 939 -127 939 -127 1101.5 -127 c 128,-1,93
 1264 -127 1264 -127 1397 -74 c 1,94,95
 1406 -69 1406 -69 1417.5 -69 c 128,-1,96
 1429 -69 1429 -69 1443 -101 c 1,97,-1
 1472 -148 l 2,12,13
EndSplineSet
EndChar

StartChar: A
Encoding: 65 65 36
Width: 1871
GlyphClass: 2
Flags: W
LayerCount: 2
Fore
SplineSet
555 471 m 2,0,-1
 1330 471 l 2,1,2
 1335 471 1335 471 1335 474 c 128,-1,3
 1335 477 1335 477 1333 479 c 2,4,-1
 955 1268 l 1,5,-1
 953 1270 l 2,6,7
 952 1270 952 1270 952 1269 c 128,-1,8
 952 1268 952 1268 951 1268 c 2,9,-1
 549 478 l 1,10,-1
 548 477 l 2,11,12
 548 476 548 476 548 473.5 c 0,13,14
 548 471 548 471 555 471 c 2,0,-1
149 0 m 2,15,16
 104 0 104 0 104 32 c 0,17,18
 104 47 104 47 114 67 c 2,19,-1
 806 1371 l 1,20,21
 836 1433 836 1433 898 1438 c 1,22,-1
 1010 1438 l 1,23,24
 1072 1433 1072 1433 1104 1371 c 1,25,-1
 1753 67 l 2,26,27
 1764 45 1764 45 1764 31 c 0,28,29
 1764 0 1764 0 1720 0 c 2,30,-1
 1625 0 l 2,31,32
 1554 0 1554 0 1524 67 c 1,33,-1
 1397 337 l 1,34,-1
 1390 342 l 1,35,-1
 489 342 l 1,36,-1
 481 336 l 1,37,-1
 346 67 l 1,38,39
 315 0 315 0 247 0 c 2,40,-1
 149 0 l 2,15,16
EndSplineSet
EndChar

StartChar: B
Encoding: 66 66 37
Width: 2270
GlyphClass: 2
Flags: W
LayerCount: 2
Fore
SplineSet
412 833 m 2,0,-1
 1551 833 l 1,1,2
 1680.83419689 838.813471503 1680.83419689 838.813471503 1736.91709845 868.906735751 c 128,-1,3
 1793 899 1793 899 1813 940.5 c 128,-1,4
 1833 982 1833 982 1833 1037 c 128,-1,5
 1833 1092 1833 1092 1821 1130 c 128,-1,6
 1809 1168 1809 1168 1791 1193 c 128,-1,7
 1773 1218 1773 1218 1742 1235.5 c 128,-1,8
 1711 1253 1711 1253 1684 1262 c 128,-1,9
 1657 1271 1657 1271 1614.5 1275.5 c 0,10,11
 1553.11111111 1282 1553.11111111 1282 1471 1282 c 2,12,-1
 412 1282 l 2,13,14
 375 1282 375 1282 375 1240 c 2,15,-1
 375 897 l 2,16,17
 375 871 375 871 386 852 c 128,-1,18
 397 833 397 833 412 833 c 2,0,-1
412 665 m 2,19,20
 375 665 375 665 375 625 c 2,21,-1
 375 190 l 2,22,23
 375 160.5 375 160.5 391 156.5 c 0,24,25
 397 155 397 155 409 155 c 2,26,-1
 1480 155 l 2,27,28
 1675.10810811 155 1675.10810811 155 1767 197.5 c 0,29,30
 1863.94939164 242.339093634 1863.94939164 242.339093634 1894.5 315 c 0,31,32
 1913 359 1913 359 1913 424.5 c 128,-1,33
 1913 490 1913 490 1884.5 541 c 128,-1,34
 1856 592 1856 592 1801.5 618 c 0,35,36
 1702.98076923 665 1702.98076923 665 1534 665 c 2,37,-1
 412 665 l 2,19,20
237 0 m 2,38,39
 205 0 205 0 182.5 22.5 c 128,-1,40
 160 45 160 45 160 77 c 2,41,-1
 160 1359 l 2,42,43
 160 1391 160 1391 182.5 1414.5 c 128,-1,44
 205 1438 205 1438 237 1438 c 2,45,-1
 1450 1438 l 2,46,47
 1773 1438 1773 1438 1904.5 1350.5 c 128,-1,48
 2036 1263 2036 1263 2036 1040 c 0,49,50
 2036 887 2036 887 1867 788 c 0,51,52
 1857 782 1857 782 1858 771.5 c 128,-1,53
 1859 761 1859 761 1870 757 c 0,54,55
 2134 649 2134 649 2134 424 c 0,56,57
 2134 232.324324324 2134 232.324324324 2021.5 133 c 0,58,59
 1870.85714286 3.5527136788e-14 1870.85714286 3.5527136788e-14 1405 0 c 2,60,-1
 237 0 l 2,38,39
EndSplineSet
EndChar

StartChar: C
Encoding: 67 67 38
Width: 2185
GlyphClass: 2
Flags: W
LayerCount: 2
Fore
SplineSet
1125 -41 m 0,0,1
 488.441558442 -41 488.441558442 -41 250 299 c 0,2,3
 133 465.833333333 133 465.833333333 133 721 c 0,4,5
 133 1059.64705882 133 1059.64705882 380.5 1257 c 0,6,7
 653.893442623 1475 653.893442623 1475 1125 1475 c 0,8,9
 1410.73737374 1475 1410.73737374 1475 1651.5 1378.5 c 0,10,11
 1912.41473038 1273.92284086 1912.41473038 1273.92284086 2042 1035 c 1,12,13
 2047 1022 2047 1022 2047 1016 c 0,14,15
 2047 1002 2047 1002 2028 998 c 1,16,17
 1894 979 1894 979 1864 974 c 1,18,-1
 1863 974 l 2,19,20
 1833 974 1833 974 1819 996 c 0,21,22
 1605 1313 1605 1313 1125 1313 c 0,23,24
 718.801470588 1313 718.801470588 1313 504.5 1112 c 0,25,26
 347 964.275862069 347 964.275862069 347 721 c 0,27,28
 347 183.232258065 347 183.232258065 958.5 128 c 0,29,30
 1036 121 1036 121 1139 121 c 128,-1,31
 1242 121 1242 121 1338.5 135 c 128,-1,32
 1435 149 1435 149 1527 181 c 0,33,34
 1716.30769231 246.846153846 1716.30769231 246.846153846 1825 428 c 0,35,36
 1841.2 455 1841.2 455 1866 455 c 1,37,-1
 2029 429 l 1,38,39
 2047 428 2047 428 2047 405 c 0,40,41
 2047 397 2047 397 2044 391 c 0,42,43
 1825 -41 1825 -41 1125 -41 c 0,0,1
EndSplineSet
EndChar

StartChar: D
Encoding: 68 68 39
Width: 2208
GlyphClass: 2
Flags: W
LayerCount: 2
Fore
SplineSet
227 0 m 2,0,1
 160 0 160 0 160 67 c 2,2,-1
 160 1371 l 2,3,4
 160 1438 160 1438 227 1438 c 2,5,-1
 1134 1438 l 2,6,7
 1903.855 1438 1903.855 1438 2045.5 941 c 0,8,9
 2074 841 2074 841 2074 716.5 c 128,-1,10
 2074 592 2074 592 2045.5 487 c 128,-1,11
 2017 382 2017 382 1969 308 c 128,-1,12
 1921 234 1921 234 1848.5 178.5 c 128,-1,13
 1776 123 1776 123 1698 89.5 c 128,-1,14
 1620 56 1620 56 1522 35.5 c 0,15,16
 1352.29268293 -8.881784197e-15 1352.29268293 -8.881784197e-15 1137 0 c 2,17,-1
 227 0 l 2,0,1
375 176 m 2,18,19
 375 155 375 155 402 155 c 2,20,-1
 1141 155 l 2,21,22
 1440.32692308 155 1440.32692308 155 1588.5 222 c 0,23,24
 1722.58208806 282.628422425 1722.58208806 282.628422425 1785.5 392.5 c 0,25,26
 1858 519.104477612 1858 519.104477612 1858 721 c 0,27,28
 1858 1075.19672131 1858 1075.19672131 1568.5 1206.5 c 0,29,30
 1399.8313253 1283 1399.8313253 1283 1140 1283 c 2,31,-1
 396 1283 l 2,32,33
 375 1283 375 1283 375 1266 c 2,34,-1
 375 176 l 2,18,19
EndSplineSet
EndChar

StartChar: E
Encoding: 69 69 40
Width: 1690
GlyphClass: 2
Flags: W
LayerCount: 2
Fore
SplineSet
394 665 m 2,0,1
 374 665 374 665 374 648 c 2,2,-1
 374 172 l 2,3,4
 374 155 374 155 388 155 c 2,5,-1
 1487 155 l 2,6,7
 1518 155 1518 155 1535.5 133.5 c 128,-1,8
 1553 112 1553 112 1553 79 c 2,9,-1
 1553 77 l 2,10,11
 1553 43 1553 43 1535.5 21.5 c 128,-1,12
 1518 0 1518 0 1487 0 c 2,13,-1
 227 0 l 2,14,15
 160 0 160 0 160 67 c 2,16,-1
 160 1361 l 2,17,18
 160 1394 160 1394 178 1416 c 128,-1,19
 196 1438 196 1438 227 1438 c 2,20,-1
 1488 1438 l 2,21,22
 1519 1438 1519 1438 1537 1416 c 128,-1,23
 1555 1394 1555 1394 1555 1361 c 2,24,-1
 1555 1360 l 2,25,26
 1555 1327 1555 1327 1537 1305 c 128,-1,27
 1519 1283 1519 1283 1488 1283 c 2,28,-1
 401 1283 l 2,29,30
 386 1283 386 1283 380 1278 c 128,-1,31
 374 1273 374 1273 374 1258 c 2,32,-1
 374 848 l 2,33,34
 374 822 374 822 388 822 c 2,35,-1
 1376 822 l 2,36,37
 1407 822 1407 822 1424.5 800.5 c 128,-1,38
 1442 779 1442 779 1442 745 c 2,39,-1
 1442 742 l 2,40,41
 1442 708 1442 708 1424.5 686.5 c 128,-1,42
 1407 665 1407 665 1376 665 c 2,43,-1
 394 665 l 2,0,1
EndSplineSet
EndChar

StartChar: F
Encoding: 70 70 41
Width: 1630
GlyphClass: 2
Flags: W
LayerCount: 2
Fore
SplineSet
388 596 m 1,0,-1
 374 580 l 1,1,-1
 374 67 l 2,2,3
 374 0 374 0 307 0 c 2,4,-1
 227 0 l 2,5,6
 160 0 160 0 160 67 c 2,7,-1
 160 1361 l 2,8,9
 160 1394 160 1394 178 1416 c 128,-1,10
 196 1438 196 1438 227 1438 c 2,11,-1
 1455 1438 l 2,12,13
 1486 1438 1486 1438 1504 1416 c 128,-1,14
 1522 1394 1522 1394 1522 1361 c 128,-1,15
 1522 1328 1522 1328 1504 1306 c 128,-1,16
 1486 1284 1486 1284 1455 1284 c 2,17,-1
 396 1284 l 2,18,19
 382 1284 382 1284 378 1279.5 c 128,-1,20
 374 1275 374 1275 374 1259 c 2,21,-1
 374 781 l 1,22,-1
 383 774 l 1,23,-1
 1330 774 l 2,24,25
 1361 774 1361 774 1379 752 c 128,-1,26
 1397 730 1397 730 1397 697 c 2,27,-1
 1397 673 l 2,28,29
 1397 640 1397 640 1379 618 c 128,-1,30
 1361 596 1361 596 1330 596 c 2,31,-1
 388 596 l 1,0,-1
EndSplineSet
EndChar

StartChar: G
Encoding: 71 71 42
Width: 2282
GlyphClass: 2
Flags: W
LayerCount: 2
Fore
SplineSet
1925 564 m 0,0,1
 1925 606 1925 606 1903 606 c 2,2,-1
 1304 606 l 2,3,4
 1271 606 1271 606 1249 625 c 128,-1,5
 1227 644 1227 644 1227 675 c 2,6,-1
 1227 691 l 2,7,8
 1227 722 1227 722 1249 741 c 128,-1,9
 1271 760 1271 760 1304 760 c 2,10,-1
 2057 760 l 2,11,12
 2089 760 2089 760 2111.5 737.5 c 128,-1,13
 2134 715 2134 715 2134 683 c 2,14,-1
 2134 77 l 2,15,16
 2134 43 2134 43 2116.5 21.5 c 128,-1,17
 2099 0 2099 0 2068 0 c 0,18,19
 2007 0 2007 0 1987 70 c 0,20,21
 1979.04166667 97.8541666667 1979.04166667 97.8541666667 1971.02083333 164.427083333 c 128,-1,22
 1963 231 1963 231 1960 253 c 128,-1,23
 1957 275 1957 275 1953.5 275 c 128,-1,24
 1950 275 1950 275 1937 265 c 1,25,26
 1845 154 1845 154 1704.5 83 c 0,27,28
 1459.11971831 -41 1459.11971831 -41 1130 -41 c 1,29,30
 643.416666667 -41 643.416666667 -41 382.5 161 c 0,31,32
 133 354.161290323 133 354.161290323 133 721 c 0,33,34
 133 1058.8496732 133 1058.8496732 381.5 1257 c 0,35,36
 654.893442623 1475 654.893442623 1475 1128 1475 c 0,37,38
 1417.04040404 1475 1417.04040404 1475 1669.5 1378.5 c 0,39,40
 1799 1329 1799 1329 1905.5 1240.5 c 128,-1,41
 2012 1152 2012 1152 2075 1034 c 0,42,43
 2079 1026 2079 1026 2079 1019 c 0,44,45
 2079 1002 2079 1002 2061 999 c 2,46,-1
 1916 974 l 1,47,48
 1890 974 1890 974 1868 987.5 c 0,49,50
 1838.06557377 1005.86885246 1838.06557377 1005.86885246 1826 1030 c 1,51,52
 1731 1168 1731 1168 1545.5 1240 c 128,-1,53
 1360 1312 1360 1312 1128 1312 c 2,54,-1
 1124 1312 l 2,55,56
 719.851851852 1312 719.851851852 1312 504.5 1111.5 c 0,57,58
 347 964.862068966 347 964.862068966 347 721 c 0,59,60
 347 183.102564103 347 183.102564103 961 128 c 0,61,62
 1039 121 1039 121 1128 121 c 0,63,64
 1331 121 1331 121 1513.5 178 c 128,-1,65
 1696 235 1696 235 1810.5 338 c 128,-1,66
 1925 441 1925 441 1925 564 c 0,0,1
EndSplineSet
EndChar

StartChar: H
Encoding: 72 72 43
Width: 2038
GlyphClass: 2
Flags: W
LayerCount: 2
Fore
SplineSet
1663 648 m 2,0,1
 1663 666 1663 666 1647 666 c 2,2,-1
 391 666 l 2,3,4
 376 666 376 666 376 650 c 2,5,-1
 376 67 l 2,6,7
 376 0 376 0 309 0 c 2,8,-1
 227 0 l 2,9,10
 160 0 160 0 160 67 c 2,11,-1
 160 1371 l 2,12,13
 160 1438 160 1438 227 1438 c 2,14,-1
 309 1438 l 2,15,16
 376 1438 376 1438 376 1371 c 2,17,-1
 376 835 l 2,18,19
 376 821 376 821 389 821 c 2,20,-1
 1645 821 l 2,21,22
 1663 821 1663 821 1663 838 c 2,23,-1
 1663 1371 l 2,24,25
 1663 1438 1663 1438 1729 1438 c 2,26,-1
 1811 1438 l 2,27,28
 1878 1438 1878 1438 1878 1371 c 2,29,-1
 1878 67 l 2,30,31
 1878 0 1878 0 1811 0 c 2,32,-1
 1729 0 l 2,33,34
 1663 0 1663 0 1663 67 c 2,35,-1
 1663 648 l 2,0,1
EndSplineSet
EndChar

StartChar: I
Encoding: 73 73 44
Width: 535
GlyphClass: 2
Flags: W
LayerCount: 2
Fore
SplineSet
227 0 m 2,0,1
 160 0 160 0 160 67 c 2,2,-1
 160 1371 l 2,3,4
 160 1438 160 1438 227 1438 c 2,5,-1
 308 1438 l 2,6,7
 375 1438 375 1438 375 1371 c 2,8,-1
 375 67 l 2,9,10
 375 0 375 0 308 0 c 2,11,-1
 227 0 l 2,0,1
EndSplineSet
EndChar

StartChar: J
Encoding: 74 74 45
Width: 1180
GlyphClass: 2
Flags: W
LayerCount: 2
Fore
SplineSet
111 -231 m 0,0,1
 99 -231 99 -231 89.5 -216.5 c 128,-1,2
 80 -202 80 -202 80 -177 c 2,3,-1
 80 -115 l 2,4,5
 80 -87 80 -87 89.5 -73.5 c 128,-1,6
 99 -60 99 -60 111 -60 c 0,7,8
 433.341463415 -60 433.341463415 -60 554 -11.5 c 0,9,10
 689.964656965 43.1524601525 689.964656965 43.1524601525 743 139.5 c 0,11,12
 812 264.85 812 264.85 812 460 c 2,13,-1
 812 1370 l 2,14,15
 812 1438 812 1438 880 1438 c 2,16,-1
 957 1438 l 2,17,18
 1024 1438 1024 1438 1024 1370 c 2,19,-1
 1024 460 l 2,20,21
 1024 88.9787234043 1024 88.9787234043 808.5 -71.5 c 0,22,23
 629.038937736 -205.14121658 629.038937736 -205.14121658 307 -225.5 c 0,24,25
 220 -231 220 -231 111 -231 c 0,0,1
EndSplineSet
EndChar

StartChar: K
Encoding: 75 75 46
Width: 1604
GlyphClass: 2
Flags: W
LayerCount: 2
Fore
SplineSet
1474 29 m 0,0,1
 1474 0 1474 0 1431 0 c 2,2,-1
 1276 0 l 2,3,4
 1243.23529412 0 1243.23529412 0 1221.61764706 17.5 c 128,-1,5
 1200 35 1200 35 1196.5 38 c 128,-1,6
 1193 41 1193 41 1180 53 c 128,-1,7
 1167 65 1167 65 1164 67 c 2,8,-1
 375 737 l 1,9,-1
 375 67 l 2,10,11
 375 0 375 0 308 0 c 2,12,-1
 227 0 l 2,13,14
 160 0 160 0 160 67 c 2,15,-1
 160 1371 l 2,16,17
 160 1438 160 1438 227 1438 c 2,18,-1
 308 1438 l 2,19,20
 375 1438 375 1438 375 1371 c 2,21,-1
 375 760 l 1,22,-1
 1101 1376 l 1,23,24
 1168.16666667 1438 1168.16666667 1438 1209 1438 c 2,25,-1
 1356 1438 l 2,26,27
 1376 1438 1376 1438 1388.5 1427.5 c 128,-1,28
 1401 1417 1401 1417 1401 1400.5 c 128,-1,29
 1401 1384 1401 1384 1381 1365 c 1,30,-1
 648 756 l 1,31,32
 640 753 640 753 640 747 c 128,-1,33
 640 741 640 741 649 735 c 1,34,-1
 1452 67 l 1,35,36
 1474 46 1474 46 1474 29 c 0,0,1
EndSplineSet
EndChar

StartChar: L
Encoding: 76 76 47
Width: 1339
GlyphClass: 2
Flags: W
LayerCount: 2
Fore
SplineSet
227 0 m 2,0,1
 160 0 160 0 160 67 c 2,2,-1
 160 1371 l 2,3,4
 160 1438 160 1438 227 1438 c 2,5,-1
 307 1438 l 2,6,7
 374 1438 374 1438 374 1371 c 2,8,-1
 374 191 l 2,9,10
 374 176 374 176 385 165 c 128,-1,11
 396 154 396 154 411 154 c 2,12,-1
 1163 154 l 2,13,14
 1230 154 1230 154 1230 89 c 2,15,-1
 1230 67 l 2,16,17
 1230 0 1230 0 1163 0 c 2,18,-1
 227 0 l 2,0,1
EndSplineSet
EndChar

StartChar: M
Encoding: 77 77 48
Width: 2412
GlyphClass: 2
Flags: W
LayerCount: 2
Fore
SplineSet
467 1073 m 1,0,-1
 459 1070 l 1,1,-1
 456 1069 l 1,2,-1
 362 67 l 1,3,4
 357 0 357 0 291 0 c 2,5,-1
 208 0 l 2,6,7
 145 0 145 0 145 60 c 2,8,-1
 145 67 l 1,9,-1
 261 1371 l 2,10,11
 266 1433 266 1433 324 1438 c 1,12,-1
 417 1438 l 1,13,14
 480 1433 480 1433 516 1371 c 2,15,-1
 1187 200 l 2,16,17
 1187 201 1187 201 1197.5 201 c 128,-1,18
 1208 201 1208 201 1208 200 c 2,19,-1
 1900 1371 l 2,20,21
 1936 1433 1936 1433 2000 1438 c 1,22,-1
 2092 1438 l 1,23,24
 2152 1433 2152 1433 2157 1371 c 2,25,-1
 2266 67 l 1,26,-1
 2266 59 l 2,27,28
 2266 0 2266 0 2204 0 c 2,29,-1
 2121 0 l 2,30,31
 2054 0 2054 0 2049 67 c 2,32,-1
 1962 1085 l 1,33,-1
 1949 1086 l 1,34,-1
 1347 67 l 2,35,36
 1310 3 1310 3 1246 0 c 1,37,-1
 1144 0 l 1,38,39
 1081 3 1081 3 1044 67 c 2,40,-1
 467 1073 l 1,0,-1
EndSplineSet
EndChar

StartChar: N
Encoding: 78 78 49
Width: 2033
GlyphClass: 2
Flags: W
LayerCount: 2
Fore
SplineSet
1725 0 m 2,0,1
 1692 0 1692 0 1676 19 c 1,2,-1
 391 1130 l 1,3,-1
 377 1121 l 1,4,-1
 377 67 l 2,5,6
 377 0 377 0 310 0 c 2,7,-1
 227 0 l 2,8,9
 160 0 160 0 160 67 c 2,10,-1
 160 1371 l 2,11,12
 160 1438 160 1438 227 1438 c 2,13,-1
 303 1438 l 2,14,15
 336 1438 336 1438 351 1420 c 1,16,-1
 1643 294 l 1,17,-1
 1656 307 l 1,18,-1
 1656 1371 l 2,19,20
 1656 1438 1656 1438 1723 1438 c 2,21,-1
 1807 1438 l 2,22,23
 1873 1438 1873 1438 1873 1371 c 2,24,-1
 1873 67 l 2,25,26
 1873 0 1873 0 1807 0 c 2,27,-1
 1725 0 l 2,0,1
EndSplineSet
EndChar

StartChar: O
Encoding: 79 79 50
Width: 2174
GlyphClass: 2
Flags: W
LayerCount: 2
Fore
SplineSet
1087.5 -41 m 1,0,1
 984 -41 984 -41 890 -31.5 c 128,-1,2
 796 -22 796 -22 699 2.5 c 128,-1,3
 602 27 602 27 520.5 65 c 128,-1,4
 439 103 439 103 366 163.5 c 128,-1,5
 293 224 293 224 242.5 302 c 0,6,7
 134 469.584158416 134 469.584158416 134 724 c 0,8,9
 134 889 134 889 190 1020.5 c 128,-1,10
 246 1152 246 1152 337.5 1235.5 c 128,-1,11
 429 1319 429 1319 555 1374.5 c 0,12,13
 783.162162162 1475 783.162162162 1475 1087 1475 c 0,14,15
 1552.53719008 1475 1552.53719008 1475 1809 1259.5 c 0,16,17
 2040 1065.39583333 2040 1065.39583333 2040 724 c 0,18,19
 2040 355.848275862 2040 355.848275862 1809.5 163.5 c 0,20,21
 1564.43801653 -41 1564.43801653 -41 1087.5 -41 c 1,0,1
859 136 m 128,-1,23
 961 121 961 121 1087.5 121 c 128,-1,24
 1214 121 1214 121 1316.5 136 c 128,-1,25
 1419 151 1419 151 1517 191.5 c 128,-1,26
 1615 232 1615 232 1681 297.5 c 0,27,28
 1827 442.393939394 1827 442.393939394 1827 724 c 0,29,30
 1827 1079.35106383 1827 1079.35106383 1523 1226.5 c 0,31,32
 1344.2967033 1313 1344.2967033 1313 1087 1313 c 0,33,34
 689.022222222 1313 689.022222222 1313 491 1113.5 c 0,35,36
 347 968.425373134 347 968.425373134 347 724 c 0,37,38
 347 580 347 580 387.5 471.5 c 128,-1,39
 428 363 428 363 494 297.5 c 128,-1,40
 560 232 560 232 658.5 191.5 c 128,-1,22
 757 151 757 151 859 136 c 128,-1,23
EndSplineSet
EndChar

StartChar: P
Encoding: 80 80 51
Width: 2011
GlyphClass: 2
Flags: W
LayerCount: 2
Fore
SplineSet
375 635 m 2,0,1
 375 614 375 614 391 614 c 2,2,-1
 957 614 l 2,3,4
 1324.47058824 614 1324.47058824 614 1383.23529412 627.5 c 128,-1,5
 1442 641 1442 641 1498 657.5 c 128,-1,6
 1554 674 1554 674 1575 699.5 c 128,-1,7
 1596 725 1596 725 1621.5 762 c 0,8,9
 1662 820.764705882 1662 820.764705882 1662 965 c 0,10,11
 1662 1113.29850746 1662 1113.29850746 1567.5 1181 c 0,12,13
 1498.19833102 1230.64895688 1498.19833102 1230.64895688 1427.59916551 1245.82447844 c 128,-1,14
 1357 1261 1357 1261 1308 1268 c 128,-1,15
 1259 1275 1259 1275 1187.5 1278.5 c 0,16,17
 1075.14285714 1284 1075.14285714 1284 909 1284 c 2,18,-1
 392 1284 l 2,19,20
 375 1284 375 1284 375 1268 c 2,21,-1
 375 635 l 2,0,1
394 442 m 2,22,23
 375 442 375 442 375 422 c 2,24,-1
 375 67 l 2,25,26
 375 0 375 0 308 0 c 2,27,-1
 227 0 l 2,28,29
 160 0 160 0 160 67 c 2,30,-1
 160 1371 l 2,31,32
 160 1438 160 1438 227 1438 c 2,33,-1
 916 1438 l 2,34,35
 1245.25 1438 1245.25 1438 1334.625 1425 c 128,-1,36
 1424 1412 1424 1412 1503 1395.5 c 128,-1,37
 1582 1379 1582 1379 1628 1356 c 128,-1,38
 1674 1333 1674 1333 1728 1297 c 128,-1,39
 1782 1261 1782 1261 1810.5 1215 c 0,40,41
 1878 1106.05263158 1878 1106.05263158 1878 965 c 0,42,43
 1878 816.761904762 1878 816.761904762 1826 688 c 0,44,45
 1805 636 1805 636 1758 597 c 128,-1,46
 1711 558 1711 558 1674 532 c 128,-1,47
 1637 506 1637 506 1563 488 c 128,-1,48
 1489 470 1489 470 1440 461 c 128,-1,49
 1391 452 1391 452 1293 447.5 c 0,50,51
 1173.22222222 442 1173.22222222 442 965 442 c 2,52,-1
 394 442 l 2,22,23
EndSplineSet
EndChar

StartChar: Q
Encoding: 81 81 52
Width: 2174
GlyphClass: 2
Flags: W
LayerCount: 2
Fore
SplineSet
859 136 m 128,-1,1
 961 121 961 121 1087.5 121 c 128,-1,2
 1214 121 1214 121 1316.5 136 c 128,-1,3
 1419 151 1419 151 1517 191.5 c 128,-1,4
 1615 232 1615 232 1681 297.5 c 0,5,6
 1827 442.393939394 1827 442.393939394 1827 724 c 0,7,8
 1827 1079.35106383 1827 1079.35106383 1523 1226.5 c 0,9,10
 1344.2967033 1313 1344.2967033 1313 1087 1313 c 0,11,12
 689.022222222 1313 689.022222222 1313 491 1113.5 c 0,13,14
 347 968.425373134 347 968.425373134 347 724 c 0,15,16
 347 580 347 580 387.5 471.5 c 128,-1,17
 428 363 428 363 494 297.5 c 128,-1,18
 560 232 560 232 658.5 191.5 c 128,-1,0
 757 151 757 151 859 136 c 128,-1,1
1642 -513 m 2,19,20
 1616 -526 1616 -526 1589.5 -526 c 128,-1,21
 1563 -526 1563 -526 1545 -495 c 2,22,-1
 1288 -31 l 1,23,24
 1192 -41 1192 -41 1088 -41 c 128,-1,25
 984 -41 984 -41 890 -31.5 c 128,-1,26
 796 -22 796 -22 699 2.5 c 128,-1,27
 602 27 602 27 520.5 65 c 128,-1,28
 439 103 439 103 366 163.5 c 128,-1,29
 293 224 293 224 242.5 302 c 0,30,31
 134 469.584158416 134 469.584158416 134 724 c 0,32,33
 134 889 134 889 190 1020.5 c 128,-1,34
 246 1152 246 1152 337.5 1235.5 c 128,-1,35
 429 1319 429 1319 555 1374.5 c 0,36,37
 783.162162162 1475 783.162162162 1475 1087 1475 c 0,38,39
 1552.53719008 1475 1552.53719008 1475 1809 1259.5 c 0,40,41
 2040 1065.39583333 2040 1065.39583333 2040 724 c 0,42,43
 2040 360.225352113 2040 360.225352113 1815 168.5 c 0,44,45
 1684.30459408 57.1327879169 1684.30459408 57.1327879169 1490 6 c 1,46,-1
 1717 -402 l 2,47,48
 1726 -417 1726 -417 1726 -432 c 0,49,50
 1726 -467 1726 -467 1679 -493 c 2,51,-1
 1642 -513 l 2,19,20
EndSplineSet
EndChar

StartChar: R
Encoding: 82 82 53
Width: 2129
GlyphClass: 2
Flags: W
LayerCount: 2
Fore
SplineSet
391 706 m 2,0,-1
 1172 706 l 2,1,2
 1535.10810811 706 1535.10810811 706 1612.5 747.5 c 0,3,4
 1704.30624381 796.729435084 1704.30624381 796.729435084 1722.5 882.5 c 0,5,6
 1733 932 1733 932 1733 992 c 128,-1,7
 1733 1052 1733 1052 1721.5 1089 c 128,-1,8
 1710 1126 1710 1126 1684 1154.5 c 128,-1,9
 1658 1183 1658 1183 1625.5 1203.5 c 128,-1,10
 1593 1224 1593 1224 1543 1238.5 c 128,-1,11
 1493 1253 1493 1253 1441.5 1262 c 128,-1,12
 1390 1271 1390 1271 1317 1276 c 0,13,14
 1200.2 1284 1200.2 1284 1012 1284 c 2,15,-1
 392 1284 l 1,16,-1
 375 1270 l 1,17,-1
 375 718 l 2,18,19
 375 706 375 706 391 706 c 2,0,-1
227 0 m 2,20,21
 160 0 160 0 160 67 c 2,22,-1
 160 1371 l 2,23,24
 160 1438 160 1438 227 1438 c 2,25,-1
 1017 1438 l 2,26,27
 1474.90322581 1438 1474.90322581 1438 1603.5 1404.5 c 0,28,29
 1795.52432816 1354.47685569 1795.52432816 1354.47685569 1853.5 1283 c 0,30,31
 1943 1172.65753425 1943 1172.65753425 1943 1014 c 0,32,33
 1943 801.451612903 1943 801.451612903 1851.5 707 c 0,34,35
 1768.10957004 620.919556172 1768.10957004 620.919556172 1601 584 c 0,36,37
 1595 582 1595 582 1595 580 c 128,-1,38
 1595 578 1595 578 1613.5 571.5 c 128,-1,39
 1632 565 1632 565 1653 555.5 c 128,-1,40
 1674 546 1674 546 1713.5 521 c 0,41,42
 1796.13862881 468.697070371 1796.13862881 468.697070371 1850 351 c 1,43,-1
 1976 68 l 1,44,45
 1983 57 1983 57 1983 41 c 128,-1,46
 1983 25 1983 25 1962.5 12.5 c 128,-1,47
 1942 0 1942 0 1915 0 c 2,48,-1
 1823 0 l 2,49,50
 1793.41176471 0 1793.41176471 0 1782.70588235 14 c 128,-1,51
 1772 28 1772 28 1769.5 32 c 128,-1,52
 1767 36 1767 36 1760 49 c 128,-1,53
 1753 62 1753 62 1750 67 c 2,54,-1
 1625 331 l 2,55,56
 1529.48192771 531.587951807 1529.48192771 531.587951807 1253 538.5 c 0,57,58
 1233 539 1233 539 1205 539 c 2,59,-1
 391 539 l 2,60,61
 375 539 375 539 375 524 c 2,62,-1
 375 67 l 2,63,64
 375 0 375 0 308 0 c 2,65,-1
 227 0 l 2,20,21
EndSplineSet
EndChar

StartChar: S
Encoding: 83 83 54
Width: 1963
GlyphClass: 2
Flags: W
LayerCount: 2
Fore
SplineSet
1026 834 m 2,0,-1
 1052 834 l 2,1,2
 1605.56725146 834 1605.56725146 834 1754 662.5 c 0,3,4
 1828 577 1828 577 1828 450 c 128,-1,5
 1828 323 1828 323 1793.5 241 c 128,-1,6
 1759 159 1759 159 1694 104.5 c 128,-1,7
 1629 50 1629 50 1521.5 18 c 0,8,9
 1323.296875 -41 1323.296875 -41 1027.1484375 -41 c 128,-1,10
 731 -41 731 -41 561 -11.5 c 128,-1,11
 391 18 391 18 186 97 c 0,12,13
 145 112.105263158 145 112.105263158 145 163 c 1,14,-1
 155 212 l 1,15,16
 176 257 176 257 223 257 c 0,17,18
 239 257 239 257 293.5 235.5 c 128,-1,19
 348 214 348 214 421 189 c 128,-1,20
 494 164 494 164 645.5 142.5 c 128,-1,21
 797 121 797 121 991 121 c 128,-1,22
 1185 121 1185 121 1315 139.5 c 128,-1,23
 1445 158 1445 158 1511.5 198 c 128,-1,24
 1578 238 1578 238 1601.5 287 c 128,-1,25
 1625 336 1625 336 1625 395.5 c 128,-1,26
 1625 455 1625 455 1618 484.5 c 128,-1,27
 1611 514 1611 514 1589 545 c 128,-1,28
 1567 576 1567 576 1524.5 594.5 c 128,-1,29
 1482 613 1482 613 1413.5 628.5 c 0,30,31
 1283.12903226 658 1283.12903226 658 996 658 c 2,32,-1
 971 658 l 2,33,34
 429.045454545 658 429.045454545 658 271 772 c 0,35,36
 145 862.885245902 145 862.885245902 145 1045 c 0,37,38
 145 1266.8907563 145 1266.8907563 325.5 1367 c 0,39,40
 484.559899469 1455.2180955 484.559899469 1455.2180955 788.5 1470.5 c 0,41,42
 878 1475 878 1475 1046 1475 c 0,43,44
 1372.14084507 1475 1372.14084507 1475 1676 1341 c 1,45,46
 1714 1323 1714 1323 1716 1276 c 0,47,48
 1716 1260 1716 1260 1713.5 1254 c 128,-1,49
 1711 1248 1711 1248 1710 1244 c 128,-1,50
 1709 1240 1709 1240 1704 1229.5 c 128,-1,51
 1699 1219 1699 1219 1692 1211.5 c 0,52,53
 1672.86666667 1191 1672.86666667 1191 1638 1191 c 2,54,-1
 1637 1191 l 2,55,56
 1622 1191 1622 1191 1574.5 1210 c 128,-1,57
 1527 1229 1527 1229 1465 1251.5 c 128,-1,58
 1403 1274 1403 1274 1273.5 1293 c 128,-1,59
 1144 1312 1144 1312 989 1312 c 128,-1,60
 834 1312 834 1312 721.5 1299 c 128,-1,61
 609 1286 609 1286 540 1264.5 c 128,-1,62
 471 1243 471 1243 428.5 1210.5 c 0,63,64
 354 1153.52941176 354 1153.52941176 354 1066 c 0,65,66
 354 949.392857143 354 949.392857143 420 910.5 c 0,67,68
 491.512609504 868.358640828 491.512609504 868.358640828 589.756304752 856.679320414 c 0,69,70
 780.529411765 834 780.529411765 834 1026 834 c 2,0,-1
EndSplineSet
EndChar

StartChar: T
Encoding: 84 84 55
Width: 1683
GlyphClass: 2
Flags: W
LayerCount: 2
Fore
SplineSet
800 0 m 2,0,1
 733 0 733 0 733 67 c 2,2,-1
 733 1258 l 2,3,4
 733 1273 733 1273 727 1278 c 128,-1,5
 721 1283 721 1283 706 1283 c 2,6,-1
 144 1283 l 2,7,8
 113 1283 113 1283 95 1305 c 128,-1,9
 77 1327 77 1327 77 1360 c 2,10,-1
 77 1361 l 2,11,12
 77 1394 77 1394 95 1416 c 128,-1,13
 113 1438 113 1438 144 1438 c 2,14,-1
 1535 1438 l 2,15,16
 1566 1438 1566 1438 1584 1416 c 128,-1,17
 1602 1394 1602 1394 1602 1361 c 2,18,-1
 1602 1360 l 2,19,20
 1602 1327 1602 1327 1584 1305 c 128,-1,21
 1566 1283 1566 1283 1535 1283 c 2,22,-1
 975 1283 l 2,23,24
 960 1283 960 1283 954.5 1278 c 128,-1,25
 949 1273 949 1273 949 1258 c 2,26,-1
 949 67 l 2,27,28
 949 0 949 0 882 0 c 2,29,-1
 800 0 l 2,0,1
EndSplineSet
EndChar

StartChar: U
Encoding: 85 85 56
Width: 2212
GlyphClass: 2
Flags: W
LayerCount: 2
Fore
SplineSet
1107.5 -41 m 0,0,1
 1024 -41 1024 -41 953.5 -38 c 128,-1,2
 883 -35 883 -35 802.5 -25 c 128,-1,3
 722 -15 722 -15 656 0.5 c 128,-1,4
 590 16 590 16 521.5 43 c 128,-1,5
 453 70 453 70 400 106.5 c 128,-1,6
 347 143 347 143 299 195.5 c 128,-1,7
 251 248 251 248 220 312.5 c 0,8,9
 153 451.903225806 153 451.903225806 153 649 c 2,10,-1
 153 1371 l 2,11,12
 153 1402 153 1402 172 1420 c 128,-1,13
 191 1438 191 1438 221 1438 c 2,14,-1
 296 1438 l 2,15,16
 366 1438 366 1438 366 1371 c 2,17,-1
 366 649 l 2,18,19
 366 407.616438356 366 407.616438356 471.5 292 c 0,20,21
 544.632314863 211.854997411 544.632314863 211.854997411 617.816157431 185.427498705 c 128,-1,22
 691 159 691 159 740 148 c 128,-1,23
 789 137 789 137 856 130.5 c 0,24,25
 989.188531824 117.578724525 989.188531824 117.578724525 1114.76082914 117.578724525 c 0,26,27
 1276.44362482 117.578724525 1276.44362482 117.578724525 1425.5 139 c 0,28,29
 1572.73948049 160.160164861 1572.73948049 160.160164861 1679.5 233.5 c 0,30,31
 1784.45552419 305.599881835 1784.45552419 305.599881835 1826.5 464 c 0,32,33
 1848 545 1848 545 1848 649 c 2,34,-1
 1848 1371 l 2,35,36
 1848 1438 1848 1438 1915 1438 c 2,37,-1
 1994 1438 l 2,38,39
 2061 1438 2061 1438 2061 1371 c 2,40,-1
 2061 649 l 2,41,42
 2061 187.854014599 2061 187.854014599 1693.5 43 c 0,43,44
 1480.38888889 -41 1480.38888889 -41 1107.5 -41 c 0,0,1
EndSplineSet
EndChar

StartChar: V
Encoding: 86 86 57
Width: 1935
GlyphClass: 2
Flags: W
LayerCount: 2
Fore
SplineSet
949 0 m 1,0,1
 886 5 886 5 850 67 c 2,2,-1
 103 1371 l 2,3,4
 90 1394 90 1394 90 1410 c 0,5,6
 90 1438 90 1438 131 1438 c 2,7,-1
 243 1438 l 2,8,9
 312 1438 312 1438 349 1371 c 2,10,-1
 997 181 l 1,11,-1
 1591 1371 l 2,12,13
 1624 1438 1624 1438 1693 1438 c 2,14,-1
 1796 1438 l 2,15,16
 1839 1438 1839 1438 1839 1408 c 0,17,18
 1839 1395 1839 1395 1828 1371 c 1,19,-1
 1138 67 l 2,20,21
 1106 5 1106 5 1044 0 c 1,22,-1
 949 0 l 1,0,1
EndSplineSet
EndChar

StartChar: W
Encoding: 87 87 58
Width: 3291
GlyphClass: 2
Flags: W
LayerCount: 2
Fore
SplineSet
874 0 m 1,0,1
 807 5 807 5 775 67 c 2,2,-1
 106 1371 l 1,3,4
 93 1394 93 1394 93 1410 c 0,5,6
 93 1438 93 1438 134 1438 c 2,7,-1
 246 1438 l 2,8,9
 320.59375 1438 320.59375 1438 352 1371 c 2,10,-1
 922 178 l 1,11,-1
 1489 1371 l 2,12,13
 1520.40625 1438 1520.40625 1438 1586 1438 c 2,14,-1
 1701 1438 l 2,15,16
 1770 1438 1770 1438 1807 1371 c 1,17,-1
 2428 178 l 1,18,-1
 2944 1371 l 2,19,20
 2973.3125 1438 2973.3125 1438 3046 1438 c 2,21,-1
 3150 1438 l 2,22,23
 3193 1438 3193 1438 3193 1408 c 0,24,25
 3193 1393 3193 1393 3182 1371 c 2,26,-1
 2569 67 l 2,27,28
 2540 5 2540 5 2476 0 c 1,29,-1
 2369 0 l 1,30,31
 2303 5 2303 5 2271 67 c 2,32,-1
 1648 1267 l 1,33,-1
 1075 67 l 2,34,35
 1045 5 1045 5 981 0 c 1,36,-1
 874 0 l 1,0,1
EndSplineSet
EndChar

StartChar: X
Encoding: 88 88 59
Width: 1961
GlyphClass: 2
Flags: W
LayerCount: 2
Fore
SplineSet
145 0 m 2,0,1
 111 0 111 0 111 18.5 c 0,2,3
 111 37 111 37 138 67 c 1,4,-1
 867 750 l 1,5,-1
 245 1371 l 2,6,7
 212 1404 212 1404 212 1421 c 0,8,9
 212 1438 212 1438 245 1438 c 2,10,-1
 373 1438 l 2,11,12
 437 1438 437 1438 506 1371 c 1,13,-1
 1002 876 l 1,14,-1
 1530 1371 l 1,15,16
 1591 1438 1591 1438 1656 1438 c 2,17,-1
 1792 1438 l 2,18,19
 1826 1438 1826 1438 1826 1419 c 0,20,21
 1826 1400 1826 1400 1798 1371 c 1,22,-1
 1130 748 l 1,23,-1
 1813 67 l 2,24,25
 1845 35 1845 35 1845 17.5 c 0,26,27
 1845 0 1845 0 1812 0 c 2,28,-1
 1684 0 l 2,29,30
 1618 0 1618 0 1551 67 c 2,31,-1
 995 623 l 1,32,-1
 397 67 l 1,33,34
 336 0 336 0 270 0 c 2,35,-1
 145 0 l 2,0,1
EndSplineSet
EndChar

StartChar: Y
Encoding: 89 89 60
Width: 1660
GlyphClass: 2
Flags: W
LayerCount: 2
Fore
SplineSet
788 0 m 2,0,1
 721 0 721 0 721 67 c 2,2,-1
 721 720 l 1,3,-1
 105 1371 l 1,4,5
 72 1400 72 1400 72 1419 c 0,6,7
 72 1438 72 1438 105 1438 c 2,8,-1
 236 1438 l 2,9,10
 301 1438 301 1438 370 1371 c 1,11,-1
 832 882 l 1,12,-1
 1287 1371 l 2,13,14
 1349 1438 1349 1438 1414 1438 c 2,15,-1
 1549 1438 l 2,16,17
 1583 1438 1583 1438 1583 1416.5 c 0,18,19
 1583 1395 1583 1395 1555 1371 c 1,20,-1
 936 724 l 1,21,-1
 936 67 l 2,22,23
 936 0 936 0 869 0 c 2,24,-1
 788 0 l 2,0,1
EndSplineSet
EndChar

StartChar: Z
Encoding: 90 90 61
Width: 1609
GlyphClass: 2
Flags: W
LayerCount: 2
Fore
SplineSet
195 0 m 2,0,1
 164 0 164 0 146.5 21.5 c 128,-1,2
 129 43 129 43 129 77 c 2,3,-1
 129 106 l 2,4,5
 129 144 129 144 149 163 c 1,6,-1
 1172 1234 l 2,7,8
 1187 1250 1187 1250 1187 1263 c 0,9,10
 1187 1284 1187 1284 1156 1284 c 2,11,-1
 205 1284 l 2,12,13
 174 1284 174 1284 156 1306 c 128,-1,14
 138 1328 138 1328 138 1361 c 128,-1,15
 138 1394 138 1394 156 1416 c 128,-1,16
 174 1438 174 1438 205 1438 c 2,17,-1
 1395 1438 l 2,18,19
 1426 1438 1426 1438 1444 1416 c 128,-1,20
 1462 1394 1462 1394 1462 1361 c 2,21,-1
 1462 1332 l 2,22,23
 1462 1267.81818182 1462 1267.81818182 1430 1230 c 1,24,-1
 443 189 l 2,25,26
 431 176 431 176 431 165 c 128,-1,27
 431 154 431 154 451 154 c 2,28,-1
 1415 154 l 2,29,30
 1446 154 1446 154 1463.5 132.5 c 128,-1,31
 1481 111 1481 111 1481 77 c 128,-1,32
 1481 43 1481 43 1463.5 21.5 c 128,-1,33
 1446 0 1446 0 1415 0 c 2,34,-1
 195 0 l 2,0,1
EndSplineSet
EndChar

StartChar: bracketleft
Encoding: 91 91 62
Width: 991
GlyphClass: 2
Flags: W
LayerCount: 2
Fore
SplineSet
866 -5 m 2,0,1
 866 -62 866 -62 799 -62 c 2,2,-1
 238 -62 l 2,3,4
 206 -62 206 -62 183.5 -39.5 c 128,-1,5
 161 -17 161 -17 161 16 c 2,6,-1
 161 1437 l 2,7,8
 161 1469 161 1469 183.5 1491.5 c 128,-1,9
 206 1514 206 1514 238 1514 c 2,10,-1
 799 1514 l 2,11,12
 866 1514 866 1514 866 1457 c 2,13,-1
 866 1403 l 2,14,15
 866 1346 866 1346 799 1346 c 2,16,-1
 405 1346 l 2,17,18
 378 1346 378 1346 378 1319 c 2,19,-1
 378 123 l 2,20,21
 378 96 378 96 405 96 c 2,22,-1
 799 96 l 2,23,24
 833 96 833 96 849.5 83.5 c 128,-1,25
 866 71 866 71 866 40 c 2,26,-1
 866 -5 l 2,0,1
EndSplineSet
EndChar

StartChar: backslash
Encoding: 92 92 63
Width: 1079
GlyphClass: 2
Flags: W
LayerCount: 2
Fore
SplineSet
808 -205 m 2,0,1
 771 -205 771 -205 758 -170 c 2,2,-1
 71 1612 l 2,3,4
 69 1618 69 1618 69 1625 c 0,5,6
 69 1632 69 1632 76.5 1639.5 c 128,-1,7
 84 1647 84 1647 95 1647 c 2,8,-1
 249 1647 l 2,9,10
 286 1647 286 1647 299 1612 c 2,11,-1
 986 -170 l 2,12,13
 988 -176 988 -176 988 -183 c 0,14,15
 988 -190 988 -190 980.5 -197.5 c 128,-1,16
 973 -205 973 -205 962 -205 c 2,17,-1
 808 -205 l 2,0,1
EndSplineSet
EndChar

StartChar: bracketright
Encoding: 93 93 64
Width: 991
GlyphClass: 2
Flags: W
LayerCount: 2
Fore
SplineSet
126 1457 m 2,0,1
 126 1514 126 1514 193 1514 c 2,2,-1
 754 1514 l 2,3,4
 786 1514 786 1514 808.5 1491.5 c 128,-1,5
 831 1469 831 1469 831 1437 c 2,6,-1
 831 16 l 2,7,8
 831 -17 831 -17 808.5 -39.5 c 128,-1,9
 786 -62 786 -62 754 -62 c 2,10,-1
 193 -62 l 2,11,12
 126 -62 126 -62 126 -5 c 2,13,-1
 126 50 l 2,14,15
 126 81 126 81 142.5 93.5 c 128,-1,16
 159 106 159 106 193 106 c 2,17,-1
 587 106 l 2,18,19
 614 106 614 106 614 133 c 2,20,-1
 614 1330 l 2,21,22
 614 1356 614 1356 587 1356 c 2,23,-1
 193 1356 l 2,24,25
 126 1356 126 1356 126 1413 c 2,26,-1
 126 1457 l 2,0,1
EndSplineSet
EndChar

StartChar: asciicircum
Encoding: 94 94 65
Width: 1299
GlyphClass: 2
Flags: W
LayerCount: 2
Fore
SplineSet
118 201 m 2,0,1
 98 201 98 201 85 214.5 c 128,-1,2
 72 228 72 228 72 243 c 128,-1,3
 72 258 72 258 78 268 c 1,4,-1
 493 1140 l 2,5,6
 525 1207 525 1207 587 1207 c 2,7,-1
 663 1207 l 2,8,9
 723 1207 723 1207 756 1139 c 2,10,-1
 1175 269 l 2,11,12
 1180 260 1180 260 1180 244 c 128,-1,13
 1180 228 1180 228 1167 214.5 c 128,-1,14
 1154 201 1154 201 1134 201 c 2,15,-1
 1059 201 l 2,16,17
 1002 201 1002 201 970 270 c 1,18,-1
 642 950 l 1,19,20
 636 960 636 960 625 960 c 128,-1,21
 614 960 614 960 610 950 c 2,22,-1
 300 270 l 1,23,24
 265.5 201 265.5 201 211 201 c 2,25,-1
 118 201 l 2,0,1
EndSplineSet
EndChar

StartChar: underscore
Encoding: 95 95 66
Width: 1171
GlyphClass: 2
Flags: W
LayerCount: 2
Fore
SplineSet
168 -145 m 2,0,1
 135 -145 135 -145 119.5 -132.5 c 128,-1,2
 104 -120 104 -120 104 -89 c 2,3,-1
 104 -56 l 2,4,5
 104 -25 104 -25 119.5 -12.5 c 128,-1,6
 135 0 135 0 168 0 c 2,7,-1
 1000 0 l 2,8,9
 1033 0 1033 0 1048.5 -12.5 c 128,-1,10
 1064 -25 1064 -25 1064 -56 c 2,11,-1
 1064 -89 l 2,12,13
 1064 -120 1064 -120 1048.5 -132.5 c 128,-1,14
 1033 -145 1033 -145 1000 -145 c 2,15,-1
 168 -145 l 2,0,1
EndSplineSet
EndChar

StartChar: grave
Encoding: 96 96 67
Width: 1745
GlyphClass: 2
Flags: W
LayerCount: 2
Fore
SplineSet
847 1174 m 2,0,1
 820 1174 820 1174 792 1218 c 2,2,-1
 579 1542 l 2,3,4
 561 1568 561 1568 561 1582 c 0,5,6
 561 1596 561 1596 599 1596 c 2,7,-1
 769 1595 l 2,8,9
 801 1595 801 1595 820 1577 c 1,10,11
 826 1569 826 1569 834 1539 c 1,12,-1
 888 1211 l 2,13,14
 890 1203 890 1203 890 1188.5 c 0,15,16
 890 1174 890 1174 877 1174 c 2,17,-1
 847 1174 l 2,0,1
EndSplineSet
EndChar

StartChar: a
Encoding: 97 97 68
Width: 1680
GlyphClass: 2
Flags: W
LayerCount: 2
Fore
SplineSet
512.5 119 m 128,-1,1
 593 101 593 101 721.5 101 c 128,-1,2
 850 101 850 101 953 122.5 c 128,-1,3
 1056 144 1056 144 1140 188 c 128,-1,4
 1224 232 1224 232 1272 308 c 128,-1,5
 1320 384 1320 384 1320 485 c 0,6,7
 1320 496 1320 496 1318.5 499 c 128,-1,8
 1317 502 1317 502 1311.5 502 c 128,-1,9
 1306 502 1306 502 1213.5 497 c 0,10,11
 571.827655987 462.315008432 571.827655987 462.315008432 430.5 365.5 c 0,12,13
 367 322 367 322 367 262 c 128,-1,14
 367 202 367 202 399.5 169.5 c 128,-1,0
 432 137 432 137 512.5 119 c 128,-1,1
1136.5 37 m 128,-1,16
 977 -41 977 -41 702.5 -41 c 128,-1,17
 428 -41 428 -41 283.5 32 c 128,-1,18
 139 105 139 105 139 242 c 0,19,20
 139 319 139 319 189.5 381 c 128,-1,21
 240 443 240 443 323 481.5 c 128,-1,22
 406 520 406 520 512 548.5 c 128,-1,23
 618 577 618 577 728 590.5 c 128,-1,24
 838 604 838 604 944 613 c 128,-1,25
 1050 622 1050 622 1133 624.5 c 0,26,27
 1317 630.042168675 1317 630.042168675 1317 641 c 2,28,-1
 1317 656 l 2,29,30
 1317 718 1317 718 1299 760.5 c 128,-1,31
 1281 803 1281 803 1234 836.5 c 0,32,33
 1142.10447761 902 1142.10447761 902 880 902 c 0,34,35
 634.181818182 902 634.181818182 902 492 856 c 0,36,37
 424 834 424 834 392 801 c 1,38,39
 343 747 343 747 316 747 c 1,40,-1
 298 749 l 1,41,-1
 210 765 l 1,42,43
 197 766 197 766 187.5 777.5 c 128,-1,44
 178 789 178 789 178 809 c 128,-1,45
 178 829 178 829 189 846 c 0,46,47
 260 954 260 954 419.5 1003 c 128,-1,48
 579 1052 579 1052 878 1052 c 0,49,50
 1321.825 1052 1321.825 1052 1451.5 881 c 0,51,52
 1536 769.571428571 1536 769.571428571 1536 570 c 2,53,-1
 1536 94 l 2,54,55
 1536 0 1536 0 1485 0 c 2,56,-1
 1460 0 l 2,57,58
 1432 0 1432 0 1417.5 29 c 128,-1,59
 1403 58 1403 58 1397 99 c 128,-1,60
 1391 140 1391 140 1388 167 c 0,61,62
 1382.4 217.4 1382.4 217.4 1376.7 245.2 c 128,-1,63
 1371 273 1371 273 1368 273 c 128,-1,64
 1365 273 1365 273 1362.5 267 c 128,-1,65
 1360 261 1360 261 1357.5 252 c 128,-1,66
 1355 243 1355 243 1354 241 c 0,67,15
 1296 115 1296 115 1136.5 37 c 128,-1,16
EndSplineSet
EndChar

StartChar: b
Encoding: 98 98 69
Width: 1671
GlyphClass: 2
Flags: W
LayerCount: 2
Fore
SplineSet
615 157.5 m 128,-1,1
 720 116 720 116 835 116 c 128,-1,2
 950 116 950 116 1034 140 c 128,-1,3
 1118 164 1118 164 1183 210.5 c 0,4,5
 1323 310.653846154 1323 310.653846154 1323 504 c 0,6,7
 1323 608 1323 608 1283.5 686 c 128,-1,8
 1244 764 1244 764 1176 808.5 c 0,9,10
 1042.29213483 896 1042.29213483 896 852 896 c 1,11,12
 607 896 607 896 475.5 764.5 c 0,13,14
 379 668 379 668 379 523 c 128,-1,15
 379 378 379 378 444.5 288.5 c 128,-1,0
 510 199 510 199 615 157.5 c 128,-1,1
380 851 m 1,16,-1
 386 855 l 1,17,18
 546 1053 546 1053 865 1053 c 0,19,20
 1032.96153846 1053 1032.96153846 1053 1184 1002 c 0,21,22
 1336.1627409 950.620373203 1336.1627409 950.620373203 1438 828 c 0,23,24
 1542 702.775510204 1542 702.775510204 1542 504 c 0,25,26
 1542 389 1542 389 1501.5 295 c 128,-1,27
 1461 201 1461 201 1395 140 c 128,-1,28
 1329 79 1329 79 1241.5 37 c 0,29,30
 1079 -41 1079 -41 904 -41 c 128,-1,31
 729 -41 729 -41 583 23.5 c 128,-1,32
 437 88 437 88 352 207 c 1,33,34
 347 212 347 212 343 212 c 128,-1,35
 339 212 339 212 319 142.5 c 0,36,37
 277.992805755 2.84217094304e-14 277.992805755 2.84217094304e-14 224 0 c 2,38,-1
 213 0 l 2,39,40
 182 0 182 0 171 16 c 128,-1,41
 160 32 160 32 160 67 c 2,42,-1
 160 1372 l 2,43,44
 160 1438 160 1438 227 1438 c 2,45,-1
 312 1438 l 2,46,47
 379 1438 379 1438 379 1372 c 2,48,-1
 379 859 l 1,49,-1
 380 851 l 1,16,-1
EndSplineSet
EndChar

StartChar: c
Encoding: 99 99 70
Width: 1538
GlyphClass: 2
Flags: W
LayerCount: 2
Fore
SplineSet
1110.5 -13 m 128,-1,1
 981 -41 981 -41 875.5 -41 c 128,-1,2
 770 -41 770 -41 669.5 -23 c 128,-1,3
 569 -5 569 -5 470 37 c 128,-1,4
 371 79 371 79 295.5 140 c 128,-1,5
 220 201 220 201 173.5 295 c 128,-1,6
 127 389 127 389 127 505.5 c 128,-1,7
 127 622 127 622 173.5 717.5 c 128,-1,8
 220 813 220 813 295 874 c 128,-1,9
 370 935 370 935 469.5 976.5 c 0,10,11
 652.915662651 1053 652.915662651 1053 872 1053 c 0,12,13
 1000 1053 1000 1053 1134.5 1022 c 128,-1,14
 1269 991 1269 991 1367 932 c 1,15,16
 1396 913 1396 913 1396 896.5 c 128,-1,17
 1396 880 1396 880 1392 872 c 2,18,-1
 1366 813 l 2,19,20
 1355 788 1355 788 1337 788 c 0,21,22
 1328 788 1328 788 1292 806 c 1,23,24
 1112 904 1112 904 869 904 c 0,25,26
 614 904 614 904 459.5 767.5 c 0,27,28
 346 667.223300971 346 667.223300971 346 504 c 0,29,30
 346 410 346 410 390 333 c 128,-1,31
 434 256 434 256 508.5 207 c 0,32,33
 662.06122449 106 662.06122449 106 865.030612245 106 c 128,-1,34
 1068 106 1068 106 1270 201 c 0,35,36
 1292 212 1292 212 1312.5 212 c 128,-1,37
 1333 212 1333 212 1340 192 c 0,38,39
 1340 191 1340 191 1348 174 c 0,40,41
 1369 129.375 1369 129.375 1369 106.1875 c 128,-1,42
 1369 83 1369 83 1331 63 c 0,43,0
 1240 15 1240 15 1110.5 -13 c 128,-1,1
EndSplineSet
EndChar

StartChar: d
Encoding: 100 100 71
Width: 1671
GlyphClass: 2
Flags: W
LayerCount: 2
Fore
SplineSet
819 116 m 1,0,1
 917 116 917 116 1002 140.5 c 128,-1,2
 1087 165 1087 165 1152.5 212 c 0,3,4
 1292 312.099236641 1292 312.099236641 1292 504 c 0,5,6
 1292 711.382352941 1292 711.382352941 1146 808 c 0,7,8
 1013.02222222 896 1013.02222222 896 818 896 c 0,9,10
 627.707865169 896 627.707865169 896 494 808.5 c 0,11,12
 348 712.955882353 348 712.955882353 348 504 c 0,13,14
 348 310.653846154 348 310.653846154 488 210.5 c 0,15,16
 620.096774194 116 620.096774194 116 819 116 c 1,0,1
429.5 37 m 0,17,18
 241.852467811 127.070815451 241.852467811 127.070815451 169.5 295 c 0,19,20
 129 389 129 389 129 496 c 128,-1,21
 129 603 129 603 156.5 686 c 128,-1,22
 184 769 184 769 233 828 c 128,-1,23
 282 887 282 887 346 931.5 c 128,-1,24
 410 976 410 976 487 1002 c 0,25,26
 638.038461538 1053 638.038461538 1053 798.019230769 1053 c 0,27,28
 1122.18556701 1053 1122.18556701 1053 1281 858 c 1,29,30
 1289 850 1289 850 1292 845 c 1,31,-1
 1292 1372 l 2,32,33
 1292 1438 1292 1438 1359 1438 c 2,34,-1
 1444 1438 l 2,35,36
 1511 1438 1511 1438 1511 1372 c 2,37,-1
 1511 67 l 2,38,39
 1511 32 1511 32 1500 16 c 128,-1,40
 1489 0 1489 0 1458 0 c 2,41,-1
 1445 0 l 2,42,43
 1393.08955224 0 1393.08955224 0 1341 174.5 c 0,44,45
 1331 208 1331 208 1327 220 c 1,46,47
 1245 97 1245 97 1096 28 c 128,-1,48
 947 -41 947 -41 769.5 -41 c 128,-1,49
 592 -41 592 -41 429.5 37 c 0,17,18
EndSplineSet
EndChar

StartChar: e
Encoding: 101 101 72
Width: 1599
GlyphClass: 2
Flags: W
LayerCount: 2
Fore
SplineSet
367 589 m 2,0,-1
 1283 589 l 1,1,-1
 1281 591 l 1,2,3
 1237.71749756 717.518084066 1237.71749756 717.518084066 1186.5 773.5 c 0,4,5
 1126.82705276 838.72391908 1126.82705276 838.72391908 1070.91352638 859.86195954 c 0,6,7
 959.451612903 902 959.451612903 902 854.725806452 902 c 128,-1,8
 750 902 750 902 673.5 884 c 128,-1,9
 597 866 597 866 530 830.5 c 0,10,11
 385.305593452 753.833560709 385.305593452 753.833560709 359 596 c 1,12,13
 359 589 359 589 367 589 c 2,0,-1
1132.5 -9.5 m 128,-1,15
 982 -42 982 -42 859 -42 c 128,-1,16
 736 -42 736 -42 637 -26 c 128,-1,17
 538 -10 538 -10 443 29.5 c 128,-1,18
 348 69 348 69 280.5 130 c 128,-1,19
 213 191 213 191 171.5 286.5 c 128,-1,20
 130 382 130 382 130 502 c 128,-1,21
 130 622 130 622 172.5 717 c 128,-1,22
 215 812 215 812 284 873.5 c 128,-1,23
 353 935 353 935 446 976 c 0,24,25
 618.390243902 1052 618.390243902 1052 835 1052 c 0,26,27
 1180.16666667 1052 1180.16666667 1052 1346 853 c 0,28,29
 1431.12552301 750.849372385 1431.12552301 750.849372385 1465 609 c 1,30,-1
 1465 558 l 2,31,32
 1465 526.444444444 1465 526.444444444 1445.5 499.722222222 c 0,33,34
 1409.21621622 450 1409.21621622 450 1331 450 c 2,35,-1
 372 450 l 2,36,37
 355 450 355 450 355 441 c 0,38,39
 355 373.435897436 355 373.435897436 383 316.717948718 c 128,-1,40
 411 260 411 260 449 227 c 128,-1,41
 487 194 487 194 540.5 166 c 0,42,43
 653.232142857 107 653.232142857 107 860 107 c 1,44,45
 1043.94285714 107 1043.94285714 107 1134.97142857 134 c 0,46,47
 1251.56171285 168.58186398 1251.56171285 168.58186398 1297.28085642 190.29093199 c 128,-1,48
 1343 212 1343 212 1363 212 c 128,-1,49
 1383 212 1383 212 1390 194 c 0,50,51
 1415 131 1415 131 1415 109 c 128,-1,52
 1415 87 1415 87 1379 70 c 0,53,14
 1283 23 1283 23 1132.5 -9.5 c 128,-1,15
EndSplineSet
EndChar

StartChar: f
Encoding: 102 102 73
Width: 1219
GlyphClass: 2
Flags: W
LayerCount: 2
Fore
SplineSet
361 823 m 2,0,1
 361 860 361 860 341 860 c 2,2,-1
 189 860 l 2,3,4
 154 860 154 860 138 871 c 128,-1,5
 122 882 122 882 122 912 c 2,6,-1
 122 945 l 2,7,8
 122 1006 122 1006 189 1006 c 2,9,-1
 339 1006 l 2,10,11
 354 1006 354 1006 358 1014 c 128,-1,12
 362 1022 362 1022 362 1081 c 128,-1,13
 362 1140 362 1140 386 1216.5 c 128,-1,14
 410 1293 410 1293 449.5 1341 c 128,-1,15
 489 1389 489 1389 545 1420 c 0,16,17
 644.35483871 1475 644.35483871 1475 786 1475 c 0,18,19
 917.071428571 1475 917.071428571 1475 1013.5 1445 c 0,20,21
 1036 1438 1036 1438 1037 1438 c 0,22,23
 1087 1426 1087 1426 1087 1388 c 2,24,-1
 1087 1337 l 2,25,26
 1087 1309 1087 1309 1079.5 1301 c 128,-1,27
 1072 1293 1072 1293 1046 1293 c 1,28,-1
 1008 1302 l 1,29,30
 886.125 1327 886.125 1327 822.5625 1327 c 128,-1,31
 759 1327 759 1327 705 1306 c 128,-1,32
 651 1285 651 1285 625 1245 c 0,33,34
 579 1174.23076923 579 1174.23076923 579 1060 c 2,35,-1
 579 1017 l 2,36,37
 579 1006 579 1006 591 1006 c 2,38,-1
 996 1006 l 2,39,40
 1030 1006 1030 1006 1046.5 994 c 128,-1,41
 1063 982 1063 982 1063 951 c 2,42,-1
 1063 912 l 2,43,44
 1063 882 1063 882 1047 871 c 128,-1,45
 1031 860 1031 860 996 860 c 2,46,-1
 602 860 l 2,47,48
 579 860 579 860 579 823 c 2,49,-1
 579 77 l 2,50,51
 579 45 579 45 556.5 22.5 c 128,-1,52
 534 0 534 0 502 0 c 2,53,-1
 438 0 l 2,54,55
 406 0 406 0 383.5 22.5 c 128,-1,56
 361 45 361 45 361 77 c 2,57,-1
 361 823 l 2,0,1
EndSplineSet
EndChar

StartChar: g
Encoding: 103 103 74
Width: 1547
GlyphClass: 2
Flags: W
LayerCount: 2
Fore
SplineSet
578.5 515 m 128,-1,1
 654 502 654 502 743.5 502 c 128,-1,2
 833 502 833 502 895 508.5 c 128,-1,3
 957 515 957 515 998.5 525 c 128,-1,4
 1040 535 1040 535 1069.5 551.5 c 128,-1,5
 1099 568 1099 568 1115 583.5 c 128,-1,6
 1131 599 1131 599 1140 621 c 0,7,8
 1153 652.777777778 1153 652.777777778 1153 692.888888889 c 128,-1,9
 1153 733 1153 733 1146.5 758.5 c 128,-1,10
 1140 784 1140 784 1116 812.5 c 128,-1,11
 1092 841 1092 841 1050 859.5 c 0,12,13
 953.513513514 902 953.513513514 902 749 902 c 0,14,15
 472.407407407 902 472.407407407 902 390 813 c 0,16,17
 350 769.8 350 769.8 350 723.9 c 128,-1,18
 350 678 350 678 358 651.5 c 128,-1,19
 366 625 366 625 391.5 596 c 128,-1,20
 417 567 417 567 460 547.5 c 128,-1,0
 503 528 503 528 578.5 515 c 128,-1,1
563.5 -346.5 m 0,21,22
 653 -359 653 -359 795.5 -359 c 128,-1,23
 938 -359 938 -359 1038.5 -344 c 128,-1,24
 1139 -329 1139 -329 1191 -298 c 128,-1,25
 1243 -267 1243 -267 1262.5 -229.5 c 128,-1,26
 1282 -192 1282 -192 1282 -137 c 0,27,28
 1282 -61 1282 -61 1178.5 -22 c 128,-1,29
 1075 17 1075 17 900 17 c 2,30,-1
 600 17 l 2,31,32
 526 17 526 17 443.5 -57.5 c 128,-1,33
 361 -132 361 -132 361 -210 c 0,34,35
 361 -318.217877095 361 -318.217877095 563.5 -346.5 c 0,21,22
1296 -432.5 m 128,-1,37
 1128 -515 1128 -515 793 -515 c 128,-1,38
 458 -515 458 -515 308.5 -452 c 128,-1,39
 159 -389 159 -389 159 -284.5 c 128,-1,40
 159 -180 159 -180 214 -110.5 c 128,-1,41
 269 -41 269 -41 370 21 c 1,42,43
 388 30 388 30 388 37 c 128,-1,44
 388 44 388 44 353.5 52.5 c 128,-1,45
 319 61 319 61 295 67.5 c 128,-1,46
 271 74 271 74 240.5 85 c 128,-1,47
 210 96 210 96 197 108 c 0,48,49
 165 137.538461538 165 137.538461538 165 193.769230769 c 128,-1,50
 165 250 165 250 213.5 316 c 128,-1,51
 262 382 262 382 327 423 c 0,52,53
 346 435 346 435 346 439.5 c 128,-1,54
 346 444 346 444 343.5 446 c 128,-1,55
 341 448 341 448 336.5 449 c 128,-1,56
 332 450 332 450 330 451 c 0,57,58
 140 551 140 551 140 706 c 0,59,60
 140 969.911627907 140 969.911627907 509.5 1033.5 c 0,61,62
 617 1052 617 1052 706.5 1052 c 128,-1,63
 796 1052 796 1052 908 1039 c 0,64,65
 921 1038 921 1038 933 1046 c 128,-1,66
 945 1054 945 1054 948 1067 c 1,67,-1
 1070 1350 l 1,68,69
 1075 1379 1075 1379 1098.5 1398.5 c 128,-1,70
 1122 1418 1122 1418 1152 1418 c 2,71,-1
 1254 1418 l 2,72,73
 1271 1418 1271 1418 1282 1406.5 c 128,-1,74
 1293 1395 1293 1395 1293 1381.5 c 128,-1,75
 1293 1368 1293 1368 1287 1359 c 2,76,-1
 1051 1041 l 2,77,78
 1044 1030 1044 1030 1048 1017 c 128,-1,79
 1052 1004 1052 1004 1064 1000 c 0,80,81
 1199 962 1199 962 1277 880 c 128,-1,82
 1355 798 1355 798 1355 706 c 0,83,84
 1355 505.577235772 1355 505.577235772 1189.5 423.5 c 0,85,86
 1053.39344262 356 1053.39344262 356 792 356 c 1,87,88
 621 356 621 356 500 383 c 1,89,-1
 497 383 l 2,90,91
 471 383 471 383 411 337 c 128,-1,92
 351 291 351 291 351 246 c 0,93,94
 351 195.3125 351 195.3125 385 181.5 c 0,95,96
 428.076923077 164 428.076923077 164 509 164 c 2,97,-1
 918 164 l 2,98,99
 1464 164 1464 164 1464 -177 c 0,100,36
 1464 -350 1464 -350 1296 -432.5 c 128,-1,37
EndSplineSet
EndChar

StartChar: h
Encoding: 104 104 75
Width: 1534
GlyphClass: 2
Flags: W
LayerCount: 2
Fore
SplineSet
227 0 m 2,0,1
 160 0 160 0 160 67 c 2,2,-1
 160 1371 l 2,3,4
 160 1438 160 1438 227 1438 c 2,5,-1
 312 1438 l 2,6,7
 379 1438 379 1438 379 1371 c 2,8,-1
 379 852 l 1,9,-1
 388 846 l 1,10,11
 569 1052 569 1052 875 1052 c 0,12,13
 1115 1052 1115 1052 1253 925.5 c 128,-1,14
 1391 799 1391 799 1391 553 c 2,15,-1
 1391 67 l 2,16,17
 1391 0 1391 0 1324 0 c 2,18,-1
 1240 0 l 2,19,20
 1173 0 1173 0 1173 67 c 2,21,-1
 1173 609 l 2,22,23
 1173 904 1173 904 837 904 c 0,24,25
 741 904 741 904 633 858.5 c 128,-1,26
 525 813 525 813 452 743 c 128,-1,27
 379 673 379 673 379 609 c 2,28,-1
 379 67 l 2,29,30
 379 0 379 0 313 0 c 2,31,-1
 227 0 l 2,0,1
EndSplineSet
EndChar

StartChar: i
Encoding: 105 105 76
Width: 538
GlyphClass: 2
Flags: W
LayerCount: 2
Fore
SplineSet
227 1180 m 2,0,1
 160 1180 160 1180 160 1246 c 2,2,-1
 160 1341 l 2,3,4
 160 1408 160 1408 227 1408 c 2,5,-1
 312 1408 l 2,6,7
 379 1408 379 1408 379 1341 c 2,8,-1
 379 1246 l 2,9,10
 379 1180 379 1180 312 1180 c 2,11,-1
 227 1180 l 2,0,1
227 0 m 2,12,13
 160 0 160 0 160 67 c 2,14,-1
 160 939 l 2,15,16
 160 1006 160 1006 227 1006 c 2,17,-1
 312 1006 l 2,18,19
 379 1006 379 1006 379 939 c 2,20,-1
 379 67 l 2,21,22
 379 0 379 0 312 0 c 2,23,-1
 227 0 l 2,12,13
EndSplineSet
EndChar

StartChar: j
Encoding: 106 106 77
Width: 774
GlyphClass: 2
Flags: W
LayerCount: 2
Fore
SplineSet
456 1180 m 2,0,1
 389 1180 389 1180 389 1246 c 2,2,-1
 389 1341 l 2,3,4
 389 1408 389 1408 456 1408 c 2,5,-1
 541 1408 l 2,6,7
 607 1408 607 1408 607 1341 c 2,8,-1
 607 1246 l 2,9,10
 607 1180 607 1180 541 1180 c 2,11,-1
 456 1180 l 2,0,1
108 -379 m 2,12,13
 50 -379 50 -379 50 -313 c 2,14,-1
 50 -268 l 2,15,16
 50 -235 50 -235 63 -221 c 128,-1,17
 76 -207 76 -207 108 -207 c 2,18,-1
 233 -207 l 2,19,20
 330.789473684 -207 330.789473684 -207 363 -156 c 0,21,22
 386.352380952 -119.025396825 386.352380952 -119.025396825 390.176190476 -79.5126984127 c 0,23,24
 396 -19.3333333333 396 -19.3333333333 396 51 c 2,25,-1
 396 939 l 2,26,27
 396 1006 396 1006 463 1006 c 2,28,-1
 548 1006 l 2,29,30
 614 1006 614 1006 614 939 c 2,31,-1
 614 6 l 1,32,33
 612 -195 612 -195 516 -287 c 128,-1,34
 420 -379 420 -379 196 -379 c 2,35,-1
 108 -379 l 2,12,13
EndSplineSet
EndChar

StartChar: k
Encoding: 107 107 78
Width: 1677
GlyphClass: 2
Flags: W
LayerCount: 2
Fore
SplineSet
227 0 m 2,0,1
 160 0 160 0 160 67 c 2,2,-1
 160 1370 l 2,3,4
 160 1437 160 1437 227 1437 c 2,5,-1
 312 1437 l 2,6,7
 379 1437 379 1437 379 1370 c 2,8,-1
 379 474 l 2,9,10
 379 465 379 465 384 465 c 128,-1,11
 389 465 389 465 391 467 c 2,12,-1
 1157 938 l 1,13,14
 1261.83333333 1006 1261.83333333 1006 1307 1006 c 2,15,-1
 1490 1006 l 2,16,17
 1520 1006 1520 1006 1520 989 c 0,18,19
 1520 966 1520 966 1473 938 c 2,20,-1
 865 563 l 2,21,22
 859 559 859 559 859 554.5 c 128,-1,23
 859 550 859 550 866 547 c 1,24,-1
 1538 67 l 2,25,26
 1572 42 1572 42 1572 21 c 128,-1,27
 1572 0 1572 0 1536 0 c 2,28,-1
 1382 0 l 2,29,30
 1344.54545455 0 1344.54545455 0 1313.27272727 21.5 c 128,-1,31
 1282 43 1282 43 1250 67 c 2,32,-1
 701 468 l 2,33,34
 690 476 690 476 684 476 c 128,-1,35
 678 476 678 476 671 471 c 2,36,-1
 391 311 l 2,37,38
 379 304 379 304 379 290 c 2,39,-1
 379 67 l 2,40,41
 379 0 379 0 312 0 c 2,42,-1
 227 0 l 2,0,1
EndSplineSet
EndChar

StartChar: l
Encoding: 108 108 79
Width: 538
GlyphClass: 2
Flags: W
LayerCount: 2
Fore
SplineSet
227 0 m 2,0,1
 160 0 160 0 160 67 c 2,2,-1
 160 1370 l 2,3,4
 160 1437 160 1437 227 1437 c 2,5,-1
 312 1437 l 2,6,7
 378 1437 378 1437 378 1370 c 2,8,-1
 378 67 l 2,9,10
 378 0 378 0 312 0 c 2,11,-1
 227 0 l 2,0,1
EndSplineSet
EndChar

StartChar: m
Encoding: 109 109 80
Width: 2523
GlyphClass: 2
Flags: W
LayerCount: 2
Fore
SplineSet
219 0 m 2,0,1
 152 0 152 0 152 67 c 2,2,-1
 152 929 l 2,3,4
 152 1006 152 1006 208 1006 c 2,5,-1
 226 1006 l 2,6,7
 262 1006 262 1006 280 992.5 c 128,-1,8
 298 979 298 979 305 942 c 1,9,-1
 331 824 l 1,10,11
 339 811 339 811 346 811 c 128,-1,12
 353 811 353 811 366 826 c 0,13,14
 547.189655172 1052 547.189655172 1052 872.594827586 1052 c 128,-1,15
 1198 1052 1198 1052 1310 821 c 0,16,17
 1311 820 1311 820 1314.5 809.5 c 128,-1,18
 1318 799 1318 799 1326 799 c 128,-1,19
 1334 799 1334 799 1342 810 c 0,20,21
 1518 1052 1518 1052 1859 1052 c 0,22,23
 2100 1052 2100 1052 2239.5 925 c 128,-1,24
 2379 798 2379 798 2379 553 c 2,25,-1
 2379 67 l 2,26,27
 2379 0 2379 0 2313 0 c 2,28,-1
 2228 0 l 2,29,30
 2161 0 2161 0 2161 67 c 2,31,-1
 2161 609 l 2,32,33
 2161 836.86440678 2161 836.86440678 1952 890 c 0,34,35
 1893 905 1893 905 1808 905 c 128,-1,36
 1723 905 1723 905 1618 858.5 c 128,-1,37
 1513 812 1513 812 1444.5 742.5 c 128,-1,38
 1376 673 1376 673 1376 610 c 1,39,40
 1375 607 1375 607 1374 607 c 1,41,-1
 1374 67 l 2,42,43
 1374 0 1374 0 1307 0 c 2,44,-1
 1222 0 l 2,45,46
 1156 0 1156 0 1156 67 c 2,47,-1
 1156 609 l 2,48,49
 1156 769 1156 769 1069.5 836.5 c 128,-1,50
 983 904 983 904 830 904 c 0,51,52
 734 904 734 904 625.5 859 c 128,-1,53
 517 814 517 814 444 744.5 c 128,-1,54
 371 675 371 675 371 611 c 2,55,-1
 371 67 l 2,56,57
 371 0 371 0 305 0 c 2,58,-1
 219 0 l 2,0,1
EndSplineSet
EndChar

StartChar: n
Encoding: 110 110 81
Width: 1529
GlyphClass: 2
Flags: W
LayerCount: 2
Fore
SplineSet
219 0 m 2,0,1
 152 0 152 0 152 67 c 2,2,-1
 152 929 l 2,3,4
 152 1006 152 1006 208 1006 c 2,5,-1
 226 1006 l 2,6,7
 262 1006 262 1006 280 992.5 c 128,-1,8
 298 979 298 979 305 942 c 1,9,-1
 331 824 l 1,10,11
 339 811 339 811 346 811 c 128,-1,12
 353 811 353 811 366 826 c 0,13,14
 549.137931034 1052 549.137931034 1052 869 1052 c 0,15,16
 1107 1052 1107 1052 1246.5 925 c 128,-1,17
 1386 798 1386 798 1386 553 c 2,18,-1
 1386 67 l 2,19,20
 1386 0 1386 0 1319 0 c 2,21,-1
 1234 0 l 2,22,23
 1168 0 1168 0 1168 67 c 2,24,-1
 1168 609 l 2,25,26
 1168 905 1168 905 829 905 c 0,27,28
 733 905 733 905 625 859.5 c 128,-1,29
 517 814 517 814 444 743.5 c 128,-1,30
 371 673 371 673 371 609 c 2,31,-1
 371 67 l 2,32,33
 371 0 371 0 305 0 c 2,34,-1
 219 0 l 2,0,1
EndSplineSet
EndChar

StartChar: o
Encoding: 111 111 82
Width: 1639
GlyphClass: 2
Flags: W
LayerCount: 2
Fore
SplineSet
1006 -22.5 m 128,-1,1
 913 -41 913 -41 821 -41 c 128,-1,2
 729 -41 729 -41 635.5 -23 c 128,-1,3
 542 -5 542 -5 449.5 37.5 c 128,-1,4
 357 80 357 80 286.5 141 c 128,-1,5
 216 202 216 202 172 296 c 128,-1,6
 128 390 128 390 128 506 c 128,-1,7
 128 622 128 622 169 716.5 c 128,-1,8
 210 811 210 811 277.5 872.5 c 128,-1,9
 345 934 345 934 436 975.5 c 0,10,11
 603.746987952 1052 603.746987952 1052 822 1052 c 0,12,13
 1036.25301205 1052 1036.25301205 1052 1204 975.5 c 0,14,15
 1395.7441492 888.056239649 1395.7441492 888.056239649 1470 716 c 0,16,17
 1511 621 1511 621 1511 506 c 128,-1,18
 1511 391 1511 391 1467 297 c 128,-1,19
 1423 203 1423 203 1352.5 141.5 c 128,-1,20
 1282 80 1282 80 1190.5 38 c 128,-1,0
 1099 -4 1099 -4 1006 -22.5 c 128,-1,1
582.5 152 m 128,-1,22
 688 108 688 108 803 108 c 128,-1,23
 918 108 918 108 1002.5 133.5 c 128,-1,24
 1087 159 1087 159 1151.5 207 c 0,25,26
 1291 310.813953488 1291 310.813953488 1291 504 c 0,27,28
 1291 741.752066116 1291 741.752066116 1089.5 845 c 0,29,30
 928.325403064 899.501769951 928.325403064 899.501769951 851.653225806 903 c 1,31,32
 727 903 727 903 644 880 c 128,-1,33
 561 857 561 857 493.5 811 c 128,-1,34
 426 765 426 765 387 686 c 128,-1,35
 348 607 348 607 348 492.5 c 128,-1,36
 348 378 348 378 412.5 287 c 128,-1,21
 477 196 477 196 582.5 152 c 128,-1,22
EndSplineSet
EndChar

StartChar: p
Encoding: 112 112 83
Width: 1663
GlyphClass: 2
Flags: W
LayerCount: 2
Fore
SplineSet
668 130 m 128,-1,1
 751 107 751 107 844.5 107 c 128,-1,2
 938 107 938 107 1020 130 c 128,-1,3
 1102 153 1102 153 1169.5 199 c 128,-1,4
 1237 245 1237 245 1276.5 324 c 128,-1,5
 1316 403 1316 403 1316 519 c 128,-1,6
 1316 635 1316 635 1251 726.5 c 0,7,8
 1124.90710383 904 1124.90710383 904 845 904 c 0,9,10
 645.690721649 904 645.690721649 904 511 803.5 c 0,11,12
 372 699.784615385 372 699.784615385 372 507 c 0,13,14
 372 404 372 404 411 325 c 128,-1,15
 450 246 450 246 517.5 199.5 c 128,-1,0
 585 153 585 153 668 130 c 128,-1,1
220 -430 m 2,16,17
 153 -430 153 -430 153 -363 c 2,18,-1
 153 945 l 2,19,20
 153 980 153 980 163.5 995.5 c 128,-1,21
 174 1011 174 1011 205 1011 c 2,22,-1
 217 1011 l 2,23,24
 263.849056604 1011 263.849056604 1011 294 917 c 0,25,26
 297 907 297 907 308 869 c 0,27,28
 327.973684211 800 327.973684211 800 333.486842105 800 c 128,-1,29
 339 800 339 800 345 806 c 1,30,31
 430 923 430 923 576 987.5 c 128,-1,32
 722 1052 722 1052 877 1052 c 0,33,34
 1072.42857143 1052 1072.42857143 1052 1234 974 c 0,35,36
 1421.29782307 883.580361278 1421.29782307 883.580361278 1493.5 716 c 0,37,38
 1534 622 1534 622 1534 505.5 c 128,-1,39
 1534 389 1534 389 1494.5 293.5 c 128,-1,40
 1455 198 1455 198 1389.5 136.5 c 128,-1,41
 1324 75 1324 75 1235 34 c 0,42,43
 973.846685098 -42.2058005674 973.846685098 -42.2058005674 896.097689669 -42.2058005674 c 0,44,45
 892.057292527 -42.2058005674 892.057292527 -42.2058005674 888.512195122 -42 c 1,46,47
 543.666666667 -42 543.666666667 -42 382 152 c 0,48,49
 379 157 379 157 375.5 157 c 128,-1,50
 372 157 372 157 372 150 c 2,51,-1
 372 -363 l 2,52,53
 372 -430 372 -430 305 -430 c 2,54,-1
 220 -430 l 2,16,17
EndSplineSet
EndChar

StartChar: q
Encoding: 113 113 84
Width: 1663
GlyphClass: 2
Flags: W
LayerCount: 2
Fore
SplineSet
678 121 m 128,-1,1
 745 107 745 107 829.5 107 c 128,-1,2
 914 107 914 107 997 130 c 128,-1,3
 1080 153 1080 153 1147.5 199.5 c 128,-1,4
 1215 246 1215 246 1254 325 c 128,-1,5
 1293 404 1293 404 1293 503 c 128,-1,6
 1293 602 1293 602 1256 678.5 c 128,-1,7
 1219 755 1219 755 1154 803.5 c 0,8,9
 1019.30927835 904 1019.30927835 904 819 904 c 0,10,11
 540.092896175 904 540.092896175 904 414 726.5 c 0,12,13
 349 635 349 635 349 529 c 128,-1,14
 349 423 349 423 375 355 c 128,-1,15
 401 287 401 287 445.5 241.5 c 128,-1,16
 490 196 490 196 550.5 165.5 c 128,-1,0
 611 135 611 135 678 121 c 128,-1,1
1360 -430 m 2,17,18
 1293 -430 1293 -430 1293 -363 c 2,19,-1
 1293 147 l 2,20,21
 1293 156 1293 156 1290 156 c 128,-1,22
 1287 156 1287 156 1281 150 c 0,23,24
 1113.5106383 -42 1113.5106383 -42 807 -42 c 1,25,26
 639.038461538 -42 639.038461538 -42 488 9 c 0,27,28
 335.837259101 60.3796267972 335.837259101 60.3796267972 234 183 c 0,29,30
 130 308.224489796 130 308.224489796 130 507 c 0,31,32
 130 622 130 622 170.5 716 c 128,-1,33
 211 810 211 810 277 871 c 128,-1,34
 343 932 343 932 430.5 974 c 0,35,36
 593 1052 593 1052 768 1052 c 128,-1,37
 943 1052 943 1052 1089.5 987.5 c 128,-1,38
 1236 923 1236 923 1320 805 c 0,39,40
 1323 800 1323 800 1327 800 c 0,41,42
 1333.66666667 800 1333.66666667 800 1376 927 c 1,43,44
 1400 1011 1400 1011 1447 1011 c 2,45,-1
 1459 1011 l 2,46,47
 1490 1011 1490 1011 1500.5 995.5 c 128,-1,48
 1511 980 1511 980 1511 945 c 2,49,-1
 1511 -363 l 2,50,51
 1511 -430 1511 -430 1445 -430 c 2,52,-1
 1360 -430 l 2,17,18
EndSplineSet
EndChar

StartChar: r
Encoding: 114 114 85
Width: 1011
GlyphClass: 2
Flags: W
LayerCount: 2
Fore
SplineSet
835 1052 m 2,0,1
 900 1052 900 1052 900 985 c 2,2,-1
 900 930 l 2,3,4
 900 867 900 867 832 867 c 2,5,-1
 749 867 l 2,6,7
 602 867 602 867 486.5 788.5 c 128,-1,8
 371 710 371 710 371 610 c 2,9,-1
 371 67 l 2,10,11
 371 0 371 0 305 0 c 2,12,-1
 219 0 l 2,13,14
 152 0 152 0 152 67 c 2,15,-1
 152 929 l 2,16,17
 152 1006 152 1006 209 1006 c 2,18,-1
 225 1006 l 2,19,20
 261 1006 261 1006 279 992.5 c 128,-1,21
 297 979 297 979 305 942 c 2,22,-1
 331 833 l 2,23,24
 336 811 336 811 343 811 c 128,-1,25
 350 811 350 811 353.5 814.5 c 128,-1,26
 357 818 357 818 361 825.5 c 128,-1,27
 365 833 365 833 366 834 c 0,28,29
 427 920 427 920 542 986 c 128,-1,30
 657 1052 657 1052 788 1052 c 2,31,-1
 835 1052 l 2,0,1
EndSplineSet
EndChar

StartChar: s
Encoding: 115 115 86
Width: 1550
GlyphClass: 2
Flags: W
LayerCount: 2
Fore
SplineSet
190 59 m 0,0,1
 172 66 172 66 160.5 85 c 128,-1,2
 149 104 149 104 149 122 c 128,-1,3
 149 140 149 140 154 150 c 0,4,5
 183 211 183 211 228 211 c 0,6,7
 244 211 244 211 315.5 183.5 c 0,8,9
 498.8 113 498.8 113 810 113 c 0,10,11
 1126.32894737 113 1126.32894737 113 1199.5 196 c 0,12,13
 1233 234 1233 234 1233 285.5 c 128,-1,14
 1233 337 1233 337 1220 359.5 c 128,-1,15
 1207 382 1207 382 1159.5 402.5 c 0,16,17
 1076.69988393 438.234786934 1076.69988393 438.234786934 761 450 c 0,18,19
 435.702702703 463.011891892 435.702702703 463.011891892 315 512.5 c 0,20,21
 199.677648395 559.782164158 199.677648395 559.782164158 166 636 c 0,22,23
 147 679 147 679 147 738 c 128,-1,24
 147 797 147 797 170 846.5 c 128,-1,25
 193 896 193 896 228.5 929 c 128,-1,26
 264 962 264 962 318 985.5 c 128,-1,27
 372 1009 372 1009 423.5 1022 c 128,-1,28
 475 1035 475 1035 541.5 1042 c 0,29,30
 646 1053 646 1053 785.5 1053 c 0,31,32
 1049.71428571 1053 1049.71428571 1053 1275 970 c 0,33,34
 1316 954 1316 954 1316 914 c 0,35,36
 1316 901 1316 901 1311 891 c 2,37,-1
 1299 865 l 2,38,39
 1284 833 1284 833 1250 833 c 128,-1,40
 1216 833 1216 833 1172.5 846.5 c 128,-1,41
 1129 860 1129 860 1093 869.5 c 0,42,43
 981.210526316 899 981.210526316 899 776.605263158 899 c 0,44,45
 346 899 346 899 346 755 c 0,46,47
 346 703 346 703 372 678.5 c 128,-1,48
 398 654 398 654 509.5 642 c 128,-1,49
 621 630 621 630 746 621.5 c 128,-1,50
 871 613 871 613 914.5 609.5 c 128,-1,51
 958 606 958 606 1016 600.5 c 128,-1,52
 1074 595 1074 595 1109 588.5 c 128,-1,53
 1144 582 1144 582 1187.5 572 c 128,-1,54
 1231 562 1231 562 1257 550 c 128,-1,55
 1283 538 1283 538 1312.5 521.5 c 128,-1,56
 1342 505 1342 505 1358.5 484 c 128,-1,57
 1375 463 1375 463 1389.5 437 c 0,58,59
 1416 389.482758621 1416 389.482758621 1416 315.24137931 c 128,-1,60
 1416 241 1416 241 1399.5 190 c 128,-1,61
 1383 139 1383 139 1341 94 c 128,-1,62
 1299 49 1299 49 1229.5 20.5 c 0,63,64
 1079.52631579 -41 1079.52631579 -41 756.263157895 -41 c 129,-1,65
 433 -41 433 -41 190 59 c 0,0,1
EndSplineSet
EndChar

StartChar: t
Encoding: 116 116 87
Width: 1171
GlyphClass: 2
Flags: W
LayerCount: 2
Fore
SplineSet
549 850 m 2,0,1
 522 850 522 850 522 823 c 2,2,-1
 522 301 l 2,3,4
 522 199 522 199 577 153 c 128,-1,5
 632 107 632 107 735 107 c 128,-1,6
 838 107 838 107 951 144 c 0,7,8
 971 151 971 151 987.5 151 c 128,-1,9
 1004 151 1004 151 1011.5 140.5 c 128,-1,10
 1019 130 1019 130 1025 106 c 1,11,-1
 1034 78 l 2,12,13
 1037 66 1037 66 1037 52 c 0,14,15
 1037 25.8214285714 1037 25.8214285714 984 5 c 0,16,17
 867 -41 867 -41 685 -41 c 128,-1,18
 503 -41 503 -41 404 58 c 128,-1,19
 305 157 305 157 305 331 c 2,20,-1
 305 823 l 2,21,22
 305 850 305 850 278 850 c 2,23,-1
 148 850 l 2,24,25
 81 850 81 850 81 916 c 2,26,-1
 81 939 l 2,27,28
 81 1006 81 1006 148 1006 c 2,29,-1
 278 1006 l 2,30,31
 305 1006 305 1006 305 1033 c 1,32,-1
 324 1408 l 1,33,34
 331 1442 331 1442 346 1458.5 c 128,-1,35
 361 1475 361 1475 391 1475 c 2,36,-1
 456 1475 l 2,37,38
 522 1475 522 1475 522 1408 c 2,39,-1
 522 1033 l 2,40,41
 522 1006 522 1006 549 1006 c 2,42,-1
 932 1006 l 2,43,44
 998 1006 998 1006 998 939 c 2,45,-1
 998 916 l 2,46,47
 998 850 998 850 932 850 c 2,48,-1
 549 850 l 2,0,1
EndSplineSet
EndChar

StartChar: u
Encoding: 117 117 88
Width: 1530
GlyphClass: 2
Flags: W
LayerCount: 2
Fore
SplineSet
659 -47 m 1,0,1
 420 -47 420 -47 282.5 80.5 c 128,-1,2
 145 208 145 208 145 453 c 2,3,-1
 145 939 l 2,4,5
 145 1006 145 1006 212 1006 c 2,6,-1
 296 1006 l 2,7,8
 363 1006 363 1006 363 939 c 2,9,-1
 363 397 l 2,10,11
 363 231.46875 363 231.46875 462 166.5 c 0,12,13
 552.666666667 107 552.666666667 107 674.333333333 107 c 128,-1,14
 796 107 796 107 904.5 151 c 128,-1,15
 1013 195 1013 195 1086.5 264 c 128,-1,16
 1160 333 1160 333 1160 397 c 2,17,-1
 1160 939 l 2,18,19
 1160 1006 1160 1006 1226 1006 c 2,20,-1
 1312 1006 l 2,21,22
 1379 1006 1379 1006 1379 939 c 2,23,-1
 1379 77 l 2,24,25
 1379 0 1379 0 1322 0 c 2,26,-1
 1305 0 l 2,27,28
 1269 0 1269 0 1251 13.5 c 128,-1,29
 1233 27 1233 27 1226 64 c 1,30,-1
 1200 182 l 1,31,32
 1192 195 1192 195 1185.5 195 c 128,-1,33
 1179 195 1179 195 1165 179 c 0,34,35
 983.810344828 -47 983.810344828 -47 659 -47 c 1,0,1
EndSplineSet
EndChar

StartChar: v
Encoding: 118 118 89
Width: 1523
GlyphClass: 2
Flags: W
LayerCount: 2
Fore
SplineSet
723 1 m 2,0,1
 666 1 666 1 628 67 c 1,2,-1
 109 939 l 2,3,4
 97 961 97 961 97 977 c 0,5,6
 97 1006 97 1006 139 1006 c 2,7,-1
 253 1006 l 2,8,9
 283 1006 283 1006 299 991 c 128,-1,10
 315 976 315 976 337 939 c 1,11,-1
 765 169 l 2,12,13
 770 160 770 160 778 160 c 128,-1,14
 786 160 786 160 790 169 c 2,15,-1
 1179 939 l 2,16,17
 1212 1006 1212 1006 1272 1006 c 2,18,-1
 1389 1006 l 2,19,20
 1426 1006 1426 1006 1426 983 c 0,21,22
 1426 966 1426 966 1408 939 c 1,23,-1
 927 67 l 1,24,25
 881 1 881 1 821 1 c 2,26,-1
 723 1 l 2,0,1
EndSplineSet
EndChar

StartChar: w
Encoding: 119 119 90
Width: 2505
GlyphClass: 2
Flags: W
LayerCount: 2
Fore
SplineSet
692 0 m 2,0,1
 635 0 635 0 596 67 c 1,2,-1
 129 939 l 2,3,4
 117 961 117 961 117 978 c 0,5,6
 117 1006 117 1006 159 1006 c 2,7,-1
 273 1006 l 2,8,9
 303 1006 303 1006 321 990.5 c 128,-1,10
 339 975 339 975 357 939 c 2,11,-1
 739 177 l 2,12,13
 745 167 745 167 751.5 167 c 128,-1,14
 758 167 758 167 763 177 c 2,15,-1
 1123 939 l 2,16,17
 1154 1006 1154 1006 1217 1006 c 2,18,-1
 1299 1006 l 2,19,20
 1324 1006 1324 1006 1339.5 990.5 c 128,-1,21
 1355 975 1355 975 1375 939 c 2,22,-1
 1775 177 l 2,23,24
 1779 169 1779 169 1787.5 169 c 128,-1,25
 1796 169 1796 169 1799 177 c 2,26,-1
 2140 939 l 2,27,28
 2170 1006 2170 1006 2234 1006 c 2,29,-1
 2351 1006 l 2,30,31
 2388 1006 2388 1006 2388 983 c 0,32,33
 2388 966 2388 966 2370 939 c 1,34,-1
 1943 67 l 2,35,36
 1928 35 1928 35 1898.5 17.5 c 128,-1,37
 1869 0 1869 0 1837 0 c 2,38,-1
 1729 0 l 2,39,40
 1667.58064516 0 1667.58064516 0 1633 67 c 2,41,-1
 1264 790 l 2,42,43
 1260 797 1260 797 1252.5 797 c 128,-1,44
 1245 797 1245 797 1243 790 c 1,45,-1
 904 67 l 2,46,47
 889 35 889 35 859.5 17.5 c 128,-1,48
 830 0 830 0 798 0 c 2,49,-1
 692 0 l 2,0,1
EndSplineSet
EndChar

StartChar: x
Encoding: 120 120 91
Width: 1698
GlyphClass: 2
Flags: W
LayerCount: 2
Fore
SplineSet
155 0 m 2,0,1
 144 0 144 0 136.5 8 c 128,-1,2
 129 16 129 16 129 27.5 c 128,-1,3
 129 39 129 39 139 46 c 0,4,5
 303 174 303 174 709 493 c 0,6,7
 714 498 714 498 714 500.5 c 128,-1,8
 714 503 714 503 709 511 c 1,9,10
 244 889 244 889 161 958 c 1,11,12
 151 965 151 965 151 977 c 128,-1,13
 151 989 151 989 159 997.5 c 128,-1,14
 167 1006 167 1006 179 1006 c 2,15,-1
 308 1006 l 2,16,17
 348.941176471 1006 348.941176471 1006 372.470588235 990 c 128,-1,18
 396 974 396 974 424.5 951.5 c 128,-1,19
 453 929 453 929 592 817 c 128,-1,20
 731 705 731 705 788.5 658.5 c 128,-1,21
 846 612 846 612 851 612 c 128,-1,22
 856 612 856 612 865 616 c 1,23,24
 1045 756 1045 756 1184 866.5 c 128,-1,25
 1323 977 1323 977 1333 984.5 c 0,26,27
 1361.66666667 1006 1361.66666667 1006 1404 1006 c 2,28,-1
 1533 1006 l 2,29,30
 1545 1006 1545 1006 1552 998.5 c 128,-1,31
 1559 991 1559 991 1559 979.5 c 128,-1,32
 1559 968 1559 968 1527 942.5 c 128,-1,33
 1495 917 1495 917 1304.5 762 c 128,-1,34
 1114 607 1114 607 998 513 c 0,35,36
 993 510 993 510 993 505 c 128,-1,37
 993 500 993 500 998 492 c 1,38,39
 1312 239 1312 239 1553 48 c 0,40,41
 1563 39 1563 39 1563 28 c 128,-1,42
 1563 17 1563 17 1555 8.5 c 128,-1,43
 1547 0 1547 0 1535 0 c 2,44,-1
 1413 0 l 2,45,46
 1340 0 1340 0 1278 50 c 0,47,48
 1248 74 1248 74 1107 188.5 c 128,-1,49
 966 303 966 303 870 380 c 0,50,51
 862 386 862 386 853.5 386 c 128,-1,52
 845 386 845 386 832 380 c 1,53,54
 523 132 523 132 411 47 c 1,55,56
 351 0 351 0 273 0 c 2,57,-1
 155 0 l 2,0,1
EndSplineSet
EndChar

StartChar: y
Encoding: 121 121 92
Width: 1544
GlyphClass: 2
Flags: W
LayerCount: 2
Fore
SplineSet
177 -388 m 0,0,1
 160 -380 160 -380 155 -372.5 c 0,2,3
 147.491071429 -361.236607143 147.491071429 -361.236607143 147.491071429 -344.341517857 c 0,4,5
 147.491071429 -328.611607143 147.491071429 -328.611607143 154 -308 c 1,6,-1
 161 -277 l 1,7,8
 175 -242 175 -242 221 -242 c 0,9,10
 229 -242 229 -242 253.5 -250 c 128,-1,11
 278 -258 278 -258 338 -267 c 128,-1,12
 398 -276 398 -276 425 -276 c 2,13,-1
 443 -276 l 1,14,15
 586 -273 586 -273 658 -128 c 0,16,17
 676 -91 676 -91 709 -30 c 1,18,19
 478.906976744 351.906976744 478.906976744 351.906976744 131 939 c 0,20,21
 119 959 119 959 119 977 c 0,22,23
 119 1006 119 1006 161 1006 c 2,24,-1
 275 1006 l 2,25,26
 305 1006 305 1006 321 991 c 128,-1,27
 337 976 337 976 359 939 c 2,28,-1
 789 192 l 2,29,30
 796 179 796 179 807.5 179 c 128,-1,31
 819 179 819 179 830.5 200 c 128,-1,32
 842 221 842 221 938 404 c 128,-1,33
 1034 587 1034 587 1124.5 759.5 c 128,-1,34
 1215 932 1215 932 1224.5 953.5 c 0,35,36
 1246.86134729 1004.10725965 1246.86134729 1004.10725965 1315 1006 c 1,37,-1
 1415 1006 l 2,38,39
 1436 1006 1436 1006 1451 991.5 c 0,40,41
 1466.55555556 976.462962963 1466.55555556 976.462962963 1466.55555556 956.345679012 c 0,42,43
 1466.55555556 942.222222222 1466.55555556 942.222222222 1463 936 c 2,44,-1
 826 -208 l 2,45,46
 749.966942149 -343.537190083 749.966942149 -343.537190083 663.5 -388.5 c 0,47,48
 570.230769231 -437 570.230769231 -437 422.615384615 -437 c 129,-1,49
 275 -437 275 -437 177 -388 c 0,0,1
EndSplineSet
EndChar

StartChar: z
Encoding: 122 122 93
Width: 1457
GlyphClass: 2
Flags: W
LayerCount: 2
Fore
SplineSet
210 0 m 2,0,1
 192 0 192 0 167 11.5 c 128,-1,2
 142 23 142 23 142 37 c 2,3,-1
 142 118 l 2,4,5
 142 159 142 159 171 178 c 1,6,-1
 1032 851 l 1,7,-1
 183 851 l 2,8,9
 168 851 168 851 157 862 c 128,-1,10
 146 873 146 873 146 888 c 2,11,-1
 146 969 l 2,12,13
 146 984 146 984 157 995 c 128,-1,14
 168 1006 168 1006 183 1006 c 2,15,-1
 1215 1006 l 2,16,17
 1233 1006 1233 1006 1257.5 994.5 c 128,-1,18
 1282 983 1282 983 1282 969 c 2,19,-1
 1282 871 l 2,20,21
 1282 832 1282 832 1253 810 c 1,22,-1
 438 155 l 1,23,-1
 1284 155 l 2,24,25
 1299 155 1299 155 1310 144 c 128,-1,26
 1321 133 1321 133 1321 118 c 2,27,-1
 1321 37 l 2,28,29
 1321 22 1321 22 1310 11 c 128,-1,30
 1299 0 1299 0 1284 0 c 2,31,-1
 210 0 l 2,0,1
EndSplineSet
EndChar

StartChar: braceleft
Encoding: 123 123 94
Width: 928
GlyphClass: 2
Flags: W
LayerCount: 2
Fore
SplineSet
412 1192 m 2,0,-1
 412 1212 l 2,1,2
 412 1381.81355932 412 1381.81355932 463.5 1459.5 c 0,3,4
 518.853932584 1543 518.853932584 1543 685 1543 c 2,5,-1
 729 1543 l 2,6,7
 806 1543 806 1543 806 1487 c 2,8,-1
 806 1438 l 2,9,10
 806 1402 806 1402 790 1388.5 c 128,-1,11
 774 1375 774 1375 736 1375 c 2,12,-1
 730 1375 l 2,13,14
 684 1375 684 1375 658.5 1369 c 128,-1,15
 633 1363 633 1363 613.5 1342.5 c 0,16,17
 580 1307.28205128 580 1307.28205128 580 1177 c 2,18,-1
 580 1172 l 2,19,20
 580 970 580 970 568 914.5 c 128,-1,21
 556 859 556 859 543 818.5 c 0,22,23
 517.682384342 739.62588968 517.682384342 739.62588968 455 725 c 0,24,25
 445 722 445 722 445 712 c 128,-1,26
 445 702 445 702 463 697.5 c 128,-1,27
 481 693 481 693 501 673.5 c 128,-1,28
 521 654 521 654 534 629.5 c 128,-1,29
 547 605 547 605 556 565.5 c 128,-1,30
 565 526 565 526 569.5 494 c 128,-1,31
 574 462 574 462 576.5 413 c 0,32,33
 580 344.4 580 344.4 580 260 c 2,34,-1
 580 247 l 2,35,36
 580 116.717948718 580 116.717948718 613.5 81.5 c 0,37,38
 633 61 633 61 658.5 55 c 128,-1,39
 684 49 684 49 730 49 c 2,40,-1
 736 49 l 2,41,42
 774 49 774 49 790 35.5 c 128,-1,43
 806 22 806 22 806 -14 c 2,44,-1
 806 -62 l 2,45,46
 806 -119 806 -119 729 -119 c 2,47,-1
 685 -119 l 2,48,49
 518.853932584 -119 518.853932584 -119 463.5 -35.5 c 0,50,51
 412 42.186440678 412 42.186440678 412 212 c 2,52,-1
 412 232 l 2,53,54
 412 523.41509434 412 523.41509434 357.5 581 c 0,55,56
 331 609 331 609 282 609 c 2,57,-1
 280 609 l 1,58,-1
 217 608 l 2,59,60
 163 608 163 608 144 627.5 c 128,-1,61
 125 647 125 647 125 712 c 128,-1,62
 125 777 125 777 144 796.5 c 128,-1,63
 163 816 163 816 217 816 c 2,64,-1
 284 816 l 2,65,66
 332 816 332 816 358 844 c 0,67,68
 412 902.153846154 412 902.153846154 412 1192 c 2,0,-1
EndSplineSet
EndChar

StartChar: bar
Encoding: 124 124 95
Width: 526
GlyphClass: 2
Flags: W
LayerCount: 2
Fore
SplineSet
238 -150 m 2,0,1
 161 -150 161 -150 161 -94 c 2,2,-1
 161 1499 l 2,3,4
 161 1555 161 1555 238 1555 c 2,5,-1
 288 1555 l 2,6,7
 365 1555 365 1555 365 1499 c 2,8,-1
 365 -94 l 2,9,10
 365 -150 365 -150 288 -150 c 2,11,-1
 238 -150 l 2,0,1
EndSplineSet
EndChar

StartChar: braceright
Encoding: 125 125 96
Width: 927
GlyphClass: 2
Flags: W
LayerCount: 2
Fore
SplineSet
515 232 m 2,0,-1
 515 212 l 2,1,2
 515 42.186440678 515 42.186440678 463.5 -35.5 c 0,3,4
 408.146067416 -119 408.146067416 -119 242 -119 c 2,5,-1
 198 -119 l 2,6,7
 121 -119 121 -119 121 -62 c 2,8,-1
 121 -14 l 2,9,10
 121 22 121 22 137 35.5 c 128,-1,11
 153 49 153 49 191 49 c 2,12,-1
 197 49 l 2,13,14
 243 49 243 49 268.5 55 c 128,-1,15
 294 61 294 61 313.5 81.5 c 0,16,17
 347 116.717948718 347 116.717948718 347 247 c 2,18,-1
 347 252 l 2,19,20
 347 454 347 454 359 509.5 c 128,-1,21
 371 565 371 565 384 605.5 c 0,22,23
 409.317615658 684.37411032 409.317615658 684.37411032 472 699 c 0,24,25
 482 702 482 702 482 712 c 128,-1,26
 482 722 482 722 464 726.5 c 128,-1,27
 446 731 446 731 426 750.5 c 128,-1,28
 406 770 406 770 393 794.5 c 128,-1,29
 380 819 380 819 371 859 c 128,-1,30
 362 899 362 899 357.5 930.5 c 128,-1,31
 353 962 353 962 350.5 1011 c 0,32,33
 347 1079.6 347 1079.6 347 1164 c 2,34,-1
 347 1177 l 2,35,36
 347 1307.28205128 347 1307.28205128 313.5 1342.5 c 0,37,38
 294 1363 294 1363 268.5 1369 c 128,-1,39
 243 1375 243 1375 197 1375 c 2,40,-1
 191 1375 l 2,41,42
 153 1375 153 1375 137 1388.5 c 128,-1,43
 121 1402 121 1402 121 1438 c 2,44,-1
 121 1487 l 2,45,46
 121 1543 121 1543 198 1543 c 2,47,-1
 242 1543 l 2,48,49
 408.146067416 1543 408.146067416 1543 463.5 1459.5 c 0,50,51
 515 1381.81355932 515 1381.81355932 515 1212 c 2,52,-1
 515 1192 l 2,53,54
 515 902.153846154 515 902.153846154 569 844 c 0,55,56
 595 816 595 816 643 816 c 2,57,-1
 710 816 l 2,58,59
 764 816 764 816 783 796.5 c 128,-1,60
 802 777 802 777 802 712 c 128,-1,61
 802 647 802 647 783 627.5 c 128,-1,62
 764 608 764 608 705.5 608 c 128,-1,63
 647 608 647 608 647 609 c 1,64,-1
 645 609 l 2,65,66
 596 609 596 609 569.5 581 c 0,67,68
 515 523.41509434 515 523.41509434 515 232 c 2,0,-1
EndSplineSet
EndChar

StartChar: asciitilde
Encoding: 126 126 97
Width: 1394
GlyphClass: 2
Flags: W
LayerCount: 2
Fore
SplineSet
428 745 m 0,0,1
 202 745 202 745 122 988 c 0,2,3
 118 1000 118 1000 118 1017.5 c 128,-1,4
 118 1035 118 1035 147 1049 c 2,5,-1
 219 1082 l 2,6,7
 231 1088 231 1088 252.5 1088 c 128,-1,8
 274 1088 274 1088 284 1061 c 1,9,10
 347.03030303 931 347.03030303 931 432 931 c 0,11,12
 505.419354839 931 505.419354839 931 668 1015 c 128,-1,13
 830.580645161 1099 830.580645161 1099 941.290322581 1099 c 128,-1,14
 1052 1099 1052 1099 1134 1036 c 128,-1,15
 1216 973 1216 973 1261 876 c 0,16,17
 1267 861 1267 861 1267 852 c 128,-1,18
 1267 843 1267 843 1263 835.5 c 128,-1,19
 1259 828 1259 828 1253.5 822 c 128,-1,20
 1248 816 1248 816 1239 808.5 c 128,-1,21
 1230 801 1230 801 1224.5 797.5 c 0,22,23
 1202.5 783.5 1202.5 783.5 1190.25 776.75 c 128,-1,24
 1178 770 1178 770 1157 770 c 128,-1,25
 1136 770 1136 770 1119 798 c 0,26,27
 1050 918 1050 918 963 918 c 0,28,29
 873.353846154 918 873.353846154 918 711 831.5 c 128,-1,30
 548.646153846 745 548.646153846 745 428 745 c 0,0,1
EndSplineSet
EndChar

StartChar: cent
Encoding: 162 162 99
Width: 1540
GlyphClass: 2
Flags: W
LayerCount: 2
Fore
SplineSet
925 -147 m 2,0,1
 925 -204 925 -204 858 -204 c 2,2,-1
 833 -204 l 2,3,4
 766 -204 766 -204 766 -145 c 2,5,-1
 766 -37 l 1,6,7
 568.009345794 -18.2429906542 568.009345794 -18.2429906542 411 64 c 0,8,9
 233.876068376 156.779202279 233.876068376 156.779202279 165.5 314.5 c 0,10,11
 128 401 128 401 128 505.5 c 128,-1,12
 128 610 128 610 165.5 698 c 128,-1,13
 203 786 203 786 264.5 846 c 128,-1,14
 326 906 326 906 410.5 950 c 0,15,16
 563.845445241 1029.84851586 563.845445241 1029.84851586 766 1049 c 1,17,-1
 766 1216 l 2,18,19
 766 1247 766 1247 782.5 1259 c 128,-1,20
 799 1271 799 1271 833 1271 c 2,21,-1
 858 1271 l 2,22,23
 925 1271 925 1271 925 1214 c 2,24,-1
 925 1053 l 1,25,26
 1194.78851964 1039.51057402 1194.78851964 1039.51057402 1368 932 c 0,27,28
 1398 914 1398 914 1398 897.5 c 128,-1,29
 1398 881 1398 881 1394 872 c 2,30,-1
 1368 813 l 2,31,32
 1357 787 1357 787 1339 787 c 0,33,34
 1327 787 1327 787 1294 806 c 0,35,36
 1137 892 1137 892 925 903 c 1,37,-1
 925 107 l 1,38,39
 1090 117 1090 117 1271 201 c 0,40,41
 1296 212 1296 212 1318 212 c 128,-1,42
 1340 212 1340 212 1347 192 c 2,43,-1
 1357.5 161 l 2,44,45
 1367 131.142857143 1367 131.142857143 1367 107.071428571 c 128,-1,46
 1367 83 1367 83 1304.5 52.5 c 128,-1,47
 1242 22 1242 22 1133.5 -5.5 c 128,-1,48
 1025 -33 1025 -33 925 -40 c 1,49,-1
 925 -147 l 2,0,1
766 114 m 1,50,-1
 766 897 l 1,51,52
 549.61570997 867.49305136 549.61570997 867.49305136 432.5 740 c 0,53,54
 347 646.924050633 347 646.924050633 347 504 c 0,55,56
 347 266.02 347 266.02 603 158.5 c 0,57,58
 678 127 678 127 766 114 c 1,50,-1
EndSplineSet
EndChar

StartChar: sterling
Encoding: 163 163 100
Width: 1713
GlyphClass: 2
Flags: W
LayerCount: 2
Fore
SplineSet
146 91 m 2,0,1
 146 158 146 158 203 158 c 2,2,-1
 338 158 l 2,3,4
 359 158 359 158 364.5 168 c 128,-1,5
 370 178 370 178 370 211 c 2,6,-1
 370 650 l 2,7,8
 370 693 370 693 338 693 c 2,9,-1
 203 693 l 2,10,11
 171 693 171 693 158.5 706.5 c 128,-1,12
 146 720 146 720 146 753 c 2,13,-1
 146 782 l 2,14,15
 146 815 146 815 158.5 829 c 128,-1,16
 171 843 171 843 203 843 c 2,17,-1
 370 843 l 1,18,19
 368 1475 368 1475 991 1475 c 0,20,21
 1249 1475 1249 1475 1530 1393 c 1,22,23
 1583 1379 1583 1379 1583 1336 c 0,24,25
 1583 1328 1583 1328 1582 1323 c 2,26,-1
 1565 1271 l 2,27,28
 1556 1246 1556 1246 1547.5 1236.5 c 128,-1,29
 1539 1227 1539 1227 1525.5 1227 c 128,-1,30
 1512 1227 1512 1227 1502.5 1229 c 128,-1,31
 1493 1231 1493 1231 1430 1245.5 c 128,-1,32
 1367 1260 1367 1260 1302 1273.5 c 0,33,34
 1121.44444444 1311 1121.44444444 1311 1000 1311 c 0,35,36
 773 1311 773 1311 679.5 1215.5 c 128,-1,37
 586 1120 586 1120 586 906 c 2,38,-1
 586 843 l 1,39,-1
 1004 843 l 2,40,41
 1036 843 1036 843 1048 829 c 128,-1,42
 1060 815 1060 815 1060 782 c 2,43,-1
 1060 753 l 2,44,45
 1060 720 1060 720 1048 706.5 c 128,-1,46
 1036 693 1036 693 1004 693 c 2,47,-1
 584 693 l 1,48,-1
 584 227 l 2,49,50
 584 181 584 181 595 169.5 c 128,-1,51
 606 158 606 158 658 158 c 2,52,-1
 1517 158 l 2,53,54
 1573 158 1573 158 1573 105 c 2,55,-1
 1573 40 l 2,56,57
 1573 16 1573 16 1559 8 c 128,-1,58
 1545 0 1545 0 1517 0 c 2,59,-1
 203 0 l 2,60,61
 171 0 171 0 158.5 14 c 128,-1,62
 146 28 146 28 146 61 c 2,63,-1
 146 91 l 2,0,1
EndSplineSet
EndChar

StartChar: currency
Encoding: 164 164 101
Width: 1307
GlyphClass: 2
Flags: W
LayerCount: 2
Fore
SplineSet
653 529 m 128,-1,1
 757 529 757 529 836.5 565 c 128,-1,2
 916 601 916 601 961.5 660.5 c 0,3,4
 1051 777.538461538 1051 777.538461538 1051 931 c 0,5,6
 1051 1089.46153846 1051 1089.46153846 961.5 1206.5 c 0,7,8
 916 1266 916 1266 836.5 1301 c 128,-1,9
 757 1336 757 1336 653 1336 c 128,-1,10
 549 1336 549 1336 469.5 1301 c 128,-1,11
 390 1266 390 1266 344.5 1206.5 c 0,12,13
 255 1089.46153846 255 1089.46153846 255 931 c 0,14,15
 255 777.538461538 255 777.538461538 344.5 660.5 c 0,16,17
 390 601 390 601 469.5 565 c 128,-1,0
 549 529 549 529 653 529 c 128,-1,1
653 426 m 128,-1,19
 558 426 558 426 491 447.5 c 128,-1,20
 424 469 424 469 355 515 c 1,21,-1
 324 484 l 2,22,23
 285 445 285 445 269 445 c 128,-1,24
 253 445 253 445 242 457 c 2,25,-1
 210 489 l 2,26,27
 196 503 196 503 196 520 c 128,-1,28
 196 537 196 537 233 574 c 2,29,-1
 258 599 l 1,30,31
 140 734 140 734 140 932 c 128,-1,32
 140 1130 140 1130 260 1268 c 1,33,-1
 233 1295 l 2,34,35
 194 1334 194 1334 194 1349.5 c 128,-1,36
 194 1365 194 1365 207 1377 c 2,37,-1
 239 1409 l 2,38,39
 253 1423 253 1423 270 1423 c 128,-1,40
 287 1423 287 1423 324 1386 c 2,41,-1
 358 1352 l 1,42,43
 428 1397 428 1397 494 1418.5 c 128,-1,44
 560 1440 560 1440 653 1440 c 128,-1,45
 746 1440 746 1440 813.5 1418.5 c 128,-1,46
 881 1397 881 1397 950 1352 c 1,47,-1
 983 1385 l 2,48,49
 1021 1423 1021 1423 1037.5 1423 c 128,-1,50
 1054 1423 1054 1423 1068 1409 c 2,51,-1
 1101 1377 l 2,52,53
 1113 1364 1113 1364 1113 1349 c 128,-1,54
 1113 1334 1113 1334 1074 1295 c 2,55,-1
 1047 1268 l 1,56,57
 1167 1130 1167 1130 1167 933 c 128,-1,58
 1167 736 1167 736 1050 599 c 1,59,-1
 1074 575 l 2,60,61
 1112 537 1112 537 1112 520.5 c 128,-1,62
 1112 504 1112 504 1098 490 c 2,63,-1
 1066 457 l 1,64,65
 1052 445 1052 445 1036.5 445 c 128,-1,66
 1021 445 1021 445 984 484 c 1,67,-1
 953 515 l 1,68,69
 883 469 883 469 815.5 447.5 c 128,-1,18
 748 426 748 426 653 426 c 128,-1,19
EndSplineSet
EndChar

StartChar: yen
Encoding: 165 165 102
Width: 1670
GlyphClass: 2
Flags: W
LayerCount: 2
Fore
SplineSet
793 0 m 2,0,1
 726 0 726 0 726 67 c 2,2,-1
 726 234 l 1,3,-1
 487 234 l 2,4,5
 456 234 456 234 448 245 c 128,-1,6
 440 256 440 256 440 290 c 2,7,-1
 440 321 l 2,8,9
 440 355 440 355 448 366.5 c 128,-1,10
 456 378 456 378 487 378 c 2,11,-1
 726 378 l 1,12,-1
 729 573 l 1,13,-1
 423 573 l 2,14,15
 392 573 392 573 384 584 c 128,-1,16
 376 595 376 595 376 629 c 2,17,-1
 376 660 l 2,18,19
 376 694 376 694 384 705.5 c 128,-1,20
 392 717 392 717 423 717 c 2,21,-1
 728 717 l 1,22,-1
 110 1371 l 1,23,24
 77 1400 77 1400 77 1419 c 0,25,26
 77 1438 77 1438 110 1438 c 2,27,-1
 241 1438 l 2,28,29
 306 1438 306 1438 375 1371 c 1,30,-1
 837 882 l 1,31,-1
 1292 1371 l 2,32,33
 1354 1438 1354 1438 1419 1438 c 2,34,-1
 1554 1438 l 2,35,36
 1588 1438 1588 1438 1588 1416.5 c 0,37,38
 1588 1395 1588 1395 1560 1371 c 1,39,-1
 935 717 l 1,40,-1
 1241 717 l 2,41,42
 1272 717 1272 717 1280 705.5 c 128,-1,43
 1288 694 1288 694 1288 660 c 2,44,-1
 1288 629 l 2,45,46
 1288 595 1288 595 1280 584 c 128,-1,47
 1272 573 1272 573 1241 573 c 2,48,-1
 939 573 l 1,49,-1
 941 378 l 1,50,-1
 1209 378 l 2,51,52
 1240 378 1240 378 1248 366.5 c 128,-1,53
 1256 355 1256 355 1256 321 c 2,54,-1
 1256 290 l 2,55,56
 1256 256 1256 256 1248 245 c 128,-1,57
 1240 234 1240 234 1209 234 c 2,58,-1
 941 234 l 1,59,-1
 941 67 l 2,60,61
 941 0 941 0 874 0 c 2,62,-1
 793 0 l 2,0,1
EndSplineSet
EndChar

StartChar: brokenbar
Encoding: 166 166 103
Width: 509
GlyphClass: 2
Flags: W
LayerCount: 2
Fore
SplineSet
217 819 m 2,0,1
 160 819 160 819 160 896 c 2,2,-1
 160 1478 l 2,3,4
 160 1555 160 1555 217 1555 c 2,5,-1
 292 1555 l 2,6,7
 349 1555 349 1555 349 1478 c 2,8,-1
 349 896 l 2,9,10
 349 819 349 819 292 819 c 2,11,-1
 217 819 l 2,0,1
217 -150 m 2,12,13
 160 -150 160 -150 160 -73 c 2,14,-1
 160 509 l 2,15,16
 160 586 160 586 217 586 c 2,17,-1
 292 586 l 2,18,19
 349 586 349 586 349 509 c 2,20,-1
 349 -73 l 2,21,22
 349 -150 349 -150 292 -150 c 2,23,-1
 217 -150 l 2,12,13
EndSplineSet
EndChar

StartChar: section
Encoding: 167 167 104
Width: 1574
GlyphClass: 2
Flags: W
LayerCount: 2
Fore
SplineSet
156 736 m 0,0,1
 156 859.844827586 156 859.844827586 283 954 c 1,2,3
 156 1020 156 1020 156 1158 c 0,4,5
 156 1334.08333333 156 1334.08333333 327 1408.5 c 0,6,7
 427.079398245 1452.05307146 427.079398245 1452.05307146 522.539699122 1462.02653573 c 0,8,9
 656.285714286 1476 656.285714286 1476 795.142857143 1476 c 0,10,11
 1058.71428571 1476 1058.71428571 1476 1284 1393 c 0,12,13
 1325 1377 1325 1377 1325 1337 c 0,14,15
 1325 1324 1325 1324 1320 1314 c 2,16,-1
 1308 1288 l 2,17,18
 1293 1256 1293 1256 1259.5 1256 c 128,-1,19
 1226 1256 1226 1256 1181.5 1269.5 c 128,-1,20
 1137 1283 1137 1283 1102 1292.5 c 0,21,22
 993.315789474 1322 993.315789474 1322 787.157894737 1322 c 0,23,24
 356 1322 356 1322 356 1178 c 0,25,26
 356 1126 356 1126 382 1101 c 128,-1,27
 408 1076 408 1076 520 1064.5 c 128,-1,28
 632 1053 632 1053 756 1044.5 c 128,-1,29
 880 1036 880 1036 924 1032.5 c 128,-1,30
 968 1029 968 1029 1025.5 1023.5 c 128,-1,31
 1083 1018 1083 1018 1118 1011.5 c 128,-1,32
 1153 1005 1153 1005 1197 995 c 128,-1,33
 1241 985 1241 985 1267 973 c 128,-1,34
 1293 961 1293 961 1322.5 944.5 c 128,-1,35
 1352 928 1352 928 1368.5 907 c 128,-1,36
 1385 886 1385 886 1399.5 860 c 0,37,38
 1426 812.482758621 1426 812.482758621 1426 721.24137931 c 128,-1,39
 1426 630 1426 630 1330 518 c 1,40,41
 1426 451 1426 451 1426 308 c 0,42,43
 1426 98.3884892086 1426 98.3884892086 1238.5 21.5 c 0,44,45
 1088.52631579 -40 1088.52631579 -40 765.763157895 -40 c 128,-1,46
 443 -40 443 -40 200 60 c 0,47,48
 159 76 159 76 159 117 c 128,-1,49
 159 158 159 158 183 185 c 128,-1,50
 207 212 207 212 229.5 212 c 128,-1,51
 252 212 252 212 265 207 c 0,52,53
 396 157 396 157 522 135.5 c 128,-1,54
 648 114 648 114 796.5 114 c 128,-1,55
 945 114 945 114 1029 126 c 128,-1,56
 1113 138 1113 138 1159.5 162.5 c 0,57,58
 1243 206.494623656 1243 206.494623656 1243 297 c 0,59,60
 1243 338 1243 338 1230 360.5 c 128,-1,61
 1217 383 1217 383 1169.5 403.5 c 0,62,63
 1086.69988393 439.234786934 1086.69988393 439.234786934 771 451 c 0,64,65
 444.594594595 464.056216216 444.594594595 464.056216216 324 513.5 c 0,66,67
 208.677648395 560.782164158 208.677648395 560.782164158 175 637 c 0,68,69
 156 680 156 680 156 736 c 0,0,1
1195 574 m 1,70,71
 1239 693 1239 693 1239 722.5 c 128,-1,72
 1239 752 1239 752 1231.5 771.5 c 128,-1,73
 1224 791 1224 791 1198.5 810 c 128,-1,74
 1173 829 1173 829 1122 840 c 0,75,76
 1012.37628866 863.644329897 1012.37628866 863.644329897 774.68814433 872.322164948 c 128,-1,77
 537 881 537 881 408 910 c 1,78,79
 357 839 357 839 357 774.5 c 128,-1,80
 357 710 357 710 380 689 c 0,81,82
 429.258010118 644.02529511 429.258010118 644.02529511 763.129005059 621.512647555 c 128,-1,83
 1097 599 1097 599 1195 574 c 1,70,71
EndSplineSet
EndChar

StartChar: dieresis
Encoding: 168 168 105
Width: 1181
GlyphClass: 2
Flags: W
LayerCount: 2
Fore
SplineSet
827 1184 m 2,0,1
 795 1184 795 1184 772.5 1206 c 128,-1,2
 750 1228 750 1228 750 1260 c 2,3,-1
 750 1356 l 2,4,5
 750 1388 750 1388 772.5 1410 c 128,-1,6
 795 1432 795 1432 827 1432 c 2,7,-1
 954 1432 l 2,8,9
 986 1432 986 1432 1008.5 1410 c 128,-1,10
 1031 1388 1031 1388 1031 1356 c 2,11,-1
 1031 1260 l 2,12,13
 1031 1228 1031 1228 1008.5 1206 c 128,-1,14
 986 1184 986 1184 954 1184 c 2,15,-1
 827 1184 l 2,0,1
228 1184 m 2,16,17
 196 1184 196 1184 173.5 1206 c 128,-1,18
 151 1228 151 1228 151 1260 c 2,19,-1
 151 1356 l 2,20,21
 151 1388 151 1388 173.5 1410 c 128,-1,22
 196 1432 196 1432 228 1432 c 2,23,-1
 355 1432 l 2,24,25
 387 1432 387 1432 409.5 1410 c 128,-1,26
 432 1388 432 1388 432 1356 c 2,27,-1
 432 1260 l 2,28,29
 432 1228 432 1228 409.5 1206 c 128,-1,30
 387 1184 387 1184 355 1184 c 2,31,-1
 228 1184 l 2,16,17
EndSplineSet
EndChar

StartChar: copyright
Encoding: 169 169 106
Width: 1899
GlyphClass: 2
Flags: W
LayerCount: 2
Fore
SplineSet
949 -41 m 128,-1,1
 751 -41 751 -41 593 21 c 128,-1,2
 435 83 435 83 336 189 c 128,-1,3
 237 295 237 295 185 430 c 128,-1,4
 133 565 133 565 133 717 c 128,-1,5
 133 869 133 869 185 1004 c 128,-1,6
 237 1139 237 1139 336 1245 c 128,-1,7
 435 1351 435 1351 593 1413 c 128,-1,8
 751 1475 751 1475 949 1475 c 128,-1,9
 1147 1475 1147 1475 1305 1413 c 128,-1,10
 1463 1351 1463 1351 1562 1245 c 128,-1,11
 1661 1139 1661 1139 1713 1004 c 128,-1,12
 1765 869 1765 869 1765 717 c 128,-1,13
 1765 565 1765 565 1713 430 c 128,-1,14
 1661 295 1661 295 1562 189 c 128,-1,15
 1463 83 1463 83 1305 21 c 128,-1,0
 1147 -41 1147 -41 949 -41 c 128,-1,1
952 80 m 128,-1,17
 1091 80 1091 80 1205 118 c 128,-1,18
 1319 156 1319 156 1393.5 218 c 128,-1,19
 1468 280 1468 280 1518.5 363.5 c 0,20,21
 1613 519.752475248 1613 519.752475248 1613 713 c 0,22,23
 1613 913.247524752 1613 913.247524752 1518.5 1069.5 c 0,24,25
 1412.17870872 1245.29857072 1412.17870872 1245.29857072 1204.5 1313 c 0,26,27
 1091 1350 1091 1350 951.5 1350 c 128,-1,28
 812 1350 812 1350 698.5 1313 c 128,-1,29
 585 1276 585 1276 510 1214.5 c 128,-1,30
 435 1153 435 1153 384.5 1069.5 c 0,31,32
 290 913.247524752 290 913.247524752 290 713 c 0,33,34
 290 519.039215686 290 519.039215686 385 363.5 c 0,35,36
 493.007518797 186.664160401 493.007518797 186.664160401 699 118 c 0,37,16
 813 80 813 80 952 80 c 128,-1,17
1249 530 m 0,38,39
 1268 530 1268 530 1282.5 498 c 128,-1,40
 1297 466 1297 466 1297 433.5 c 128,-1,41
 1297 401 1297 401 1270 389 c 0,42,43
 1132 325 1132 325 969 325 c 0,44,45
 784 325 784 325 652 419 c 0,46,47
 586 466 586 466 547 545 c 128,-1,48
 508 624 508 624 508 716 c 128,-1,49
 508 808 508 808 535.5 876 c 128,-1,50
 563 944 563 944 608 989 c 128,-1,51
 653 1034 653 1034 712 1064.5 c 0,52,53
 823.229508197 1122 823.229508197 1122 978.114754098 1122 c 128,-1,54
 1133 1122 1133 1122 1265 1048 c 0,55,56
 1292 1034 1292 1034 1292 1000 c 128,-1,57
 1292 966 1292 966 1277 936.5 c 128,-1,58
 1262 907 1262 907 1241 907 c 0,59,60
 1237 907 1237 907 1227 911 c 0,61,62
 1098 967 1098 967 997.5 967 c 128,-1,63
 897 967 897 967 831.5 942.5 c 128,-1,64
 766 918 766 918 724.5 862 c 128,-1,65
 683 806 683 806 683 725 c 0,66,67
 683 597 683 597 765 535.5 c 128,-1,68
 847 474 847 474 972.5 474 c 128,-1,69
 1098 474 1098 474 1235 526 c 1,70,71
 1242 530 1242 530 1249 530 c 0,38,39
EndSplineSet
EndChar

StartChar: ordfeminine
Encoding: 170 170 107
Width: 1671
GlyphClass: 2
Flags: W
LayerCount: 2
Fore
SplineSet
508 534 m 0,0,1
 11 534 11 534 11 778 c 0,2,3
 11 853 11 853 67 911.5 c 128,-1,4
 123 970 123 970 212 1003 c 128,-1,5
 301 1036 301 1036 409.5 1058.5 c 128,-1,6
 518 1081 518 1081 626 1090 c 128,-1,7
 734 1099 734 1099 823 1104 c 128,-1,8
 912 1109 912 1109 968 1112 c 128,-1,9
 1024 1115 1024 1115 1024 1120 c 2,10,-1
 1024 1133 l 2,11,12
 1024 1205 1024 1205 995 1248.5 c 0,13,14
 931.333333333 1344 931.333333333 1344 647 1344 c 0,15,16
 486.833333333 1344 486.833333333 1344 375.416666667 1319.5 c 128,-1,17
 264 1295 264 1295 223.5 1253 c 128,-1,18
 183 1211 183 1211 163 1211 c 1,19,-1
 147 1213 l 1,20,-1
 72 1227 l 1,21,22
 61 1228 61 1228 52.5 1238 c 128,-1,23
 44 1248 44 1248 44 1264 c 128,-1,24
 44 1280 44 1280 54 1297 c 1,25,26
 115 1389 115 1389 252 1431.5 c 128,-1,27
 389 1474 389 1474 599 1474 c 128,-1,28
 809 1474 809 1474 919 1449.5 c 128,-1,29
 1029 1425 1029 1425 1093.5 1371.5 c 128,-1,30
 1158 1318 1158 1318 1185 1243.5 c 128,-1,31
 1212 1169 1212 1169 1212 1059 c 2,32,-1
 1212 650 l 2,33,34
 1212 569 1212 569 1168 569 c 2,35,-1
 1146 569 l 2,36,37
 1122 569 1122 569 1110 593.5 c 128,-1,38
 1098 618 1098 618 1088 691.5 c 0,39,40
 1071.08865344 802.13071169 1071.08865344 802.13071169 1068.84693878 804 c 1,41,42
 1065 804 1065 804 1056 776 c 1,43,44
 1006 667 1006 667 868.5 600.5 c 128,-1,45
 731 534 731 534 508 534 c 0,0,1
1026 986 m 0,46,47
 1026 1001 1026 1001 1020 1001 c 128,-1,48
 1014 1001 1014 1001 934.5 996.5 c 0,49,50
 376.041871921 964.889162562 376.041871921 964.889162562 258.5 882.5 c 0,51,52
 206.459090909 846.022727273 206.459090909 846.022727273 206.459090909 796.298677686 c 0,53,54
 206.459090909 743.540909091 206.459090909 743.540909091 235.5 714.5 c 0,55,56
 294 656 294 656 518 656 c 0,57,58
 727.96 656 727.96 656 871 730.5 c 0,59,60
 943 768 943 768 984.5 833.5 c 128,-1,61
 1026 899 1026 899 1026 986 c 0,46,47
EndSplineSet
EndChar

StartChar: guillemotleft
Encoding: 171 171 108
Width: 1344
GlyphClass: 2
Flags: W
LayerCount: 2
Fore
SplineSet
1140 1145 m 1,0,-1
 1159 1148 l 1,1,2
 1175 1148 1175 1148 1187.5 1136.5 c 128,-1,3
 1200 1125 1200 1125 1200 1107 c 2,4,-1
 1200 1033 l 2,5,6
 1200 997.736842105 1200 997.736842105 1170.5 976 c 0,7,8
 1161 969 1161 969 1138 955 c 1,9,-1
 818 722 l 1,10,11
 809 718 809 718 809 709 c 128,-1,12
 809 700 809 700 818 696 c 1,13,-1
 1138 461 l 1,14,15
 1200 425.571428571 1200 425.571428571 1200 382 c 2,16,-1
 1200 292 l 2,17,18
 1200 275 1200 275 1188 263 c 128,-1,19
 1176 251 1176 251 1167 251 c 128,-1,20
 1158 251 1158 251 1141 256 c 1,21,-1
 690 597 l 1,22,23
 675 607 675 607 668.5 613.5 c 128,-1,24
 662 620 662 620 654.5 626.5 c 128,-1,25
 647 633 647 633 644.5 637.5 c 128,-1,26
 642 642 642 642 638.5 649 c 0,27,28
 632 662 632 662 632 679 c 2,29,-1
 632 736 l 2,30,31
 632 771 632 771 659.5 793 c 0,32,33
 667 799 667 799 692 817 c 2,34,-1
 1140 1145 l 1,0,-1
679.5 263 m 128,-1,36
 667 251 667 251 657.5 251 c 128,-1,37
 648 251 648 251 633 256 c 1,38,-1
 182 597 l 2,39,40
 178 601 178 601 166 610 c 128,-1,41
 154 619 154 619 146 626.5 c 128,-1,42
 138 634 138 634 136 638 c 128,-1,43
 134 642 134 642 129.5 649 c 0,44,45
 123 659.111111111 123 659.111111111 123 679 c 2,46,-1
 123 736 l 2,47,48
 123 771 123 771 150.5 793 c 0,49,50
 158 799 158 799 183 817 c 2,51,-1
 633 1145 l 1,52,53
 648 1148 648 1148 657.5 1148 c 128,-1,54
 667 1148 667 1148 679.5 1136.5 c 128,-1,55
 692 1125 692 1125 692 1107 c 2,56,-1
 692 1033 l 2,57,58
 692 997.736842105 692 997.736842105 662.5 976 c 0,59,60
 653 969 653 969 630 955 c 1,61,-1
 309 722 l 1,62,63
 300 718 300 718 300 709 c 128,-1,64
 300 700 300 700 309 696 c 1,65,-1
 630 461 l 1,66,67
 692 425.571428571 692 425.571428571 692 382 c 2,68,-1
 692 292 l 2,69,35
 692 275 692 275 679.5 263 c 128,-1,36
EndSplineSet
EndChar

StartChar: logicalnot
Encoding: 172 172 109
Width: 1254
GlyphClass: 2
Flags: W
LayerCount: 2
Fore
SplineSet
951 241 m 2,0,1
 894 241 894 241 894 318 c 2,2,-1
 894 581 l 2,3,4
 894 596 894 596 883 607 c 128,-1,5
 872 618 872 618 857 618 c 2,6,-1
 181 618 l 2,7,8
 149 618 149 618 137 630.5 c 128,-1,9
 125 643 125 643 125 675 c 2,10,-1
 125 736 l 2,11,12
 125 768 125 768 137 780 c 128,-1,13
 149 792 149 792 181 792 c 2,14,-1
 1039 792 l 2,15,16
 1072 792 1072 792 1094 774 c 128,-1,17
 1116 756 1116 756 1116 725 c 2,18,-1
 1116 318 l 2,19,20
 1116 241 1116 241 1059 241 c 2,21,-1
 951 241 l 2,0,1
EndSplineSet
EndChar

StartChar: uni00AD
Encoding: 173 173 110
Width: 1024
GlyphClass: 2
Flags: W
LayerCount: 2
Fore
SplineSet
127 449 m 2,0,1
 102 449 102 449 84.5 473.5 c 128,-1,2
 67 498 67 498 67 532 c 2,3,-1
 67 640 l 2,4,5
 67 669 67 669 84.5 689 c 128,-1,6
 102 709 102 709 127 709 c 2,7,-1
 896 709 l 2,8,9
 917 709 917 709 931.5 688 c 128,-1,10
 946 667 946 667 946 638 c 2,11,-1
 946 526 l 2,12,13
 946 494 946 494 931.5 471.5 c 128,-1,14
 917 449 917 449 896 449 c 2,15,-1
 127 449 l 2,0,1
EndSplineSet
EndChar

StartChar: registered
Encoding: 174 174 111
Width: 1899
GlyphClass: 2
Flags: W
LayerCount: 2
Fore
SplineSet
949 -41 m 128,-1,1
 751 -41 751 -41 593 21 c 128,-1,2
 435 83 435 83 336 189 c 128,-1,3
 237 295 237 295 185 430 c 128,-1,4
 133 565 133 565 133 717 c 128,-1,5
 133 869 133 869 185 1004 c 128,-1,6
 237 1139 237 1139 336 1245 c 128,-1,7
 435 1351 435 1351 593 1413 c 128,-1,8
 751 1475 751 1475 949 1475 c 128,-1,9
 1147 1475 1147 1475 1305 1413 c 128,-1,10
 1463 1351 1463 1351 1562 1245 c 128,-1,11
 1661 1139 1661 1139 1713 1004 c 128,-1,12
 1765 869 1765 869 1765 717 c 128,-1,13
 1765 565 1765 565 1713 430 c 128,-1,14
 1661 295 1661 295 1562 189 c 128,-1,15
 1463 83 1463 83 1305 21 c 128,-1,0
 1147 -41 1147 -41 949 -41 c 128,-1,1
952 80 m 128,-1,17
 1091 80 1091 80 1205 118 c 128,-1,18
 1319 156 1319 156 1393.5 218 c 128,-1,19
 1468 280 1468 280 1518.5 363.5 c 0,20,21
 1613 519.752475248 1613 519.752475248 1613 713 c 0,22,23
 1613 913.247524752 1613 913.247524752 1518.5 1069.5 c 0,24,25
 1412.17870872 1245.29857072 1412.17870872 1245.29857072 1204.5 1313 c 0,26,27
 1091 1350 1091 1350 951.5 1350 c 128,-1,28
 812 1350 812 1350 698.5 1313 c 128,-1,29
 585 1276 585 1276 510 1214.5 c 128,-1,30
 435 1153 435 1153 384.5 1069.5 c 0,31,32
 290 913.247524752 290 913.247524752 290 713 c 0,33,34
 290 519.039215686 290 519.039215686 385 363.5 c 0,35,36
 493.007518797 186.664160401 493.007518797 186.664160401 699 118 c 0,37,16
 813 80 813 80 952 80 c 128,-1,17
736 770 m 2,38,39
 736 753 736 753 752 753 c 2,40,-1
 1120 753 l 2,41,42
 1208 753 1208 753 1208 844 c 0,43,44
 1208 891.782608696 1208 891.782608696 1188.5 907.891304348 c 128,-1,45
 1169 924 1169 924 1145.5 929 c 0,46,47
 1112.6 936 1112.6 936 1043 936 c 2,48,-1
 752 936 l 2,49,50
 736 936 736 936 736 919 c 2,51,-1
 736 770 l 2,38,39
599 387 m 2,52,53
 586 387 586 387 576.5 397.5 c 128,-1,54
 567 408 567 408 567 422 c 2,55,-1
 567 1014 l 2,56,57
 567 1029 567 1029 576 1039 c 128,-1,58
 585 1049 585 1049 599 1049 c 2,59,-1
 991 1049 l 2,60,61
 1171.85714286 1049 1171.85714286 1049 1212.92857143 1037.5 c 128,-1,62
 1254 1026 1254 1026 1285 1011.5 c 128,-1,63
 1316 997 1316 997 1331 976.5 c 0,64,65
 1368 925.933333333 1368 925.933333333 1368 854.966666667 c 128,-1,66
 1368 784 1368 784 1329.5 743.5 c 128,-1,67
 1291 703 1291 703 1230 692 c 0,68,69
 1229 692 1229 692 1229 690 c 128,-1,70
 1229 688 1229 688 1230 688 c 0,71,72
 1291 674 1291 674 1319 620.5 c 128,-1,73
 1347 567 1347 567 1356 472 c 0,74,75
 1357.78571429 452.357142857 1357.78571429 452.357142857 1360.89285714 432.678571429 c 128,-1,76
 1364 413 1364 413 1364 409 c 0,77,78
 1364 387 1364 387 1347 387 c 2,79,-1
 1245 387 l 2,80,81
 1225 387 1225 387 1216.5 393.5 c 128,-1,82
 1208 400 1208 400 1204.5 414.5 c 128,-1,83
 1201 429 1201 429 1192 477.5 c 0,84,85
 1172.72144847 581.389972145 1172.72144847 581.389972145 1152.86072423 610.194986072 c 128,-1,86
 1133 639 1133 639 1117 644 c 128,-1,87
 1101 649 1101 649 1054 649 c 2,88,-1
 752 649 l 2,89,90
 746 649 746 649 741 643.5 c 128,-1,91
 736 638 736 638 736 631 c 2,92,-1
 736 422 l 2,93,94
 736 408 736 408 726.5 397.5 c 128,-1,95
 717 387 717 387 704 387 c 2,96,-1
 599 387 l 2,52,53
EndSplineSet
EndChar

StartChar: macron
Encoding: 175 175 112
Width: 1050
GlyphClass: 2
Flags: W
LayerCount: 2
Fore
SplineSet
927 761 m 2,0,1
 927 694 927 694 870 694 c 2,2,-1
 183 694 l 2,3,4
 152 694 152 694 139.5 710.5 c 128,-1,5
 127 727 127 727 127 761 c 2,6,-1
 127 803 l 2,7,8
 127 837 127 837 139.5 853.5 c 128,-1,9
 152 870 152 870 183 870 c 2,10,-1
 870 870 l 2,11,12
 927 870 927 870 927 803 c 2,13,-1
 927 761 l 2,0,1
EndSplineSet
EndChar

StartChar: degree
Encoding: 176 176 113
Width: 1345
GlyphClass: 2
Flags: W
LayerCount: 2
Fore
SplineSet
673 -9 m 128,-1,1
 544 -9 544 -9 441 34 c 128,-1,2
 338 77 338 77 274 150 c 0,3,4
 142 300.5625 142 300.5625 142 514 c 128,-1,5
 142 727.4375 142 727.4375 274 878 c 0,6,7
 338 951 338 951 441 994 c 128,-1,8
 544 1037 544 1037 673 1037 c 128,-1,9
 802 1037 802 1037 904.5 994 c 128,-1,10
 1007 951 1007 951 1071.5 878 c 128,-1,11
 1136 805 1136 805 1169.5 712 c 128,-1,12
 1203 619 1203 619 1203 514 c 128,-1,13
 1203 409 1203 409 1169.5 316 c 128,-1,14
 1136 223 1136 223 1071.5 150 c 128,-1,15
 1007 77 1007 77 904.5 34 c 128,-1,0
 802 -9 802 -9 673 -9 c 128,-1,1
675 108 m 1,16,17
 759 108 759 108 827.5 132 c 128,-1,18
 896 156 896 156 941 195.5 c 128,-1,19
 986 235 986 235 1016.5 288.5 c 0,20,21
 1073 387.606557377 1073 387.606557377 1073 487.803278689 c 128,-1,22
 1073 588 1073 588 1051 657.5 c 128,-1,23
 1029 727 1029 727 983.5 786 c 128,-1,24
 938 845 938 845 858.5 880.5 c 128,-1,25
 779 916 779 916 675 916 c 128,-1,26
 571 916 571 916 491.5 880.5 c 128,-1,27
 412 845 412 845 366.5 786 c 0,28,29
 277 669.945054945 277 669.945054945 277 511 c 0,30,31
 277 311.366666667 277 311.366666667 409 195.5 c 0,32,33
 508.683544304 108 508.683544304 108 675 108 c 1,16,17
EndSplineSet
EndChar

StartChar: plusminus
Encoding: 177 177 114
Width: 1217
GlyphClass: 2
Flags: W
LayerCount: 2
Fore
SplineSet
570 224 m 2,0,1
 539 224 539 224 526.5 240.5 c 128,-1,2
 514 257 514 257 514 291 c 2,3,-1
 514 565 l 2,4,5
 514 602 514 602 487 602 c 2,6,-1
 186 602 l 2,7,8
 154 602 154 602 141.5 614.5 c 128,-1,9
 129 627 129 627 129 659 c 2,10,-1
 129 718 l 2,11,12
 129 750 129 750 141.5 762 c 128,-1,13
 154 774 154 774 186 774 c 2,14,-1
 487 774 l 2,15,16
 514 774 514 774 514 810 c 2,17,-1
 514 1096 l 2,18,19
 514 1130 514 1130 526.5 1146.5 c 128,-1,20
 539 1163 539 1163 570 1163 c 2,21,-1
 646 1163 l 2,22,23
 677 1163 677 1163 689.5 1146.5 c 128,-1,24
 702 1130 702 1130 702 1096 c 2,25,-1
 702 810 l 2,26,27
 702 774 702 774 729 774 c 2,28,-1
 1031 774 l 2,29,30
 1063 774 1063 774 1075 762 c 128,-1,31
 1087 750 1087 750 1087 718 c 2,32,-1
 1087 659 l 2,33,34
 1087 627 1087 627 1075 614.5 c 128,-1,35
 1063 602 1063 602 1031 602 c 2,36,-1
 729 602 l 2,37,38
 702 602 702 602 702 565 c 2,39,-1
 702 291 l 2,40,41
 702 257 702 257 689.5 240.5 c 128,-1,42
 677 224 677 224 646 224 c 2,43,-1
 570 224 l 2,0,1
1115 31 m 2,44,45
 1115 -36 1115 -36 1048 -36 c 2,46,-1
 158 -36 l 2,47,48
 91 -36 91 -36 91 31 c 2,49,-1
 91 78 l 2,50,51
 91 145 91 145 158 145 c 2,52,-1
 1048 145 l 2,53,54
 1115 145 1115 145 1115 78 c 2,55,-1
 1115 31 l 2,44,45
EndSplineSet
EndChar

StartChar: uni00B2
Encoding: 178 178 115
Width: 1461
GlyphClass: 2
Flags: W
LayerCount: 2
Fore
SplineSet
312 563 m 1,0,1
 312 537 312 537 345 537 c 2,2,-1
 1283 537 l 2,3,4
 1306.72727273 537 1306.72727273 537 1310.36363636 527 c 0,5,6
 1315 514.25 1315 514.25 1315 495 c 2,7,-1
 1315 455 l 2,8,9
 1315 427.461538462 1315 427.461538462 1304.5 424.230769231 c 128,-1,10
 1294 421 1294 421 1279 421 c 2,11,-1
 172 421 l 2,12,13
 122 421 122 421 122 486 c 0,14,15
 122 596.4 122 596.4 207 720.5 c 0,16,17
 245.475433526 776.674132948 245.475433526 776.674132948 345 838.5 c 0,18,19
 456.13345438 907.537448933 456.13345438 907.537448933 706.5 934.5 c 0,20,21
 739 938 739 938 804 944.5 c 128,-1,22
 869 951 869 951 903 955.5 c 128,-1,23
 937 960 937 960 991.5 969.5 c 128,-1,24
 1046 979 1046 979 1073 991.5 c 128,-1,25
 1100 1004 1100 1004 1130 1024 c 0,26,27
 1185 1060.66666667 1185 1060.66666667 1185 1139 c 0,28,29
 1185 1249 1185 1249 1081 1302 c 128,-1,30
 977 1355 977 1355 750 1355 c 0,31,32
 632 1355 632 1355 504.5 1332.5 c 128,-1,33
 377 1310 377 1310 307.5 1289 c 0,34,35
 234 1266.79136691 234 1266.79136691 234 1262.89568345 c 128,-1,36
 234 1259 234 1259 227 1259 c 0,37,38
 192 1259 192 1259 188 1283 c 1,39,40
 166 1331 166 1331 166 1337 c 0,41,42
 167 1370 167 1370 194 1383 c 1,43,44
 467.212121212 1475 467.212121212 1475 740 1475 c 0,45,46
 1183.8030303 1475 1183.8030303 1475 1295 1296 c 0,47,48
 1336 1230 1336 1230 1336 1162 c 128,-1,49
 1336 1094 1336 1094 1326.5 1058.5 c 128,-1,50
 1317 1023 1317 1023 1303 996 c 128,-1,51
 1289 969 1289 969 1262 946 c 128,-1,52
 1235 923 1235 923 1212.5 908 c 128,-1,53
 1190 893 1190 893 1149 880 c 128,-1,54
 1108 867 1108 867 1080.5 859.5 c 128,-1,55
 1053 852 1053 852 1002 844.5 c 0,56,57
 928.631578947 833.710526316 928.631578947 833.710526316 849.815789474 825.355263158 c 128,-1,58
 771 817 771 817 737 813 c 128,-1,59
 703 809 703 809 643 798.5 c 128,-1,60
 583 788 583 788 549 777 c 128,-1,61
 515 766 515 766 470 746.5 c 128,-1,62
 425 727 425 727 398.5 702.5 c 0,63,64
 331.355828221 640.423312883 331.355828221 640.423312883 312 563 c 1,0,1
EndSplineSet
EndChar

StartChar: uni00B3
Encoding: 179 179 116
Width: 1472
GlyphClass: 2
Flags: W
LayerCount: 2
Fore
SplineSet
1071 1316 m 128,-1,1
 1160 1277 1160 1277 1160 1181 c 0,2,3
 1160 1006 1160 1006 835 1006 c 2,4,-1
 667 1006 l 2,5,6
 644 1006 644 1006 644 975 c 2,7,-1
 644 917 l 2,8,9
 644 887 644 887 667 887 c 2,10,-1
 835 887 l 2,11,12
 1098 887 1098 887 1158.5 777 c 0,13,14
 1175 747 1175 747 1175 722 c 128,-1,15
 1175 697 1175 697 1174 690 c 0,16,17
 1151 523 1151 523 762 523 c 0,18,19
 583 523 583 523 353 563 c 0,20,21
 307 571 307 571 276.5 576 c 128,-1,22
 246 581 246 581 219 586 c 2,23,-1
 192 592 l 2,24,25
 180 594 180 594 176 594 c 0,26,27
 148 594 148 594 145 563 c 2,28,-1
 142 524 l 2,29,30
 141 520 141 520 141 514 c 0,31,32
 141 484 141 484 191.5 470 c 128,-1,33
 242 456 242 456 449 429 c 128,-1,34
 656 402 656 402 755 402 c 0,35,36
 1327 402 1327 402 1327 704 c 0,37,38
 1327 799 1327 799 1263.5 864.5 c 128,-1,39
 1200 930 1200 930 1090 943 c 1,40,41
 1195 954 1195 954 1252.5 1016 c 128,-1,42
 1310 1078 1310 1078 1310 1174 c 0,43,44
 1310 1347.7008547 1310 1347.7008547 1151.5 1419.5 c 0,45,46
 1024.56603774 1477 1024.56603774 1477 779 1477 c 0,47,48
 659 1477 659 1477 452.5 1449 c 128,-1,49
 246 1421 246 1421 179 1401 c 1,50,51
 141 1391 141 1391 141 1361 c 0,52,53
 141 1355 141 1355 142 1352 c 2,54,-1
 149 1314 l 1,55,56
 153 1283 153 1283 185 1283 c 0,57,58
 196 1283 196 1283 202 1285 c 2,59,-1
 236 1292 l 2,60,61
 542 1355 542 1355 762 1355 c 128,-1,0
 982 1355 982 1355 1071 1316 c 128,-1,1
EndSplineSet
EndChar

StartChar: acute
Encoding: 180 180 117
Width: 1745
GlyphClass: 2
Flags: W
LayerCount: 2
Fore
SplineSet
850 1166 m 2,0,1
 834 1166 834 1166 834 1187 c 128,-1,2
 834 1208 834 1208 841 1233 c 1,3,-1
 904 1542 l 2,4,5
 910 1574 910 1574 923 1585.5 c 128,-1,6
 936 1597 936 1597 969 1597 c 2,7,-1
 1132 1597 l 2,8,9
 1160 1597 1160 1597 1160 1569 c 0,10,11
 1160 1553 1160 1553 1148 1532 c 1,12,-1
 924 1205 l 2,13,14
 902 1172 902 1172 893 1169 c 128,-1,15
 884 1166 884 1166 876 1166 c 2,16,-1
 850 1166 l 2,0,1
EndSplineSet
EndChar

StartChar: uni00B5
Encoding: 181 181 118
Width: 1537
GlyphClass: 2
Flags: W
LayerCount: 2
Fore
SplineSet
220 -299 m 2,0,1
 152 -299 152 -299 152 -232 c 2,2,-1
 152 939 l 2,3,4
 152 1006 152 1006 219 1006 c 2,5,-1
 304 1006 l 2,6,7
 371 1006 371 1006 371 939 c 2,8,-1
 371 397 l 2,9,10
 371 232.821052632 371 232.821052632 469.5 167.5 c 0,11,12
 557.714285714 109 557.714285714 109 680.357142857 109 c 129,-1,13
 803 109 803 109 911.5 152.5 c 128,-1,14
 1020 196 1020 196 1094 264.5 c 128,-1,15
 1168 333 1168 333 1168 397 c 2,16,-1
 1168 939 l 2,17,18
 1168 1006 1168 1006 1233 1006 c 2,19,-1
 1320 1006 l 2,20,21
 1387 1006 1387 1006 1387 939 c 2,22,-1
 1387 77 l 2,23,24
 1387 0 1387 0 1330 0 c 2,25,-1
 1313 0 l 2,26,27
 1277 0 1277 0 1258.5 14 c 128,-1,28
 1240 28 1240 28 1232 64 c 2,29,-1
 1207 183 l 1,30,31
 1199 196 1199 196 1192 196 c 128,-1,32
 1185 196 1185 196 1172 181 c 0,33,34
 990.769230769 -47 990.769230769 -47 666 -47 c 0,35,36
 573 -47 573 -47 491 -23 c 128,-1,37
 409 1 409 1 372 50 c 1,38,-1
 372 -232 l 2,39,40
 372 -299 372 -299 313 -299 c 2,41,-1
 220 -299 l 2,0,1
EndSplineSet
EndChar

StartChar: paragraph
Encoding: 182 182 119
Width: 1256
GlyphClass: 2
Flags: W
LayerCount: 2
Fore
SplineSet
908 813 m 2,0,1
 908 834 908 834 889 834 c 2,2,-1
 716 834 l 1,3,-1
 716 76 l 2,4,5
 716 -1 716 -1 660 -1 c 2,6,-1
 584 -1 l 2,7,8
 528 -1 528 -1 528 76 c 2,9,-1
 528 834 l 1,10,-1
 508 834 l 2,11,12
 119 834 119 834 119 1137 c 0,13,14
 119 1366.09375 119 1366.09375 377 1418.5 c 0,15,16
 473 1438 473 1438 681.5 1438 c 128,-1,17
 890 1438 890 1438 1031 1416 c 0,18,19
 1097 1405 1097 1405 1097 1338 c 2,20,-1
 1097 76 l 2,21,22
 1097 -1 1097 -1 1041 -1 c 2,23,-1
 965 -1 l 2,24,25
 908 -1 908 -1 908 76 c 2,26,-1
 908 813 l 2,0,1
EndSplineSet
EndChar

StartChar: periodcentered
Encoding: 183 183 120
Width: 543
GlyphClass: 2
Flags: W
LayerCount: 2
Fore
SplineSet
204 0 m 2,0,1
 172 0 172 0 149.5 22.5 c 128,-1,2
 127 45 127 45 127 77 c 2,3,-1
 127 220 l 2,4,5
 127 252 127 252 149.5 274.5 c 128,-1,6
 172 297 172 297 204 297 c 2,7,-1
 339 297 l 2,8,9
 371 297 371 297 393.5 274.5 c 128,-1,10
 416 252 416 252 416 220 c 2,11,-1
 416 77 l 2,12,13
 416 45 416 45 393.5 22.5 c 128,-1,14
 371 0 371 0 339 0 c 2,15,-1
 204 0 l 2,0,1
EndSplineSet
EndChar

StartChar: cedilla
Encoding: 184 184 121
Width: 716
GlyphClass: 2
Flags: W
LayerCount: 2
Fore
SplineSet
410 -394 m 0,0,1
 483 -394 483 -394 483 -243 c 0,2,3
 483 -183 483 -183 460.5 -136.5 c 128,-1,4
 438 -90 438 -90 402 -90 c 2,5,-1
 363 -90 l 1,6,7
 347 -91 347 -91 347 -80 c 2,8,-1
 347 -9 l 2,9,10
 347 8 347 8 363 8 c 2,11,-1
 438 8 l 2,12,13
 517 8 517 8 568 -56 c 128,-1,14
 619 -120 619 -120 619 -206 c 0,15,16
 619 -478 619 -478 403 -478 c 0,17,18
 316 -478 316 -478 257.5 -429 c 128,-1,19
 199 -380 199 -380 199 -294.5 c 128,-1,20
 199 -209 199 -209 249 -209 c 2,21,-1
 312 -209 l 2,22,23
 342 -209 342 -209 342 -244 c 1,24,-1
 338 -298 l 1,25,26
 338 -340 338 -340 356 -367 c 128,-1,27
 374 -394 374 -394 410 -394 c 0,0,1
EndSplineSet
EndChar

StartChar: uni00B9
Encoding: 185 185 122
Width: 714
GlyphClass: 2
Flags: W
LayerCount: 2
Fore
SplineSet
571 1417 m 2,0,-1
 570 1391 l 1,1,-1
 568 480 l 2,2,3
 568 461 568 461 557.5 447.5 c 128,-1,4
 547 434 547 434 528 434 c 2,5,-1
 429 434 l 2,6,7
 407 434 407 434 400.5 445 c 128,-1,8
 394 456 394 456 394 483 c 2,9,-1
 394 1281 l 1,10,11
 393 1282 393 1282 394 1289 c 128,-1,12
 395 1296 395 1296 388.5 1304.5 c 128,-1,13
 382 1313 382 1313 368 1313 c 1,14,-1
 169 1290 l 1,15,16
 128 1290 128 1290 128 1340 c 1,17,-1
 130 1363 l 1,18,19
 130 1408 130 1408 179 1408 c 2,20,-1
 180 1408 l 1,21,-1
 546 1443 l 1,22,23
 571 1443 571 1443 571 1417 c 2,0,-1
EndSplineSet
EndChar

StartChar: ordmasculine
Encoding: 186 186 123
Width: 1628
GlyphClass: 2
Flags: W
LayerCount: 2
Fore
SplineSet
754.5 560.5 m 128,-1,1
 676 545 676 545 597.5 545 c 128,-1,2
 519 545 519 545 439.5 560.5 c 128,-1,3
 360 576 360 576 281.5 611.5 c 128,-1,4
 203 647 203 647 143 699 c 128,-1,5
 83 751 83 751 45.5 831 c 128,-1,6
 8 911 8 911 8 1009.5 c 128,-1,7
 8 1108 8 1108 43 1188.5 c 128,-1,8
 78 1269 78 1269 135 1321.5 c 128,-1,9
 192 1374 192 1374 269.5 1409 c 0,10,11
 413.428571429 1474 413.428571429 1474 598 1474 c 0,12,13
 890.428571429 1474 890.428571429 1474 1056 1321.5 c 0,14,15
 1183 1204.52631579 1183 1204.52631579 1183 1008 c 0,16,17
 1183 912 1183 912 1146 832 c 128,-1,18
 1109 752 1109 752 1049 700 c 128,-1,19
 989 648 989 648 911 612 c 128,-1,0
 833 576 833 576 754.5 560.5 c 128,-1,1
597 672 m 1,20,21
 769 672 769 672 882.5 760 c 128,-1,22
 996 848 996 848 996 1008 c 0,23,24
 996 1184.57017544 996 1184.57017544 872 1270.5 c 0,25,26
 760.164556962 1348 760.164556962 1348 597 1348 c 0,27,28
 432.772151899 1348 432.772151899 1348 318.5 1269.5 c 0,29,30
 194 1183.97391304 194 1183.97391304 194 1008 c 0,31,32
 194 902 194 902 249 824.5 c 0,33,34
 357.225806452 672 357.225806452 672 597 672 c 1,20,21
EndSplineSet
EndChar

StartChar: guillemotright
Encoding: 187 187 124
Width: 1352
GlyphClass: 2
Flags: W
LayerCount: 2
Fore
SplineSet
700 1148 m 1,0,-1
 719 1144 l 1,1,-1
 1170 802 l 2,2,3
 1210 772 1210 772 1219.5 756.5 c 128,-1,4
 1229 741 1229 741 1229 720 c 2,5,-1
 1229 664 l 2,6,7
 1229 641.666666667 1229 641.666666667 1221.5 630.833333333 c 128,-1,8
 1214 620 1214 620 1212 617 c 128,-1,9
 1210 614 1210 614 1202 607.5 c 128,-1,10
 1194 601 1194 601 1192.5 599.5 c 0,11,12
 1181 588 1181 588 1169 582 c 1,13,-1
 720 255 l 1,14,15
 708 251 708 251 696.5 251 c 128,-1,16
 685 251 685 251 673 262.5 c 128,-1,17
 661 274 661 274 661 292 c 2,18,-1
 661 366 l 2,19,20
 661 395.807692308 661 395.807692308 677.5 410.403846154 c 0,21,22
 697.058823529 427.705882353 697.058823529 427.705882353 723 445 c 1,23,-1
 1043 677 l 2,24,25
 1052 683 1052 683 1052 690.5 c 128,-1,26
 1052 698 1052 698 1043 704 c 2,27,-1
 723 939 l 1,28,29
 661 972.818181818 661 972.818181818 661 1018 c 2,30,-1
 661 1107 l 2,31,32
 661 1125 661 1125 672.5 1136.5 c 128,-1,33
 684 1148 684 1148 700 1148 c 1,0,-1
184 1148 m 1,34,-1
 202 1144 l 1,35,-1
 653 802 l 2,36,37
 655 800 655 800 662 795 c 128,-1,38
 669 790 669 790 671.5 788 c 128,-1,39
 674 786 674 786 680 781.5 c 128,-1,40
 686 777 686 777 688 774.5 c 128,-1,41
 690 772 690 772 694.5 767.5 c 128,-1,42
 699 763 699 763 701 759.5 c 128,-1,43
 703 756 703 756 706 751 c 128,-1,44
 709 746 709 746 710 741.5 c 0,45,46
 713 728 713 728 713 720 c 2,47,-1
 713 664 l 2,48,49
 713 646.25 713 646.25 707.5 636.625 c 128,-1,50
 702 627 702 627 699.5 622.5 c 128,-1,51
 697 618 697 618 689.5 611.5 c 128,-1,52
 682 605 682 605 679 602.5 c 0,53,54
 660 586.666666667 660 586.666666667 653 582 c 2,55,-1
 203 255 l 1,56,57
 193 251 193 251 180.5 251 c 128,-1,58
 168 251 168 251 156 263 c 128,-1,59
 144 275 144 275 144 292 c 2,60,-1
 144 366 l 2,61,62
 144 400.444444444 144 400.444444444 173 423 c 0,63,64
 182 430 182 430 206 445 c 1,65,-1
 527 677 l 2,66,67
 536 683 536 683 536 690 c 128,-1,68
 536 697 536 697 527 704 c 2,69,-1
 206 939 l 1,70,71
 144 972.818181818 144 972.818181818 144 1018 c 2,72,-1
 144 1107 l 2,73,74
 144 1125 144 1125 156 1136.5 c 128,-1,75
 168 1148 168 1148 184 1148 c 1,34,-1
EndSplineSet
EndChar

StartChar: onequarter
Encoding: 188 188 125
Width: 3032
GlyphClass: 2
Flags: W
LayerCount: 2
Fore
SplineSet
758 -205 m 2,0,1
 741 -205 741 -205 741 -187 c 0,2,3
 741 -178 741 -178 745 -171 c 2,4,-1
 1641 1618 l 2,5,6
 1642 1620 1642 1620 1644 1624.5 c 128,-1,7
 1646 1629 1646 1629 1647 1630 c 128,-1,8
 1648 1631 1648 1631 1649.5 1634.5 c 128,-1,9
 1651 1638 1651 1638 1652.5 1639 c 128,-1,10
 1654 1640 1654 1640 1656 1642 c 128,-1,11
 1658 1644 1658 1644 1660 1644.5 c 128,-1,12
 1662 1645 1662 1645 1665 1646 c 0,13,14
 1671 1648 1671 1648 1680 1648 c 2,15,-1
 1812 1648 l 2,16,17
 1829 1648 1829 1648 1829 1629 c 0,18,19
 1829 1620 1829 1620 1826 1613 c 2,20,-1
 940 -170 l 2,21,22
 927 -195 927 -195 919 -200 c 128,-1,23
 911 -205 911 -205 890 -205 c 2,24,-1
 758 -205 l 2,0,1
2093 332 m 2,25,26
 2093 313.625 2093 313.625 2112 316 c 1,27,-1
 2520 315 l 1,28,-1
 2520 959 l 2,29,30
 2520 1006 2520 1006 2567 1006 c 2,31,-1
 2646 1006 l 2,32,33
 2693 1006 2693 1006 2693 959 c 2,34,-1
 2693 315 l 1,35,-1
 2872 315 l 2,36,37
 2918 315 2918 315 2918 269 c 2,38,-1
 2918 248 l 2,39,40
 2918 201 2918 201 2872 201 c 2,41,-1
 2693 201 l 1,42,-1
 2693 50 l 2,43,44
 2693 3 2693 3 2646 3 c 2,45,-1
 2566 3 l 2,46,47
 2520 3 2520 3 2520 50 c 2,48,-1
 2520 201 l 1,49,-1
 1937 199 l 2,50,51
 1917 199 1917 199 1902.5 208.5 c 128,-1,52
 1888 218 1888 218 1888 229.5 c 128,-1,53
 1888 241 1888 241 1890 246 c 2,54,-1
 2115 958 l 1,55,56
 2126.64853556 991.0041841 2126.64853556 991.0041841 2136.82426778 998.50209205 c 128,-1,57
 2147 1006 2147 1006 2161 1006 c 2,58,-1
 2237 1006 l 2,59,60
 2257 1006 2257 1006 2271.5 996 c 128,-1,61
 2286 986 2286 986 2286 976.5 c 128,-1,62
 2286 967 2286 967 2284 959 c 2,63,-1
 2093 339 l 1,64,-1
 2093 332 l 2,25,26
541 1417 m 2,65,-1
 540 1391 l 1,66,-1
 538 480 l 2,67,68
 538 461 538 461 527.5 447.5 c 128,-1,69
 517 434 517 434 498 434 c 2,70,-1
 399 434 l 2,71,72
 377 434 377 434 370.5 445 c 128,-1,73
 364 456 364 456 364 483 c 2,74,-1
 364 1281 l 1,75,76
 363 1282 363 1282 364 1289 c 128,-1,77
 365 1296 365 1296 358.5 1304.5 c 128,-1,78
 352 1313 352 1313 338 1313 c 1,79,-1
 139 1290 l 1,80,81
 98 1290 98 1290 98 1340 c 1,82,-1
 100 1363 l 1,83,84
 100 1408 100 1408 149 1408 c 2,85,-1
 150 1408 l 1,86,-1
 516 1443 l 1,87,88
 541 1443 541 1443 541 1417 c 2,65,-1
EndSplineSet
EndChar

StartChar: onehalf
Encoding: 189 189 126
Width: 3418
GlyphClass: 2
Flags: W
LayerCount: 2
Fore
SplineSet
581 1417 m 2,0,-1
 580 1391 l 1,1,-1
 578 480 l 2,2,3
 578 461 578 461 567.5 447.5 c 128,-1,4
 557 434 557 434 538 434 c 2,5,-1
 439 434 l 2,6,7
 417 434 417 434 410.5 445 c 128,-1,8
 404 456 404 456 404 483 c 2,9,-1
 404 1281 l 1,10,11
 403 1282 403 1282 404 1289 c 128,-1,12
 405 1296 405 1296 398.5 1304.5 c 128,-1,13
 392 1313 392 1313 378 1313 c 1,14,-1
 179 1290 l 1,15,16
 138 1290 138 1290 138 1340 c 1,17,-1
 140 1363 l 1,18,19
 140 1408 140 1408 189 1408 c 2,20,-1
 190 1408 l 1,21,-1
 556 1443 l 1,22,23
 581 1443 581 1443 581 1417 c 2,0,-1
927 -205 m 2,24,25
 914 -205 914 -205 910.5 -194 c 0,26,27
 909.333333333 -190.333333333 909.333333333 -190.333333333 909.333333333 -186.555555556 c 0,28,29
 909.333333333 -179 909.333333333 -179 914 -171 c 2,30,-1
 1809 1618 l 2,31,32
 1815 1629 1815 1629 1816 1631.5 c 128,-1,33
 1817 1634 1817 1634 1822 1640 c 0,34,35
 1828.66666667 1648 1828.66666667 1648 1849 1648 c 2,36,-1
 1981 1648 l 2,37,38
 1998 1648 1998 1648 1998 1629 c 0,39,40
 1998 1620 1998 1620 1995 1613 c 2,41,-1
 1109 -170 l 2,42,43
 1096 -195 1096 -195 1088 -200 c 128,-1,44
 1080 -205 1080 -205 1059 -205 c 2,45,-1
 927 -205 l 2,24,25
2075 0 m 2,46,47
 2025 0 2025 0 2025 65 c 0,48,49
 2025 86 2025 86 2029 109 c 0,50,51
 2070.40637284 306.173203981 2070.40637284 306.173203981 2219.5 396.5 c 0,52,53
 2353.4074768 477.626427552 2353.4074768 477.626427552 2540.5 502.5 c 0,54,55
 2627 514 2627 514 2712 522 c 128,-1,56
 2797 530 2797 530 2872 540 c 128,-1,57
 2947 550 2947 550 3004 568.5 c 0,58,59
 3128 608.745614035 3128 608.745614035 3128 718.372807018 c 128,-1,60
 3128 828 3128 828 3014.5 881 c 128,-1,61
 2901 934 2901 934 2653 934 c 0,62,63
 2535 934 2535 934 2407.5 911.5 c 128,-1,64
 2280 889 2280 889 2210.5 868 c 128,-1,65
 2141 847 2141 847 2136.5 843 c 128,-1,66
 2132 839 2132 839 2130 839 c 0,67,68
 2095 839 2095 839 2091 862 c 1,69,70
 2069 910 2069 910 2069 916 c 0,71,72
 2070 950 2070 950 2097 963 c 1,73,74
 2370 1054 2370 1054 2643 1054 c 0,75,76
 3117.52272727 1054 3117.52272727 1054 3235.5 875 c 0,77,78
 3279 809 3279 809 3279 722.5 c 128,-1,79
 3279 636 3279 636 3246.5 579.5 c 128,-1,80
 3214 523 3214 523 3158 492 c 128,-1,81
 3102 461 3102 461 3029.5 442.5 c 128,-1,82
 2957 424 2957 424 2874 415 c 128,-1,83
 2791 406 2791 406 2707 398 c 128,-1,84
 2623 390 2623 390 2543 375 c 128,-1,85
 2463 360 2463 360 2397 335 c 0,86,87
 2252.22991556 280.162846803 2252.22991556 280.162846803 2215 143 c 1,88,89
 2215 116 2215 116 2248 116 c 2,90,-1
 3186 116 l 2,91,92
 3207 116 3207 116 3212.5 107.5 c 128,-1,93
 3218 99 3218 99 3218 75 c 2,94,-1
 3218 35 l 2,95,96
 3218 12 3218 12 3211 6 c 128,-1,97
 3204 0 3204 0 3182 0 c 2,98,-1
 2075 0 l 2,46,47
EndSplineSet
EndChar

StartChar: threequarters
Encoding: 190 190 127
Width: 3635
GlyphClass: 2
Flags: W
LayerCount: 2
Fore
SplineSet
1071 1317 m 128,-1,1
 1160 1278 1160 1278 1160 1182 c 0,2,3
 1160 1007 1160 1007 835 1007 c 2,4,-1
 667 1007 l 2,5,6
 644 1007 644 1007 644 976 c 2,7,-1
 644 918 l 2,8,9
 644 888 644 888 667 888 c 2,10,-1
 835 888 l 2,11,12
 1098 888 1098 888 1158.5 778 c 0,13,14
 1175 748 1175 748 1175 723 c 128,-1,15
 1175 698 1175 698 1174 691 c 0,16,17
 1151 524 1151 524 762 524 c 0,18,19
 583 524 583 524 353 564 c 0,20,21
 307 572 307 572 276.5 577 c 128,-1,22
 246 582 246 582 219 588 c 2,23,-1
 192 593 l 2,24,25
 180 595 180 595 176 595 c 0,26,27
 148 595 148 595 145 564 c 2,28,-1
 142 525 l 2,29,30
 141 521 141 521 141 515 c 0,31,32
 141 485 141 485 191.5 471 c 128,-1,33
 242 457 242 457 449 430 c 128,-1,34
 656 403 656 403 755 403 c 0,35,36
 1327 403 1327 403 1327 705 c 0,37,38
 1327 800 1327 800 1263.5 865.5 c 128,-1,39
 1200 931 1200 931 1090 944 c 1,40,41
 1195 955 1195 955 1252.5 1017 c 128,-1,42
 1310 1079 1310 1079 1310 1175 c 0,43,44
 1310 1348.7008547 1310 1348.7008547 1151.5 1420.5 c 0,45,46
 1024.56603774 1478 1024.56603774 1478 779 1478 c 0,47,48
 659 1478 659 1478 452.5 1450 c 128,-1,49
 246 1422 246 1422 179 1402 c 1,50,51
 141 1392 141 1392 141 1362 c 0,52,53
 141 1356 141 1356 142 1353 c 2,54,-1
 149 1315 l 1,55,56
 153 1284 153 1284 185 1284 c 0,57,58
 196 1284 196 1284 202 1286 c 2,59,-1
 236 1293 l 2,60,61
 542 1356 542 1356 762 1356 c 128,-1,0
 982 1356 982 1356 1071 1317 c 128,-1,1
3041 3 m 2,62,-1
 3099 3 l 2,63,64
 3146 3 3146 3 3146 50 c 2,65,-1
 3146 201 l 1,66,-1
 3325 201 l 2,67,68
 3371 201 3371 201 3371 248 c 2,69,-1
 3371 269 l 2,70,71
 3371 316 3371 316 3325 316 c 2,72,-1
 3146 316 l 1,73,-1
 3146 960 l 2,74,75
 3146 1007 3146 1007 3099 1007 c 2,76,-1
 3041 1007 l 2,77,78
 2994 1007 2994 1007 2994 960 c 2,79,-1
 2994 316 l 1,80,-1
 2587 316 l 2,81,82
 2567 316 2567 316 2567 332 c 0,83,84
 2567 337 2567 337 2568 339 c 2,85,-1
 2758 960 l 2,86,87
 2760 964 2760 964 2760 975.5 c 128,-1,88
 2760 987 2760 987 2745.5 997 c 128,-1,89
 2731 1007 2731 1007 2711 1007 c 2,90,-1
 2653 1007 l 2,91,92
 2632 1007 2632 1007 2623 996 c 128,-1,93
 2614 985 2614 985 2606 960 c 2,94,-1
 2381 248 l 2,95,96
 2379 244 2379 244 2379 232 c 128,-1,97
 2379 220 2379 220 2393.5 210.5 c 128,-1,98
 2408 201 2408 201 2428 201 c 2,99,-1
 2994 201 l 1,100,-1
 2994 50 l 2,101,102
 2994 3 2994 3 3041 3 c 2,62,-1
1525 -172 m 1,103,-1
 2429 1617 l 2,104,105
 2431.66666667 1621.88888889 2431.66666667 1621.88888889 2431.66666667 1626.48148148 c 0,106,107
 2431.66666667 1632.22222222 2431.66666667 1632.22222222 2427.5 1637.5 c 0,108,109
 2420 1647 2420 1647 2409 1647 c 2,110,-1
 2310 1647 l 2,111,112
 2274.76923077 1647 2274.76923077 1647 2260 1615 c 1,113,-1
 1358 -172 l 2,114,115
 1355.23076923 -177.538461538 1355.23076923 -177.538461538 1355.23076923 -182.75739645 c 0,116,117
 1355.23076923 -188.846153846 1355.23076923 -188.846153846 1359 -194.5 c 0,118,119
 1366 -205 1366 -205 1378 -205 c 2,120,-1
 1473 -205 l 2,121,122
 1511 -205 1511 -205 1525 -172 c 1,103,-1
EndSplineSet
EndChar

StartChar: AE
Encoding: 198 198 135
Width: 2128
GlyphClass: 2
Flags: W
LayerCount: 2
Fore
SplineSet
550 471 m 2,0,-1
 970 471 l 1,1,-1
 970 1317 l 1,2,-1
 951 1282 l 1,3,4
 908 1200 908 1200 739 867 c 0,5,6
 548 490.650887574 548 490.650887574 548 473 c 0,7,8
 548 471 548 471 550 471 c 2,0,-1
1170 172 m 1,9,10
 1181 161 1181 161 1183 155 c 1,11,-1
 1924 155 l 2,12,13
 1955 155 1955 155 1973 133.5 c 128,-1,14
 1991 112 1991 112 1991 79 c 2,15,-1
 1991 77 l 2,16,17
 1991 44 1991 44 1973 22 c 128,-1,18
 1955 0 1955 0 1924 0 c 2,19,-1
 1020 0 l 2,20,21
 954 0 954 0 954 67 c 2,22,-1
 954 342 l 1,23,-1
 485 342 l 1,24,-1
 476 336 l 1,25,-1
 342 67 l 1,26,27
 311 0 311 0 243 0 c 2,28,-1
 150 0 l 2,29,30
 105 0 105 0 105 32 c 0,31,32
 105 47 105 47 115 67 c 2,33,-1
 811 1371 l 1,34,35
 841 1433 841 1433 903 1438 c 1,36,-1
 1926 1438 l 2,37,38
 1957 1438 1957 1438 1975 1416 c 128,-1,39
 1993 1394 1993 1394 1993 1361 c 2,40,-1
 1993 1360 l 2,41,42
 1993 1327 1993 1327 1975 1305 c 128,-1,43
 1957 1283 1957 1283 1926 1283 c 2,44,-1
 1197 1283 l 2,45,46
 1182 1283 1182 1283 1176 1278 c 128,-1,47
 1170 1273 1170 1273 1170 1258 c 2,48,-1
 1170 848 l 1,49,-1
 1183 822 l 1,50,-1
 1814 822 l 2,51,52
 1845 822 1845 822 1862.5 800.5 c 128,-1,53
 1880 779 1880 779 1880 745 c 2,54,-1
 1880 742 l 2,55,56
 1880 708 1880 708 1862.5 686.5 c 128,-1,57
 1845 665 1845 665 1814 665 c 2,58,-1
 1189 665 l 1,59,-1
 1170 648 l 1,60,-1
 1170 172 l 1,9,10
EndSplineSet
EndChar

StartChar: Eth
Encoding: 208 208 145
Width: 2208
GlyphClass: 2
Flags: W
LayerCount: 2
Fore
SplineSet
1 764 m 2,0,1
 1 831 1 831 58 831 c 2,2,-1
 160 831 l 1,3,-1
 160 1371 l 2,4,5
 160 1438 160 1438 227 1438 c 2,6,-1
 1134 1438 l 2,7,8
 1903.855 1438 1903.855 1438 2045.5 941 c 0,9,10
 2074 841 2074 841 2074 716.5 c 128,-1,11
 2074 592 2074 592 2045.5 487 c 128,-1,12
 2017 382 2017 382 1969 308 c 128,-1,13
 1921 234 1921 234 1848.5 178.5 c 128,-1,14
 1776 123 1776 123 1698 89.5 c 128,-1,15
 1620 56 1620 56 1522 35.5 c 0,16,17
 1352.29268293 -8.881784197e-15 1352.29268293 -8.881784197e-15 1137 0 c 2,18,-1
 227 0 l 2,19,20
 160 0 160 0 160 67 c 2,21,-1
 160 677 l 1,22,-1
 58 677 l 2,23,24
 1 677 1 677 1 744 c 2,25,-1
 1 764 l 2,0,1
375 176 m 1,26,-1
 402 155 l 1,27,-1
 1141 155 l 2,28,29
 1440.32692308 155 1440.32692308 155 1588.5 222 c 0,30,31
 1722.58208806 282.628422425 1722.58208806 282.628422425 1785.5 392.5 c 0,32,33
 1858 519.104477612 1858 519.104477612 1858 721 c 0,34,35
 1858 1075.19672131 1858 1075.19672131 1568.5 1206.5 c 0,36,37
 1399.8313253 1283 1399.8313253 1283 1140 1283 c 2,38,-1
 396 1283 l 1,39,40
 387 1274 387 1274 375 1266 c 1,41,-1
 375 831 l 1,42,-1
 740 831 l 2,43,44
 771 831 771 831 783.5 814.5 c 128,-1,45
 796 798 796 798 796 764 c 2,46,-1
 796 744 l 2,47,48
 796 710 796 710 783.5 693.5 c 128,-1,49
 771 677 771 677 740 677 c 2,50,-1
 375 677 l 1,51,-1
 375 176 l 1,26,-1
EndSplineSet
EndChar

StartChar: multiply
Encoding: 215 215 152
Width: 1116
GlyphClass: 2
Flags: W
LayerCount: 2
Fore
SplineSet
310.5 274.5 m 0,0,1
 295 259 295 259 263.5 259 c 128,-1,2
 232 259 232 259 209 282 c 2,3,-1
 167 326 l 2,4,5
 145 349 145 349 145 381 c 128,-1,6
 145 413 145 413 167 435 c 2,7,-1
 200 468 l 1,8,9
 299 570 299 570 408 679 c 1,10,11
 310.565217391 774.630434783 310.565217391 774.630434783 238.282608696 843.815217391 c 128,-1,12
 166 913 166 913 151 928 c 128,-1,13
 136 943 136 943 136 974.5 c 128,-1,14
 136 1006 136 1006 159 1029 c 2,15,-1
 203 1071 l 2,16,17
 226 1093 226 1093 258.5 1093 c 128,-1,18
 291 1093 291 1093 312 1071 c 1,19,-1
 346 1038 l 1,20,21
 441 943 441 943 557 829 c 1,22,23
 612 885 612 885 674 947.5 c 128,-1,24
 736 1010 736 1010 768 1043 c 128,-1,25
 800 1076 800 1076 803 1079 c 0,26,27
 826 1102 826 1102 858 1102 c 128,-1,28
 890 1102 890 1102 912 1079 c 2,29,-1
 948 1042 l 2,30,31
 971 1019 971 1019 971 988 c 128,-1,32
 971 957 971 957 954.5 940 c 128,-1,33
 938 923 938 923 706 682 c 1,34,35
 909 482 909 482 944 447.5 c 128,-1,36
 979 413 979 413 979 380.5 c 128,-1,37
 979 348 979 348 957 326 c 2,38,-1
 919 290 l 2,39,40
 896 267 896 267 865 267 c 128,-1,41
 834 267 834 267 817 283 c 128,-1,42
 800 299 800 299 560 532 c 1,43,44
 376 340 376 340 310.5 274.5 c 0,0,1
EndSplineSet
EndChar

StartChar: Oslash
Encoding: 216 216 153
Width: 2174
GlyphClass: 2
Flags: W
LayerCount: 2
Fore
SplineSet
952 126 m 1,0,1
 1007 121 1007 121 1110.5 121 c 128,-1,2
 1214 121 1214 121 1316.5 136 c 128,-1,3
 1419 151 1419 151 1517 191.5 c 128,-1,4
 1615 232 1615 232 1681 297.5 c 0,5,6
 1827 442.393939394 1827 442.393939394 1827 724 c 0,7,8
 1827 937 1827 937 1719.5 1072 c 128,-1,9
 1612 1207 1612 1207 1423 1266 c 1,10,-1
 952 126 l 1,0,1
785 150 m 1,11,-1
 1264 1301 l 1,12,13
 1166 1313 1166 1313 1064.5 1313 c 128,-1,14
 963 1313 963 1313 854.5 1292.5 c 128,-1,15
 746 1272 746 1272 652 1226.5 c 128,-1,16
 558 1181 558 1181 491 1113.5 c 0,17,18
 347 968.425373134 347 968.425373134 347 724 c 0,19,20
 347 249 347 249 785 150 c 1,11,-1
722 -4 m 1,21,22
 134 135.722772277 134 135.722772277 134 724 c 0,23,24
 134 889 134 889 190 1020.5 c 128,-1,25
 246 1152 246 1152 337.5 1235.5 c 128,-1,26
 429 1319 429 1319 555 1374.5 c 0,27,28
 783.162162162 1475 783.162162162 1475 1087 1475 c 0,29,30
 1216 1475 1216 1475 1329 1458 c 1,31,-1
 1389 1602 l 2,32,33
 1402 1635 1402 1635 1433 1635 c 2,34,-1
 1546 1635 l 2,35,36
 1556 1635 1556 1635 1562 1624 c 128,-1,37
 1568 1613 1568 1613 1563 1602 c 2,38,-1
 1489 1422 l 1,39,40
 1729.09727101 1353.97243988 1729.09727101 1353.97243988 1878 1192.5 c 0,41,42
 2040 1016.82467532 2040 1016.82467532 2040 724 c 0,43,44
 2040 355.848275862 2040 355.848275862 1809.5 163.5 c 0,45,46
 1564.43801653 -41 1564.43801653 -41 1087 -41 c 1,47,48
 982 -41 982 -41 886 -31 c 1,49,-1
 829 -169 l 2,50,51
 815.8 -202 815.8 -202 784 -202 c 2,52,-1
 671 -200 l 2,53,54
 660 -200 660 -200 654.5 -189 c 128,-1,55
 649 -178 649 -178 654 -167 c 2,56,-1
 722 -4 l 1,21,22
EndSplineSet
EndChar

StartChar: Thorn
Encoding: 222 222 159
Width: 1825
GlyphClass: 2
Flags: W
LayerCount: 2
Fore
SplineSet
392 1066 m 1,0,1
 381 1055 381 1055 375 1051 c 1,2,-1
 375 500 l 1,3,-1
 391 479 l 1,4,-1
 687 479 l 2,5,6
 988.875 479 988.875 479 1057.9375 485.5 c 128,-1,7
 1127 492 1127 492 1187 499.5 c 128,-1,8
 1247 507 1247 507 1279 519 c 128,-1,9
 1311 531 1311 531 1351.5 547.5 c 128,-1,10
 1392 564 1392 564 1412.5 587 c 128,-1,11
 1433 610 1433 610 1453.5 639.5 c 0,12,13
 1489 690.585365854 1489 690.585365854 1489 764.792682927 c 128,-1,14
 1489 839 1489 839 1473 879.5 c 128,-1,15
 1457 920 1457 920 1419 948 c 128,-1,16
 1381 976 1381 976 1342 997 c 128,-1,17
 1303 1018 1303 1018 1233 1030.5 c 128,-1,18
 1163 1043 1163 1043 1110 1050.5 c 128,-1,19
 1057 1058 1057 1058 962.5 1061.5 c 0,20,21
 841 1066 841 1066 639 1066 c 2,22,-1
 392 1066 l 1,0,1
394 306 m 1,23,24
 384.5 296.5 384.5 296.5 375 287 c 1,25,-1
 375 67 l 2,26,27
 375 0 375 0 308 0 c 2,28,-1
 227 0 l 2,29,30
 160 0 160 0 160 67 c 2,31,-1
 160 1371 l 2,32,33
 160 1438 160 1438 227 1438 c 2,34,-1
 308 1438 l 2,35,36
 375 1438 375 1438 375 1371 c 2,37,-1
 375 1222 l 1,38,-1
 634 1222 l 2,39,40
 980.5625 1222 980.5625 1222 1079.78125 1209.5 c 128,-1,41
 1179 1197 1179 1197 1265.5 1182 c 128,-1,42
 1352 1167 1352 1167 1407.5 1145.5 c 128,-1,43
 1463 1124 1463 1124 1523.5 1091 c 128,-1,44
 1584 1058 1584 1058 1618.5 1016 c 0,45,46
 1699 918 1699 918 1699 789 c 0,47,48
 1699 647.092592593 1699 647.092592593 1635 534.5 c 0,49,50
 1594.12754006 462.594746407 1594.12754006 462.594746407 1456.5 390 c 0,51,52
 1388.1150374 353.928810936 1388.1150374 353.928810936 1192.5 324.5 c 0,53,54
 1084.41304348 308.239130435 1084.41304348 308.239130435 946.706521739 307.119565217 c 128,-1,55
 809 306 809 306 694 306 c 2,56,-1
 394 306 l 1,23,24
EndSplineSet
EndChar

StartChar: germandbls
Encoding: 223 223 160
Width: 1706
GlyphClass: 2
Flags: W
LayerCount: 2
Fore
SplineSet
823 833 m 2,0,1
 1256 833 1256 833 1256 1042 c 0,2,3
 1256 1108 1256 1108 1234.5 1149.5 c 128,-1,4
 1213 1191 1213 1191 1153.5 1222.5 c 0,5,6
 1041.11111111 1282 1041.11111111 1282 708 1282 c 1,7,8
 530 1282 530 1282 450 1211.5 c 128,-1,9
 370 1141 370 1141 370 976 c 2,10,-1
 370 76 l 2,11,12
 370 0 370 0 302 0 c 2,13,-1
 213 0 l 2,14,15
 156 0 156 0 156 77 c 2,16,-1
 156 969 l 2,17,18
 156 1203.48780488 156 1203.48780488 258 1303 c 0,19,20
 396.375 1438 396.375 1438 726 1438 c 2,21,-1
 780 1438 l 2,22,23
 1116 1438 1116 1438 1282 1347 c 128,-1,24
 1448 1256 1448 1256 1448 1040 c 0,25,26
 1448 869 1448 869 1257 781 c 0,27,28
 1247 777 1247 777 1248 771 c 128,-1,29
 1249 765 1249 765 1260 762 c 0,30,31
 1403 723 1403 723 1489 634.5 c 128,-1,32
 1575 546 1575 546 1575 436.5 c 128,-1,33
 1575 327 1575 327 1536 254 c 128,-1,34
 1497 181 1497 181 1427 133 c 128,-1,35
 1357 85 1357 85 1251.5 55 c 0,36,37
 1058.08333333 -2.13162820728e-14 1058.08333333 -2.13162820728e-14 744 0 c 2,38,-1
 561 0 l 2,39,40
 530 0 530 0 530 24 c 2,41,-1
 530 134 l 2,42,43
 530 157 530 157 561 155 c 1,44,-1
 761 155 l 2,45,46
 1191.61764706 155 1191.61764706 155 1297.5 251 c 0,47,48
 1335 285 1335 285 1349 324 c 128,-1,49
 1363 363 1363 363 1363 433 c 128,-1,50
 1363 503 1363 503 1316.5 554.5 c 0,51,52
 1216.72815534 665 1216.72815534 665 813 665 c 2,53,-1
 594 665 l 2,54,55
 563 665 563 665 563 693 c 2,56,-1
 563 803 l 2,57,58
 563 833 563 833 594 833 c 2,59,-1
 823 833 l 2,0,1
EndSplineSet
EndChar

StartChar: ae
Encoding: 230 230 167
Width: 2783
GlyphClass: 2
Flags: W
LayerCount: 2
Fore
SplineSet
1551 589 m 2,0,-1
 2467 589 l 1,1,-1
 2431.5 679.5 l 1,2,3
 2416 714 2416 714 2381 760.5 c 128,-1,4
 2346 807 2346 807 2302 834.5 c 0,5,6
 2194 902 2194 902 2018 902 c 0,7,8
 1848.94366197 902 1848.94366197 902 1714 830.5 c 0,9,10
 1569.30559345 753.833560709 1569.30559345 753.833560709 1543 596 c 1,11,12
 1543 589 1543 589 1551 589 c 2,0,-1
448 137.5 m 128,-1,14
 529 101 529 101 707.5 101 c 128,-1,15
 886 101 886 101 1019 143.5 c 128,-1,16
 1152 186 1152 186 1237.5 275 c 128,-1,17
 1323 364 1323 364 1323 485 c 0,18,19
 1323 496 1323 496 1321.5 499 c 128,-1,20
 1320 502 1320 502 1314.5 502 c 128,-1,21
 1309 502 1309 502 1251.5 497 c 128,-1,22
 1194 492 1194 492 1191 491 c 0,23,24
 743 461 743 461 554 405.5 c 128,-1,25
 365 350 365 350 365 250 c 1,26,13
 367 174 367 174 448 137.5 c 128,-1,14
1320 641 m 2,27,-1
 1322 703 l 1,28,29
 1322 844.807017544 1322 844.807017544 1081.5 887 c 0,30,31
 996 902 996 902 903.5 902 c 128,-1,32
 811 902 811 902 737 897.5 c 128,-1,33
 663 893 663 893 555.5 868.5 c 128,-1,34
 448 844 448 844 401.5 795.5 c 128,-1,35
 355 747 355 747 330 747 c 1,36,-1
 196 765 l 2,37,38
 183 766 183 766 173.5 777.5 c 128,-1,39
 164 789 164 789 164 802.5 c 128,-1,40
 164 816 164 816 175 846 c 0,41,42
 250.08411215 1052 250.08411215 1052 879 1052 c 0,43,44
 1356 1052 1356 1052 1455 831 c 1,45,46
 1552 938 1552 938 1707.5 995 c 128,-1,47
 1863 1052 1863 1052 2003 1052 c 128,-1,48
 2143 1052 2143 1052 2245 1025 c 128,-1,49
 2347 998 2347 998 2413.5 955.5 c 128,-1,50
 2480 913 2480 913 2530 853 c 0,51,52
 2616.52719665 749.167364017 2616.52719665 749.167364017 2650 609 c 1,53,-1
 2650 558 l 2,54,55
 2650 525 2650 525 2630.5 499 c 0,56,57
 2593.75 450 2593.75 450 2515 450 c 2,58,-1
 1556 450 l 2,59,60
 1551 450 1551 450 1545 455.5 c 128,-1,61
 1539 461 1539 461 1539 458 c 0,62,63
 1539 364.434782609 1539 364.434782609 1585.5 297.717391304 c 128,-1,64
 1632 231 1632 231 1686 193.5 c 0,65,66
 1812 106 1812 106 2049 106 c 0,67,68
 2162 106 2162 106 2295 141.5 c 128,-1,69
 2428 177 2428 177 2474.5 198.5 c 128,-1,70
 2521 220 2521 220 2544.5 220 c 128,-1,71
 2568 220 2568 220 2574 201 c 0,72,73
 2599 127 2599 127 2597 115 c 1,74,75
 2597 86 2597 86 2553 63 c 1,76,77
 2463 19 2463 19 2307.5 -11.5 c 128,-1,78
 2152 -42 2152 -42 2041 -42 c 0,79,80
 1826 -42 1826 -42 1674.5 25 c 128,-1,81
 1523 92 1523 92 1433 246 c 1,82,83
 1428 251 1428 251 1425 251 c 128,-1,84
 1422 251 1422 251 1419 247 c 0,85,86
 1190 -41 1190 -41 716 -41 c 0,87,88
 427 -41 427 -41 283 31 c 128,-1,89
 139 103 139 103 137 238 c 1,90,91
 137 316 137 316 188 378 c 128,-1,92
 239 440 239 440 322 478.5 c 128,-1,93
 405 517 405 517 511.5 546 c 128,-1,94
 618 575 618 575 728.5 588.5 c 128,-1,95
 839 602 839 602 945.5 611.5 c 128,-1,96
 1052 621 1052 621 1135 624 c 0,97,98
 1320 630.686746988 1320 630.686746988 1320 641 c 2,27,-1
EndSplineSet
EndChar

StartChar: eth
Encoding: 240 240 177
Width: 1862
GlyphClass: 2
Flags: W
LayerCount: 2
Fore
SplineSet
947 131 m 0,0,1
 1220 131 1220 131 1363 217.5 c 128,-1,2
 1506 304 1506 304 1506 457 c 0,3,4
 1506 609 1506 609 1377 672 c 0,5,6
 1294.78021978 712.153846154 1294.78021978 712.153846154 1206.89010989 722.076923077 c 0,7,8
 1074.71428571 737 1074.71428571 737 934.857142857 737 c 128,-1,9
 795 737 795 737 690.5 721.5 c 128,-1,10
 586 706 586 706 521 680 c 128,-1,11
 456 654 456 654 417 614.5 c 0,12,13
 348 544.615384615 348 544.615384615 348 433 c 0,14,15
 348 290.956521739 348 290.956521739 444 220 c 0,16,17
 564.411764706 131 564.411764706 131 947 131 c 0,0,1
577 1419 m 1,18,-1
 593 1495 l 2,19,20
 593 1497 593 1497 595.5 1502 c 128,-1,21
 598 1507 598 1507 599.5 1510.5 c 128,-1,22
 601 1514 601 1514 602 1515 c 128,-1,23
 603 1516 603 1516 604.5 1519 c 128,-1,24
 606 1522 606 1522 607.5 1522.5 c 128,-1,25
 609 1523 609 1523 611.5 1524.5 c 128,-1,26
 614 1526 614 1526 616.5 1526.5 c 128,-1,27
 619 1527 619 1527 622 1527.5 c 128,-1,28
 625 1528 625 1528 629 1528 c 128,-1,29
 633 1528 633 1528 647 1526 c 0,30,31
 833 1501 833 1501 1031 1438 c 1,32,-1
 1195 1615 l 2,33,34
 1210 1631 1210 1631 1231.5 1631 c 128,-1,35
 1253 1631 1253 1631 1276 1607.5 c 128,-1,36
 1299 1584 1299 1584 1306.5 1577 c 128,-1,37
 1314 1570 1314 1570 1314 1548.5 c 128,-1,38
 1314 1527 1314 1527 1300 1513 c 2,39,-1
 1170 1373 l 1,40,41
 1420 1238 1420 1238 1575.5 1013 c 128,-1,42
 1731 788 1731 788 1731 558 c 0,43,44
 1731 98.5333333333 1731 98.5333333333 1254 -11 c 0,45,46
 1119 -42 1119 -42 961 -42 c 128,-1,47
 803 -42 803 -42 685.5 -28.5 c 128,-1,48
 568 -15 568 -15 462 18 c 128,-1,49
 356 51 356 51 284 103 c 0,50,51
 128 215.666666667 128 215.666666667 128 425 c 0,52,53
 128 690.075144509 128 690.075144509 366.5 804.5 c 0,54,55
 557.21686747 896 557.21686747 896 911 896 c 0,56,57
 1153 896 1153 896 1308 845 c 128,-1,58
 1463 794 1463 794 1517 712 c 1,59,60
 1484.38271863 943.039076377 1484.38271863 943.039076377 1276.5 1110 c 0,61,62
 1182.11478599 1185.80544747 1182.11478599 1185.80544747 1058 1252 c 1,63,-1
 868 1047 l 2,64,65
 853 1031 853 1031 831.5 1031 c 128,-1,66
 810 1031 810 1031 795 1046 c 2,67,-1
 765 1074 l 2,68,69
 749 1090 749 1090 749 1111.5 c 128,-1,70
 749 1133 749 1133 764 1148 c 2,71,-1
 915 1311 l 1,72,73
 852 1326 852 1326 608 1382 c 1,74,75
 577 1397 577 1397 577 1419 c 1,18,-1
EndSplineSet
EndChar

StartChar: divide
Encoding: 247 247 184
Width: 1272
GlyphClass: 2
Flags: W
LayerCount: 2
Fore
SplineSet
574 746 m 2,0,1
 542 746 542 746 519.5 768.5 c 128,-1,2
 497 791 497 791 497 823 c 2,3,-1
 497 945 l 2,4,5
 497 977 497 977 519.5 999.5 c 128,-1,6
 542 1022 542 1022 574 1022 c 2,7,-1
 710 1022 l 2,8,9
 742 1022 742 1022 764.5 999.5 c 128,-1,10
 787 977 787 977 787 945 c 2,11,-1
 787 823 l 2,12,13
 787 791 787 791 764.5 768.5 c 128,-1,14
 742 746 742 746 710 746 c 2,15,-1
 574 746 l 2,0,1
184 442 m 2,16,17
 117 442 117 442 117 509 c 2,18,-1
 117 554 l 2,19,20
 117 621 117 621 184 621 c 2,21,-1
 1088 621 l 2,22,23
 1155 621 1155 621 1155 554 c 2,24,-1
 1155 509 l 2,25,26
 1155 442 1155 442 1088 442 c 2,27,-1
 184 442 l 2,16,17
574 15 m 2,28,29
 542 15 542 15 519.5 37.5 c 128,-1,30
 497 60 497 60 497 92 c 2,31,-1
 497 215 l 2,32,33
 497 247 497 247 519.5 269.5 c 128,-1,34
 542 292 542 292 574 292 c 2,35,-1
 710 292 l 2,36,37
 742 292 742 292 764.5 269.5 c 128,-1,38
 787 247 787 247 787 215 c 2,39,-1
 787 92 l 2,40,41
 787 60 787 60 764.5 37.5 c 128,-1,42
 742 15 742 15 710 15 c 2,43,-1
 574 15 l 2,28,29
EndSplineSet
EndChar

StartChar: oslash
Encoding: 248 248 185
Width: 1640
GlyphClass: 2
Flags: W
LayerCount: 2
Fore
SplineSet
728 114 m 1,0,1
 773 108 773 108 846 108 c 128,-1,2
 919 108 919 108 1003.5 133.5 c 128,-1,3
 1088 159 1088 159 1152.5 207 c 0,4,5
 1292 310.813953488 1292 310.813953488 1292 504 c 0,6,7
 1292 644 1292 644 1223.5 735 c 128,-1,8
 1155 826 1155 826 1039 867 c 1,9,-1
 728 114 l 1,0,1
602 146 m 1,10,-1
 913 897 l 1,11,12
 869 903 869 903 798.5 903 c 128,-1,13
 728 903 728 903 645 880 c 128,-1,14
 562 857 562 857 494.5 811 c 128,-1,15
 427 765 427 765 388 686 c 0,16,17
 348.496350365 605.979786637 348.496350365 605.979786637 348.496350365 488.293329426 c 0,18,19
 348.496350365 372.332116788 348.496350365 372.332116788 416 281.5 c 0,20,21
 484 190 484 190 602 146 c 1,10,-1
566 -202 m 2,22,-1
 489 -200 l 2,23,24
 478 -200 478 -200 472.5 -189 c 128,-1,25
 467 -178 467 -178 472 -167 c 2,26,-1
 542 2 l 1,27,28
 369.368698061 56.198199446 369.368698061 56.198199446 254 174.5 c 0,29,30
 129 302.677966102 129 302.677966102 129 504 c 0,31,32
 129 622 129 622 170 716.5 c 128,-1,33
 211 811 211 811 278.5 872.5 c 128,-1,34
 346 934 346 934 437 975.5 c 0,35,36
 604.746987952 1052 604.746987952 1052 823 1052 c 0,37,38
 902 1052 902 1052 973 1042 c 1,39,-1
 1024 1164 l 2,40,41
 1037 1197 1037 1197 1068 1197 c 2,42,-1
 1145 1197 l 2,43,44
 1155 1197 1155 1197 1161 1186 c 128,-1,45
 1167 1175 1167 1175 1162 1164 c 2,46,-1
 1101 1014 l 1,47,48
 1278.15613383 963.093064992 1278.15613383 963.093064992 1390 844.5 c 0,49,50
 1512 715.137931034 1512 715.137931034 1512 504 c 0,51,52
 1512 391 1512 391 1468 297 c 128,-1,53
 1424 203 1424 203 1353.5 141.5 c 128,-1,54
 1283 80 1283 80 1191.5 38 c 0,55,56
 1019.39285714 -41 1019.39285714 -41 823 -41 c 1,57,58
 748 -41 748 -41 669 -29 c 1,59,-1
 611 -169 l 2,60,61
 597.8 -202 597.8 -202 566 -202 c 2,22,-1
EndSplineSet
EndChar

StartChar: thorn
Encoding: 254 254 191
Width: 1671
GlyphClass: 2
Flags: W
LayerCount: 2
Fore
SplineSet
675.5 132.5 m 128,-1,1
 759 107 759 107 852.5 107 c 128,-1,2
 946 107 946 107 1028 130 c 128,-1,3
 1110 153 1110 153 1177.5 199 c 128,-1,4
 1245 245 1245 245 1284.5 324 c 128,-1,5
 1324 403 1324 403 1324 519 c 128,-1,6
 1324 635 1324 635 1259 726.5 c 0,7,8
 1132.90710383 904 1132.90710383 904 853 904 c 0,9,10
 572.142857143 904 572.142857143 904 445 726 c 0,11,12
 380 635 380 635 380 523 c 128,-1,13
 380 411 380 411 419 333 c 128,-1,14
 458 255 458 255 525 206.5 c 128,-1,0
 592 158 592 158 675.5 132.5 c 128,-1,1
356 1360 m 2,15,-1
 358 880 l 2,16,17
 358 835 358 835 370 835 c 0,18,19
 374 835 374 835 379 841 c 0,20,21
 468 942 468 942 605 997 c 128,-1,22
 742 1052 742 1052 859 1052 c 128,-1,23
 976 1052 976 1052 1065.5 1034 c 128,-1,24
 1155 1016 1155 1016 1242 974 c 128,-1,25
 1329 932 1329 932 1395 871 c 128,-1,26
 1461 810 1461 810 1501.5 716 c 128,-1,27
 1542 622 1542 622 1542 505.5 c 128,-1,28
 1542 389 1542 389 1502.5 293.5 c 128,-1,29
 1463 198 1463 198 1397.5 136.5 c 128,-1,30
 1332 75 1332 75 1243 34 c 0,31,32
 982.37415114 -42.2057966436 982.37415114 -42.2057966436 905.053383127 -42.2057966436 c 0,33,34
 901.035277964 -42.2057966436 901.035277964 -42.2057966436 897.512195122 -42 c 1,35,36
 557.010309278 -42 557.010309278 -42 390 158 c 0,37,38
 387 163 387 163 383.5 163 c 128,-1,39
 380 163 380 163 380 156 c 2,40,-1
 380 -363 l 2,41,42
 380 -430 380 -430 313 -430 c 2,43,-1
 228 -430 l 2,44,45
 161 -430 161 -430 161 -363 c 2,46,-1
 161 1371 l 2,47,48
 161 1406 161 1406 172 1422 c 128,-1,49
 183 1438 183 1438 213 1438 c 2,50,-1
 309 1438 l 2,51,52
 334 1438 334 1438 345 1423 c 128,-1,53
 356 1408 356 1408 356 1360 c 2,15,-1
EndSplineSet
EndChar

StartChar: dcroat
Encoding: 273 273 210
Width: 1671
GlyphClass: 2
Flags: W
LayerCount: 2
Fore
SplineSet
819 116 m 1,0,1
 917 116 917 116 1002 140.5 c 128,-1,2
 1087 165 1087 165 1152.5 212 c 0,3,4
 1292 312.099236641 1292 312.099236641 1292 504 c 0,5,6
 1292 711.382352941 1292 711.382352941 1146 808 c 0,7,8
 1013.02222222 896 1013.02222222 896 818 896 c 0,9,10
 627.707865169 896 627.707865169 896 494 808.5 c 0,11,12
 348 712.955882353 348 712.955882353 348 504 c 0,13,14
 348 310.653846154 348 310.653846154 488 210.5 c 0,15,16
 620.096774194 116 620.096774194 116 819 116 c 1,0,1
872 1249 m 2,17,18
 872 1316 872 1316 929 1316 c 2,19,-1
 1292 1316 l 1,20,-1
 1292 1372 l 2,21,22
 1292 1438 1292 1438 1359 1438 c 2,23,-1
 1444 1438 l 2,24,25
 1511 1438 1511 1438 1511 1372 c 2,26,-1
 1511 1316 l 1,27,-1
 1611 1316 l 2,28,29
 1643 1316 1643 1316 1655.5 1299.5 c 128,-1,30
 1668 1283 1668 1283 1668 1249 c 2,31,-1
 1668 1227 l 2,32,33
 1668 1193 1668 1193 1655.5 1176.5 c 128,-1,34
 1643 1160 1643 1160 1611 1160 c 2,35,-1
 1511 1160 l 1,36,-1
 1511 67 l 2,37,38
 1511 32 1511 32 1500 16 c 128,-1,39
 1489 0 1489 0 1458 0 c 2,40,-1
 1445 0 l 2,41,42
 1414 0 1414 0 1379 71 c 0,43,44
 1365 101 1365 101 1336 194 c 0,45,46
 1332 207 1332 207 1325.5 207 c 128,-1,47
 1319 207 1319 207 1310 197 c 1,48,49
 1226 84 1226 84 1082.5 21.5 c 128,-1,50
 939 -41 939 -41 817.5 -41 c 128,-1,51
 696 -41 696 -41 606.5 -23 c 128,-1,52
 517 -5 517 -5 429.5 37 c 128,-1,53
 342 79 342 79 276 140 c 128,-1,54
 210 201 210 201 169.5 295 c 128,-1,55
 129 389 129 389 129 496 c 128,-1,56
 129 603 129 603 156.5 686 c 128,-1,57
 184 769 184 769 233 828 c 128,-1,58
 282 887 282 887 346 931.5 c 128,-1,59
 410 976 410 976 487 1002 c 0,60,61
 638.038461538 1053 638.038461538 1053 798.019230769 1053 c 0,62,63
 1122.18556701 1053 1122.18556701 1053 1281 858 c 1,64,65
 1288.8 850.2 1288.8 850.2 1292 863 c 1,66,-1
 1292 1160 l 1,67,-1
 929 1160 l 2,68,69
 872 1160 872 1160 872 1227 c 2,70,-1
 872 1249 l 2,17,18
EndSplineSet
EndChar

StartChar: Hbar
Encoding: 294 294 231
Width: 2038
GlyphClass: 2
Flags: W
LayerCount: 2
Fore
SplineSet
1645 821 m 1,0,1
 1660 836 1660 836 1663 838 c 1,2,-1
 1663 1081 l 1,3,-1
 376 1081 l 1,4,-1
 376 835 l 1,5,-1
 389 821 l 1,6,-1
 1645 821 l 1,0,1
391 666 m 1,7,-1
 376 650 l 1,8,-1
 376 67 l 2,9,10
 376 0 376 0 309 0 c 2,11,-1
 227 0 l 2,12,13
 160 0 160 0 160 67 c 2,14,-1
 160 1081 l 1,15,-1
 53 1081 l 2,16,17
 22 1081 22 1081 14 1093.5 c 128,-1,18
 6 1106 6 1106 6 1141 c 2,19,-1
 6 1151 l 2,20,21
 6 1186 6 1186 14 1198 c 128,-1,22
 22 1210 22 1210 53 1210 c 2,23,-1
 160 1210 l 1,24,-1
 160 1371 l 2,25,26
 160 1438 160 1438 227 1438 c 2,27,-1
 309 1438 l 2,28,29
 376 1438 376 1438 376 1371 c 2,30,-1
 376 1210 l 1,31,-1
 1663 1210 l 1,32,-1
 1663 1371 l 2,33,34
 1663 1438 1663 1438 1729 1438 c 2,35,-1
 1811 1438 l 2,36,37
 1878 1438 1878 1438 1878 1371 c 2,38,-1
 1878 1210 l 1,39,-1
 1994 1210 l 2,40,41
 2024 1210 2024 1210 2032 1198 c 128,-1,42
 2040 1186 2040 1186 2040 1151 c 2,43,-1
 2040 1141 l 2,44,45
 2040 1106 2040 1106 2032 1093.5 c 128,-1,46
 2024 1081 2024 1081 1994 1081 c 2,47,-1
 1878 1081 l 1,48,-1
 1878 67 l 2,49,50
 1878 0 1878 0 1811 0 c 2,51,-1
 1729 0 l 2,52,53
 1663 0 1663 0 1663 67 c 2,54,-1
 1663 648 l 1,55,-1
 1647 666 l 1,56,-1
 391 666 l 1,7,-1
EndSplineSet
EndChar

StartChar: hbar
Encoding: 295 295 232
Width: 1534
GlyphClass: 2
Flags: W
LayerCount: 2
Fore
SplineSet
696 1227 m 2,0,1
 696 1160 696 1160 639 1160 c 2,2,-1
 379 1160 l 1,3,-1
 379 852 l 1,4,-1
 388 846 l 1,5,6
 569 1052 569 1052 875 1052 c 0,7,8
 1115 1052 1115 1052 1253 925.5 c 128,-1,9
 1391 799 1391 799 1391 553 c 2,10,-1
 1391 67 l 2,11,12
 1391 0 1391 0 1324 0 c 2,13,-1
 1240 0 l 2,14,15
 1173 0 1173 0 1173 67 c 2,16,-1
 1173 609 l 2,17,18
 1173 904 1173 904 837 904 c 0,19,20
 741 904 741 904 633 858.5 c 128,-1,21
 525 813 525 813 452 743 c 128,-1,22
 379 673 379 673 379 609 c 2,23,-1
 379 67 l 2,24,25
 379 0 379 0 313 0 c 2,26,-1
 227 0 l 2,27,28
 160 0 160 0 160 67 c 2,29,-1
 160 1160 l 1,30,-1
 57 1160 l 2,31,32
 0 1160 0 1160 0 1227 c 2,33,-1
 0 1249 l 2,34,35
 0 1316 0 1316 57 1316 c 2,36,-1
 160 1316 l 1,37,-1
 160 1371 l 2,38,39
 160 1438 160 1438 227 1438 c 2,40,-1
 312 1438 l 2,41,42
 379 1438 379 1438 379 1371 c 2,43,-1
 379 1316 l 1,44,-1
 639 1316 l 2,45,46
 696 1316 696 1316 696 1249 c 2,47,-1
 696 1227 l 2,0,1
EndSplineSet
EndChar

StartChar: dotlessi
Encoding: 305 305 242
Width: 538
GlyphClass: 2
Flags: W
LayerCount: 2
Fore
SplineSet
227 0 m 2,0,1
 160 0 160 0 160 67 c 2,2,-1
 160 939 l 2,3,4
 160 1006 160 1006 227 1006 c 2,5,-1
 312 1006 l 2,6,7
 379 1006 379 1006 379 939 c 2,8,-1
 379 67 l 2,9,10
 379 0 379 0 312 0 c 2,11,-1
 227 0 l 2,0,1
EndSplineSet
EndChar

StartChar: kgreenlandic
Encoding: 312 312 249
Width: 1698
GlyphClass: 2
Flags: W
LayerCount: 2
Fore
SplineSet
227 0 m 2,0,1
 160 0 160 0 160 67 c 2,2,-1
 160 939 l 2,3,4
 160 1006 160 1006 227 1006 c 2,5,-1
 312 1006 l 2,6,7
 379 1006 379 1006 379 939 c 2,8,-1
 379 474 l 2,9,10
 379 465 379 465 384 465 c 128,-1,11
 389 465 389 465 391 467 c 2,12,-1
 1157 938 l 1,13,14
 1261.83333333 1006 1261.83333333 1006 1307 1006 c 2,15,-1
 1490 1006 l 2,16,17
 1520 1006 1520 1006 1520 989 c 0,18,19
 1520 966 1520 966 1473 938 c 2,20,-1
 865 563 l 2,21,22
 859 559 859 559 859 554.5 c 128,-1,23
 859 550 859 550 866 547 c 1,24,-1
 1538 67 l 2,25,26
 1572 42 1572 42 1572 21 c 128,-1,27
 1572 0 1572 0 1536 0 c 2,28,-1
 1382 0 l 2,29,30
 1344.54545455 0 1344.54545455 0 1313.27272727 21.5 c 128,-1,31
 1282 43 1282 43 1250 67 c 2,32,-1
 701 468 l 2,33,34
 690 476 690 476 684 476 c 128,-1,35
 678 476 678 476 671 471 c 2,36,-1
 391 311 l 2,37,38
 379 304 379 304 379 290 c 2,39,-1
 379 67 l 2,40,41
 379 0 379 0 312 0 c 2,42,-1
 227 0 l 2,0,1
EndSplineSet
EndChar

StartChar: Lslash
Encoding: 321 321 258
Width: 1339
GlyphClass: 2
Flags: W
LayerCount: 2
Fore
SplineSet
1163 0 m 2,0,-1
 227 0 l 2,1,2
 160 0 160 0 160 67 c 2,3,-1
 160 656 l 1,4,-1
 59 624 l 1,5,6
 49 622 49 622 45 622 c 0,7,8
 1 622 1 622 1 692 c 2,9,-1
 1 709 l 2,10,11
 1 741 1 741 13.5 754.5 c 128,-1,12
 26 768 26 768 59 776 c 1,13,-1
 160 808 l 1,14,-1
 160 1371 l 2,15,16
 160 1438 160 1438 227 1438 c 2,17,-1
 307 1438 l 2,18,19
 374 1438 374 1438 374 1371 c 2,20,-1
 374 875 l 1,21,-1
 739 988 l 2,22,23
 748 991 748 991 755 991 c 0,24,25
 797 991 797 991 797 920 c 2,26,-1
 797 904 l 2,27,28
 797 873 797 873 784.5 859.5 c 128,-1,29
 772 846 772 846 739 836 c 2,30,-1
 374 723 l 1,31,-1
 374 191 l 2,32,33
 374 176 374 176 385 165 c 128,-1,34
 396 154 396 154 411 154 c 2,35,-1
 1163 154 l 2,36,37
 1230 154 1230 154 1230 89 c 2,38,-1
 1230 67 l 2,39,40
 1230 0 1230 0 1163 0 c 2,0,-1
EndSplineSet
EndChar

StartChar: lslash
Encoding: 322 322 259
Width: 922
GlyphClass: 2
Flags: W
LayerCount: 2
Fore
SplineSet
404 0 m 2,0,1
 337 0 337 0 337 67 c 2,2,-1
 337 690 l 1,3,-1
 126 624 l 1,4,5
 116 622 116 622 112 622 c 0,6,7
 68 622 68 622 68 692 c 2,8,-1
 68 709 l 2,9,10
 68 741 68 741 80.5 754.5 c 128,-1,11
 93 768 93 768 126 776 c 1,12,-1
 337 842 l 1,13,-1
 337 1370 l 2,14,15
 337 1437 337 1437 404 1437 c 2,16,-1
 489 1437 l 2,17,18
 555 1437 555 1437 555 1370 c 2,19,-1
 555 911 l 1,20,-1
 797 987 l 2,21,22
 806 990 806 990 813 990 c 0,23,24
 855 990 855 990 855 919 c 2,25,-1
 855 903 l 2,26,27
 855 872 855 872 842.5 858.5 c 128,-1,28
 830 845 830 845 797 835 c 2,29,-1
 555 759 l 1,30,-1
 555 67 l 2,31,32
 555 0 555 0 489 0 c 2,33,-1
 404 0 l 2,0,1
EndSplineSet
EndChar

StartChar: Eng
Encoding: 330 330 267
Width: 2033
GlyphClass: 2
Flags: W
LayerCount: 2
Fore
SplineSet
955 -592 m 0,0,1
 943 -592 943 -592 933.5 -577.5 c 128,-1,2
 924 -563 924 -563 924 -538 c 2,3,-1
 924 -476 l 2,4,5
 924 -448 924 -448 933.5 -434.5 c 128,-1,6
 943 -421 943 -421 955 -421 c 0,7,8
 1278 -421 1278 -421 1397 -372 c 0,9,10
 1534.40689655 -315.420689655 1534.40689655 -315.420689655 1587 -219 c 0,11,12
 1656 -92.5 1656 -92.5 1656 104 c 2,13,-1
 1656 111 l 1,14,-1
 391 1127 l 1,15,-1
 377 1118 l 1,16,-1
 377 67 l 2,17,18
 377 0 377 0 310 0 c 2,19,-1
 227 0 l 2,20,21
 160 0 160 0 160 67 c 2,22,-1
 160 1371 l 2,23,24
 160 1438 160 1438 227 1438 c 2,25,-1
 303 1438 l 2,26,27
 336 1438 336 1438 351 1420 c 1,28,-1
 1643 374 l 1,29,-1
 1656 387 l 1,30,-1
 1656 1371 l 2,31,32
 1656 1438 1656 1438 1723 1438 c 2,33,-1
 1807 1438 l 2,34,35
 1873 1438 1873 1438 1873 1371 c 2,36,-1
 1874 99 l 2,37,38
 1874 -272.042253521 1874 -272.042253521 1657 -432.5 c 0,39,40
 1476.47438353 -565.987251616 1476.47438353 -565.987251616 1152 -586.5 c 0,41,42
 1065 -592 1065 -592 955 -592 c 0,0,1
EndSplineSet
EndChar

StartChar: eng
Encoding: 331 331 268
Width: 1529
GlyphClass: 2
Flags: W
LayerCount: 2
Fore
SplineSet
906 -379 m 1,0,-1
 883 -380 l 1,1,-1
 880 -380 l 2,2,3
 822 -380 822 -380 822 -313 c 2,4,-1
 822 -268 l 2,5,6
 822 -235 822 -235 835 -221 c 128,-1,7
 848 -207 848 -207 880 -207 c 2,8,-1
 1005 -207 l 2,9,10
 1088.53846154 -207 1088.53846154 -207 1119 -174 c 0,11,12
 1146.73190349 -143.957104558 1146.73190349 -143.957104558 1152.86595174 -119.978552279 c 128,-1,13
 1159 -96 1159 -96 1162 -81 c 128,-1,14
 1165 -66 1165 -66 1166.5 -36.5 c 128,-1,15
 1168 -7 1168 -7 1168 12 c 2,16,-1
 1168 609 l 2,17,18
 1168 905 1168 905 829 905 c 0,19,20
 733 905 733 905 625 859.5 c 128,-1,21
 517 814 517 814 444 743.5 c 128,-1,22
 371 673 371 673 371 609 c 2,23,-1
 371 67 l 2,24,25
 371 0 371 0 305 0 c 2,26,-1
 219 0 l 2,27,28
 152 0 152 0 152 67 c 2,29,-1
 152 929 l 2,30,31
 152 1006 152 1006 208 1006 c 2,32,-1
 226 1006 l 2,33,34
 262 1006 262 1006 280 992.5 c 128,-1,35
 298 979 298 979 305 942 c 1,36,-1
 331 824 l 1,37,38
 339 811 339 811 346 811 c 128,-1,39
 353 811 353 811 366 826 c 0,40,41
 549.137931034 1052 549.137931034 1052 869 1052 c 0,42,43
 1107 1052 1107 1052 1246.5 925 c 128,-1,44
 1386 798 1386 798 1386 553 c 2,45,-1
 1386 6 l 2,46,47
 1386 -195 1386 -195 1289 -287 c 128,-1,48
 1192 -379 1192 -379 968 -379 c 0,49,50
 937 -379 937 -379 906 -379 c 1,0,-1
EndSplineSet
EndChar

StartChar: OE
Encoding: 338 338 275
Width: 2614
GlyphClass: 2
Flags: W
LayerCount: 2
Fore
SplineSet
1208 1260 m 1,0,-1
 1187 1275 l 1,1,-1
 1151 1275 l 2,2,3
 786.937007874 1275 786.937007874 1275 573 1151.5 c 0,4,5
 344 1019.30454545 344 1019.30454545 344 724 c 0,6,7
 344 163 344 163 1149 163 c 2,8,-1
 1197 163 l 1,9,-1
 1208 180 l 1,10,-1
 1208 1260 l 1,0,-1
1422 171 m 1,11,12
 1433.5 159.5 1433.5 159.5 1435 155 c 1,13,-1
 2410 155 l 2,14,15
 2441 155 2441 155 2459 133.5 c 128,-1,16
 2477 112 2477 112 2477 79 c 2,17,-1
 2477 77 l 2,18,19
 2477 44 2477 44 2459 22 c 128,-1,20
 2441 0 2441 0 2410 0 c 2,21,-1
 1213 0 l 2,22,23
 131 0 131 0 131 724 c 0,24,25
 131 1064.78915663 131 1064.78915663 395 1244.5 c 0,26,27
 679.256637168 1438 679.256637168 1438 1215 1438 c 2,28,-1
 2412 1438 l 2,29,30
 2443 1438 2443 1438 2461 1416 c 128,-1,31
 2479 1394 2479 1394 2479 1361 c 128,-1,32
 2479 1328 2479 1328 2461 1306 c 128,-1,33
 2443 1284 2443 1284 2412 1284 c 2,34,-1
 1449 1284 l 2,35,36
 1434 1284 1434 1284 1428 1279 c 128,-1,37
 1422 1274 1422 1274 1422 1259 c 2,38,-1
 1422 847 l 1,39,-1
 1435 822 l 1,40,-1
 2302 822 l 2,41,42
 2333 822 2333 822 2351 800 c 128,-1,43
 2369 778 2369 778 2369 745 c 2,44,-1
 2369 742 l 2,45,46
 2369 709 2369 709 2351 687 c 128,-1,47
 2333 665 2333 665 2302 665 c 2,48,-1
 1441 665 l 1,49,50
 1431 655 1431 655 1422 649 c 1,51,-1
 1422 171 l 1,11,12
EndSplineSet
EndChar

StartChar: oe
Encoding: 339 339 276
Width: 2698
GlyphClass: 2
Flags: W
LayerCount: 2
Fore
SplineSet
579 152 m 128,-1,1
 683 108 683 108 814.5 108 c 128,-1,2
 946 108 946 108 1052.5 151 c 128,-1,3
 1159 194 1159 194 1226.5 285.5 c 128,-1,4
 1294 377 1294 377 1294 482 c 128,-1,5
 1294 587 1294 587 1267 655 c 128,-1,6
 1240 723 1240 723 1194.5 768.5 c 128,-1,7
 1149 814 1149 814 1087 845 c 0,8,9
 971 903 971 903 815 903 c 0,10,11
 571.054945055 903 571.054945055 903 443 767.5 c 0,12,13
 350 669.093023256 350 669.093023256 350 523.546511628 c 128,-1,14
 350 378 350 378 412.5 287 c 128,-1,0
 475 196 475 196 579 152 c 128,-1,1
1521 589 m 2,15,-1
 2424 589 l 1,16,-1
 2423 591 l 1,17,18
 2370 902 2370 902 1981 902 c 0,19,20
 1737.69014085 902 1737.69014085 902 1603 771 c 0,21,22
 1530 700 1530 700 1513 596 c 1,23,24
 1513 589 1513 589 1521 589 c 2,15,-1
447 37.5 m 0,25,26
 356 80 356 80 286.5 141 c 128,-1,27
 217 202 217 202 174 296 c 128,-1,28
 131 390 131 390 131 506 c 128,-1,29
 131 622 131 622 171 716.5 c 128,-1,30
 211 811 211 811 277.5 872.5 c 128,-1,31
 344 934 344 934 433.5 975.5 c 0,32,33
 598.481927711 1052 598.481927711 1052 799.240963855 1052 c 128,-1,34
 1000 1052 1000 1052 1157.5 991 c 128,-1,35
 1315 930 1315 930 1401 803 c 1,36,37
 1486 931 1486 931 1641 991.5 c 128,-1,38
 1796 1052 1796 1052 1951 1052 c 128,-1,39
 2106 1052 2106 1052 2207.5 1024 c 128,-1,40
 2309 996 2309 996 2375 952 c 128,-1,41
 2441 908 2441 908 2489.5 847.5 c 0,42,43
 2573.53960077 742.667095943 2573.53960077 742.667095943 2599 609 c 1,44,-1
 2599 558 l 2,45,46
 2599 450 2599 450 2472 450 c 2,47,-1
 1526 450 l 2,48,49
 1509 450 1509 450 1509 441 c 0,50,51
 1509 348.815384615 1509 348.815384615 1552.5 285.907692308 c 128,-1,52
 1596 223 1596 223 1648.5 188 c 0,53,54
 1770 107 1770 107 2015.5 107 c 128,-1,55
 2261 107 2261 107 2461 201 c 0,56,57
 2485 213 2485 213 2498.5 213 c 128,-1,58
 2512 213 2512 213 2517.5 210 c 128,-1,59
 2523 207 2523 207 2527 203.5 c 128,-1,60
 2531 200 2531 200 2534.5 191.5 c 128,-1,61
 2538 183 2538 183 2539.5 177 c 0,62,63
 2545 155 2545 155 2550.5 137.5 c 128,-1,64
 2556 120 2556 120 2556 111 c 0,65,66
 2556 87 2556 87 2521 70 c 0,67,68
 2424 22 2424 22 2276.5 -10 c 128,-1,69
 2129 -42 2129 -42 1995 -42 c 0,70,71
 1548 -42 1548 -42 1393 208 c 1,72,73
 1301 83 1301 83 1142.5 21 c 128,-1,74
 984 -41 984 -41 799.541176471 -41 c 128,-1,75
 615.082352941 -41 615.082352941 -41 447 37.5 c 0,25,26
EndSplineSet
EndChar

StartChar: Tbar
Encoding: 358 358 293
Width: 1683
GlyphClass: 2
Flags: W
LayerCount: 2
Fore
SplineSet
800 0 m 2,0,1
 733 0 733 0 733 67 c 2,2,-1
 733 664 l 1,3,-1
 342 664 l 2,4,5
 303.172413793 664 303.172413793 664 298 701.5 c 0,6,7
 296 716 296 716 296 742 c 2,8,-1
 296 764 l 2,9,10
 296 823.210526316 296 823.210526316 316.5 834 c 0,11,12
 326 839 326 839 342 839 c 2,13,-1
 733 839 l 1,14,-1
 733 1258 l 2,15,16
 733 1273 733 1273 727 1278 c 128,-1,17
 721 1283 721 1283 706 1283 c 2,18,-1
 144 1283 l 2,19,20
 113 1283 113 1283 95 1305 c 128,-1,21
 77 1327 77 1327 77 1360 c 2,22,-1
 77 1361 l 2,23,24
 77 1394 77 1394 95 1416 c 128,-1,25
 113 1438 113 1438 144 1438 c 2,26,-1
 1535 1438 l 2,27,28
 1566 1438 1566 1438 1584 1416 c 128,-1,29
 1602 1394 1602 1394 1602 1361 c 2,30,-1
 1602 1360 l 2,31,32
 1602 1327 1602 1327 1584 1305 c 128,-1,33
 1566 1283 1566 1283 1535 1283 c 2,34,-1
 975 1283 l 2,35,36
 960 1283 960 1283 954.5 1278 c 128,-1,37
 949 1273 949 1273 949 1258 c 2,38,-1
 949 839 l 1,39,-1
 1349 839 l 2,40,41
 1380.08695652 839 1380.08695652 839 1386.54347826 822.5 c 0,42,43
 1395 800.888888889 1395 800.888888889 1395 764 c 2,44,-1
 1395 742 l 2,45,46
 1395 691.181818182 1395 691.181818182 1382 677.590909091 c 128,-1,47
 1369 664 1369 664 1349 664 c 2,48,-1
 949 664 l 1,49,-1
 949 67 l 2,50,51
 949 0 949 0 882 0 c 2,52,-1
 800 0 l 2,0,1
EndSplineSet
EndChar

